<svg width="64" height="64" viewBox="0 0 64 64" fill="none" xmlns="http://www.w3.org/2000/svg">
<path d="M43.25 39.6919H38.9826L34.0809 25.7953L31.3284 33.3968H35.5648L36.7286 36.7051H30.2945L29.1811 39.6957H24.9137L31.7222 22.0392H36.4377L43.25 39.6919ZM51.0206 45.0509C50.8651 45.0507 50.7118 45.088 50.5737 45.1595C50.4357 45.2311 50.3168 45.3347 50.2272 45.4617C50.2272 45.4617 49.3795 46.4308 48.9218 46.8863C46.0406 49.7691 42.3848 51.7557 38.3969 52.6051C34.4091 53.4546 30.2603 53.1305 26.4529 51.6723C22.6455 50.2141 19.343 47.6842 16.9452 44.389C14.5473 41.0938 13.157 37.1747 12.9427 33.1061C12.7283 29.0377 13.6991 24.9943 15.7374 21.4658C17.7758 17.9372 20.7943 15.0749 24.4274 13.2253C28.0604 11.3757 32.1522 10.6183 36.2073 11.0447C40.2624 11.4711 44.1068 13.0631 47.2749 15.6278C47.0979 16.1415 47.1027 16.7003 47.2883 17.211C47.4739 17.7216 47.8291 18.1533 48.2948 18.4338C48.7604 18.7143 49.3082 18.8268 49.8468 18.7525C50.3854 18.6782 50.8822 18.4215 51.2543 18.0254C51.6265 17.6292 51.8513 17.1175 51.8914 16.5757C51.9316 16.0339 51.7845 15.4948 51.4748 15.0483C51.165 14.6016 50.7115 14.2748 50.1896 14.1221C49.6678 13.9693 49.1094 14 48.6076 14.2091C45.0918 11.3309 40.802 9.55701 36.2789 9.11114C31.7557 8.66526 27.2016 9.56732 23.1908 11.7036C19.1799 13.8399 15.8917 17.1147 13.7408 21.1154C11.5899 25.1161 10.6724 29.6634 11.1041 34.1843C11.5357 38.7052 13.2972 42.9972 16.1664 46.5193C19.0356 50.0415 22.8842 52.6361 27.2269 53.976C31.5698 55.316 36.2123 55.3414 40.5696 54.049C44.9267 52.7566 48.8035 50.2043 51.7111 46.7138C51.8485 46.5783 51.9424 46.405 51.9807 46.2159C52.019 46.0269 52 45.8307 51.926 45.6525C51.8521 45.4743 51.7265 45.3223 51.5656 45.2158C51.4047 45.1093 51.2155 45.0532 51.0225 45.0547L51.0206 45.0509Z" fill="#0B0C0D"/>
</svg>
