<svg width="64" height="64" viewBox="0 0 64 64" fill="none" xmlns="http://www.w3.org/2000/svg">
<path fill-rule="evenodd" clip-rule="evenodd" d="M32 54C44.1502 54 54 44.1502 54 32C54 19.8498 44.1502 10 32 10C19.8498 10 10 19.8498 10 32C10 44.1502 19.8498 54 32 54ZM27.9575 43.9625C27.4611 44.2029 26.9137 44.3185 26.3625 44.2994C25.9963 44.3159 25.6307 44.2538 25.2904 44.1175C24.9501 43.9811 24.6429 43.7736 24.3894 43.5088C23.8843 42.9433 23.6181 42.204 23.6469 41.4463C23.6285 41.036 23.6925 40.6262 23.8354 40.2412C23.9783 39.8562 24.1972 39.5038 24.4788 39.205C24.7533 38.9239 25.0833 38.7028 25.4478 38.556C25.8124 38.4092 26.2035 38.3399 26.5962 38.3525C27.0663 38.3365 27.5346 38.4183 27.9712 38.5931V39.2806C27.5509 39.0479 27.0768 38.9294 26.5962 38.9369C26.2934 38.9284 25.9922 38.9854 25.7133 39.104C25.4345 39.2227 25.1846 39.4002 24.9806 39.6244C24.5519 40.1128 24.33 40.7489 24.362 41.398C24.3298 42.0131 24.5367 42.6166 24.9394 43.0825C25.1325 43.2901 25.3684 43.4537 25.6305 43.5616C25.8929 43.6696 26.1754 43.7196 26.4588 43.708C26.9867 43.7219 27.5079 43.5887 27.9644 43.3231L27.9575 43.9625ZM29.9707 44.1526C30.2233 44.2582 30.4957 44.3083 30.7694 44.2994C31.0483 44.3078 31.3258 44.2563 31.5832 44.1484C31.8405 44.0405 32.0717 43.8786 32.2613 43.6738C32.6471 43.2401 32.847 42.6722 32.8182 42.0925C32.8522 41.5213 32.668 40.9586 32.3025 40.5181C32.1183 40.325 31.8947 40.174 31.6465 40.0756C31.3985 39.977 31.1321 39.9334 30.8656 39.9475C30.5838 39.9348 30.3022 39.9802 30.0384 40.0807C29.7748 40.1813 29.5344 40.3348 29.3325 40.5319C29.1346 40.751 28.9822 41.0074 28.8843 41.2858C28.7864 41.5644 28.7447 41.8596 28.7619 42.1544C28.7339 42.7171 28.9291 43.268 29.3051 43.6875C29.491 43.8884 29.7181 44.0471 29.9707 44.1526ZM30.2662 40.6407C30.4399 40.5656 30.6285 40.5308 30.8175 40.5387C31.0032 40.529 31.1886 40.5625 31.3592 40.6364C31.5298 40.7104 31.6808 40.8228 31.8006 40.965C32.05 41.3095 32.1716 41.7301 32.1444 42.1544C32.1723 42.5768 32.0506 42.9953 31.8006 43.337C31.6792 43.4762 31.5274 43.5858 31.357 43.6572C31.1866 43.7287 31.002 43.7603 30.8175 43.7494C30.629 43.7573 30.4412 43.7231 30.2677 43.6494C30.0941 43.5756 29.9391 43.4642 29.8138 43.3232C29.5509 42.9977 29.4185 42.5859 29.4425 42.1681C29.4173 41.7376 29.5492 41.3125 29.8138 40.9719C29.9377 40.8289 30.0923 40.7156 30.2662 40.6407ZM36.0288 40.7449C35.8803 40.6477 35.704 40.6018 35.5269 40.6144C35.3884 40.6193 35.2533 40.6584 35.1334 40.7279C35.0135 40.7974 34.9126 40.8954 34.8394 41.0131C34.6348 41.3371 34.5362 41.7168 34.5576 42.0994V44.2031H33.87V40.0781H34.5576V40.9375C34.6331 40.6716 34.7835 40.433 34.9907 40.25C35.1699 40.0944 35.3995 40.0089 35.6369 40.0094C35.7698 40.0033 35.9026 40.022 36.0288 40.0644V40.7449ZM14.7135 35.5371C14.8318 35.5867 14.9592 35.6114 15.0875 35.6094C15.2157 35.6102 15.3426 35.585 15.4608 35.5354C15.5789 35.4858 15.6858 35.4127 15.775 35.3207C15.8674 35.2317 15.9406 35.1249 15.9903 35.0067C16.0399 34.8885 16.0649 34.7614 16.0637 34.6331C16.0641 34.5051 16.0388 34.3781 15.9892 34.26C15.9396 34.142 15.8668 34.035 15.775 33.9456C15.6866 33.852 15.5801 33.7774 15.4619 33.7266C15.3436 33.6758 15.2162 33.6497 15.0875 33.65C14.9586 33.6484 14.8308 33.6739 14.7124 33.7249C14.594 33.7759 14.4875 33.851 14.4 33.9456C14.3098 34.0359 14.2384 34.1431 14.19 34.2611C14.1417 34.3791 14.1172 34.5056 14.1181 34.6331C14.1164 34.7608 14.1405 34.8875 14.189 35.0057C14.2374 35.1237 14.3092 35.2309 14.4 35.3207C14.4884 35.4137 14.5952 35.4875 14.7135 35.5371ZM28.7482 35.4376H26.947L20.5051 25.4412C20.3447 25.1949 20.2109 24.9323 20.1063 24.6576H20.0514C20.1126 25.2282 20.1355 25.8025 20.1201 26.3763V35.4376H18.6557V22.9045H20.5601L26.8301 32.7219C27.0913 33.1298 27.261 33.4094 27.3388 33.5607H27.3732C27.3007 32.9493 27.2708 32.3336 27.2839 31.7181V22.9045H28.7482V35.4376ZM32 35.4376H38.6619L38.6688 34.0625H33.4987V29.7176H38.0224V28.3976H33.4987V24.2312H38.3524V22.9045H32V35.4376ZM48.5001 24.2312H44.8563V35.4376H43.392V24.2312H39.7895V22.9045H48.5001V24.2312ZM37.1493 42.3124H40.0574L40.0505 41.9549C40.0833 41.432 39.9271 40.9149 39.6105 40.4974C39.455 40.3214 39.2616 40.183 39.0449 40.0924C38.8282 40.0019 38.5938 39.9617 38.3593 39.9749C38.0996 39.9676 37.8415 40.018 37.6037 40.1227C37.3659 40.2273 37.1543 40.3835 36.9843 40.5799C36.6107 41.0144 36.4164 41.5749 36.4412 42.1474C36.4062 42.7186 36.5851 43.2822 36.943 43.7287C37.1166 43.9179 37.3299 44.0666 37.5676 44.1641C37.8053 44.2615 38.0615 44.3053 38.318 44.2924C38.8265 44.318 39.3299 44.1808 39.7549 43.9005V43.2818C39.3929 43.5754 38.9422 43.7377 38.4762 43.7424C38.2965 43.7527 38.1166 43.725 37.9484 43.661C37.7802 43.597 37.6274 43.4983 37.4999 43.3712C37.2549 43.0744 37.1298 42.6967 37.1493 42.3124ZM39.0949 40.8687C39.2867 41.1234 39.3838 41.437 39.3699 41.7555L37.1424 41.7624C37.1794 41.4351 37.3218 41.1287 37.548 40.8893C37.6492 40.7813 37.7718 40.6956 37.9079 40.6376C38.044 40.5796 38.1907 40.5506 38.3387 40.5524C38.4805 40.5447 38.622 40.5692 38.753 40.6239C38.8839 40.6787 39.0009 40.7624 39.0949 40.8687Z" fill="#0B0C0D"/>
</svg>
