<svg width="64" height="64" viewBox="0 0 64 64" fill="none" xmlns="http://www.w3.org/2000/svg">
<path d="M45.5706 10.87H36.6887C36.3713 9.87642 35.7464 9.0095 34.9041 8.39437C34.0618 7.77925 33.0459 7.44775 32.0029 7.44775C30.9599 7.44775 29.944 7.77925 29.1017 8.39437C28.2595 9.0095 27.6345 9.87642 27.3171 10.87H18.4295C16.7491 10.87 15.1375 11.5375 13.9492 12.7257C12.761 13.914 12.0935 15.5256 12.0935 17.206V50.2165C12.0935 51.8969 12.761 53.5085 13.9492 54.6968C15.1375 55.885 16.7491 56.5525 18.4295 56.5525H45.5706C47.251 56.5525 48.8626 55.885 50.0508 54.6968C51.239 53.5085 51.9066 51.8969 51.9066 50.2165V17.206C51.9066 15.5256 51.239 13.914 50.0508 12.7257C48.8626 11.5375 47.251 10.87 45.5706 10.87ZM27.7607 12.022C27.8946 12.0249 28.0254 11.9811 28.1305 11.8981C28.2357 11.815 28.3086 11.6979 28.3367 11.5669C28.5197 10.7269 28.9846 9.97474 29.6542 9.43542C30.3237 8.89609 31.1576 8.60201 32.0173 8.60201C32.877 8.60201 33.7109 8.89609 34.3804 9.43542C35.05 9.97474 35.5149 10.7269 35.6979 11.5669C35.726 11.6979 35.7989 11.815 35.9041 11.8981C36.0092 11.9811 36.14 12.0249 36.2739 12.022H39.3728V15.7948C39.3728 16.2531 39.1908 16.6926 38.8667 17.0166C38.5426 17.3407 38.1031 17.5228 37.6448 17.5228H26.384C25.9257 17.5228 25.4862 17.3407 25.1621 17.0166C24.8381 16.6926 24.656 16.2531 24.656 15.7948V12.022H27.7607ZM50.7546 50.2165C50.7546 51.5914 50.2084 52.91 49.2362 53.8822C48.264 54.8544 46.9455 55.4005 45.5706 55.4005H18.4295C17.0546 55.4005 15.736 54.8544 14.7638 53.8822C13.7916 52.91 13.2455 51.5914 13.2455 50.2165V17.206C13.2455 15.8311 13.7916 14.5125 14.7638 13.5403C15.736 12.5681 17.0546 12.022 18.4295 12.022H23.504V15.7948C23.504 16.5586 23.8075 17.2911 24.3476 17.8312C24.8877 18.3713 25.6202 18.6748 26.384 18.6748H37.616C38.3799 18.6748 39.1124 18.3713 39.6525 17.8312C40.1926 17.2911 40.496 16.5586 40.496 15.7948V12.022H45.5706C46.9455 12.022 48.264 12.5681 49.2362 13.5403C50.2084 14.5125 50.7546 15.8311 50.7546 17.206V50.2165Z" fill="#0B0C0D"/>
<path d="M28.5376 29.647H18.4C18.2473 29.647 18.1008 29.7102 17.9927 29.8227C17.8847 29.9353 17.824 30.0879 17.824 30.247C17.824 30.4061 17.8847 30.5587 17.9927 30.6713C18.1008 30.7838 18.2473 30.847 18.4 30.847H28.5376C28.6904 30.847 28.8369 30.7838 28.9449 30.6713C29.0529 30.5587 29.1136 30.4061 29.1136 30.247C29.1136 30.0879 29.0529 29.9353 28.9449 29.8227C28.8369 29.7102 28.6904 29.647 28.5376 29.647Z" fill="#0B0C0D"/>
<path d="M45.2417 29.647H35.1041C34.9514 29.647 34.8049 29.7102 34.6968 29.8227C34.5888 29.9353 34.5281 30.0879 34.5281 30.247C34.5281 30.4061 34.5888 30.5587 34.6968 30.6713C34.8049 30.7838 34.9514 30.847 35.1041 30.847H45.2417C45.3945 30.847 45.541 30.7838 45.649 30.6713C45.757 30.5587 45.8177 30.4061 45.8177 30.247C45.8177 30.0879 45.757 29.9353 45.649 29.8227C45.541 29.7102 45.3945 29.647 45.2417 29.647Z" fill="#0B0C0D"/>
<path d="M28.5664 43.2231H18.4C18.2473 43.2231 18.1008 43.2863 17.9927 43.3988C17.8847 43.5113 17.824 43.6639 17.824 43.8231C17.824 43.9822 17.8847 44.1348 17.9927 44.2473C18.1008 44.3598 18.2473 44.4231 18.4 44.4231H28.5664C28.7192 44.4231 28.8657 44.3598 28.9737 44.2473C29.0817 44.1348 29.1424 43.9822 29.1424 43.8231C29.1424 43.6639 29.0817 43.5113 28.9737 43.3988C28.8657 43.2863 28.7192 43.2231 28.5664 43.2231Z" fill="#0B0C0D"/>
<path d="M45.2705 43.2231H35.1041C34.9514 43.2231 34.8049 43.2863 34.6968 43.3988C34.5888 43.5113 34.5281 43.6639 34.5281 43.8231C34.5281 43.9822 34.5888 44.1348 34.6968 44.2473C34.8049 44.3598 34.9514 44.4231 35.1041 44.4231H45.2705C45.4233 44.4231 45.5698 44.3598 45.6778 44.2473C45.7858 44.1348 45.8465 43.9822 45.8465 43.8231C45.8465 43.6639 45.7858 43.5113 45.6778 43.3988C45.5698 43.2863 45.4233 43.2231 45.2705 43.2231Z" fill="#0B0C0D"/>
</svg>
