<?xml version="1.0" encoding="UTF-8"?><svg id="Layer_1" xmlns="http://www.w3.org/2000/svg" viewBox="0 0 64 64"><g id="Graphic_Design-3"><path d="m57,0H7C4.24316406,0,2,2.24316406,2,5v42c0,2.75683594,2.24316406,5,5,5h16.55682373l-2.25,6h-1.30682373c-1.65429688,0-3,1.34570312-3,3v1h-2c-.55224609,0-1,.44775391-1,1s.44775391,1,1,1h34c.55224609,0,1-.44775391,1-1s-.44775391-1-1-1h-2v-1c0-1.65429688-1.34570312-3-3-3h-1.30682373l-2.25-6h16.55682373c2.75683594,0,5-2.24316406,5-5V5c0-2.75683594-2.24316406-5-5-5ZM4,5c0-1.65429688,1.34570312-3,3-3h50c1.65429688,0,3,1.34570312,3,3v37h-3V6c0-.55224609-.44775391-1-1-1H8c-.55224609,0-1,.44775391-1,1v36h-3V5Zm28,24c.55126953,0,1,.44873047,1,1s-.44873047,1-1,1-1-.44873047-1-1,.44873047-1,1-1Zm.99761963-12.98822021c-.0067749.54559326-.45050049.98822021-.99761963.98822021s-.99084473-.44262695-.99761963-.98822021c-.00024414-.00219727.00079346-.00421143.00054932-.00640869-.00030518-.00274658-.00213623-.00488281-.00250244-.00762939.00134277-.55023193.44909668-.9977417.99957275-.9977417s.99822998.44750977.99957275.9977417c-.00036621.00274658-.00219727.00488281-.00250244.00762939-.00024414.00219727.00079346.00421143.00054932.00640869Zm-1.99761963,11.17248535c-1.16149902.41412354-2,1.51379395-2,2.81573486,0,1.65429688,1.34570312,3,3,3s3-1.34570312,3-3c0-1.30194092-.83850098-2.40161133-2-2.81573486v-6.18438721l6.76074219,9.01477051-4.27539062,5.98535156h-6.97070312l-4.27539062-5.98535156,6.76074219-9.01477051v6.18438721Zm-3,10.81573486h8v4h-8v-4Zm9.72021484-1.68768311l4.09375-5.73126221c.25292969-.35449219.24755859-.83251953-.01416016-1.18115234l-8.16699219-10.88934326c.47247314-.30828857.84906006-.74639893,1.08709717-1.26293945,6.70385742,1.13244629,11.90002441,6.32861328,13.0324707,13.0324707-1.03106689.47515869-1.75238037,1.51208496-1.75238037,2.71990967,0,1.65429688,1.34570312,3,3,3s3-1.34570312,3-3c0-1.39459229-.96069336-2.55950928-2.2520752-2.89416504-.9206543-5.76184082-4.49957275-10.5536499-9.4786377-13.10583496h5.91503906c.41412354,1.16149902,1.51373291,2,2.81567383,2,1.65429688,0,3-1.34570312,3-3s-1.34570312-3-3-3c-1.30194092,0-2.40161133.83850098-2.81573486,2h-11.36853027c-.41412354-1.16149902-1.51379395-2-2.81573486-2s-2.40161133.83850098-2.81573486,2h-11.36853027c-.41412354-1.16149902-1.51379395-2-2.81573486-2-1.65429688,0-3,1.34570312-3,3s1.34570312,3,3,3c1.30194092,0,2.40161133-.83850098,2.81573486-2h5.91497803c-4.97906494,2.55218506-8.55804443,7.34399414-9.4786377,13.10583496-1.29138184.33465576-2.2520752,1.49957275-2.2520752,2.89416504,0,1.65429688,1.34570312,3,3,3s3-1.34570312,3-3c0-1.20788574-.72125244-2.24475098-1.75238037-2.71990967,1.13244629-6.70385742,6.32867432-11.89996338,13.03253174-13.0324707.23803711.51654053.61450195.95465088,1.08703613,1.26293945l-8.16699219,10.88934326c-.26171875.34863281-.26708984.82666016-.01416016,1.18115234l4.09375,5.73126221c-.17132568.17950439-.27978516.41998291-.27978516.68768311v5H9V7h46v35h-17v-5c0-.2677002-.10845947-.50817871-.27978516-.68768311Zm11.26159668-4.30865479c.00427246-.00048828.00848389-.00018311.01281738-.00073242.00274658-.00030518.00488281-.00213623.00762939-.00250244.55023193.00134277.9977417.44909668.9977417.99957275,0,.55126953-.44873047,1-1,1s-1-.44873047-1-1c0-.5447998.43939209-.98602295.98181152-.99633789Zm-.98181152-16.00366211c0-.55126953.44873047-1,1-1s1,.44873047,1,1-.44873047,1-1,1-1-.44873047-1-1Zm-32,0c0,.55126953-.44873047,1-1,1s-1-.44873047-1-1,.44873047-1,1-1,1,.44873047,1,1Zm-1.0022583,16.00042725c.00274658.00036621.00488281.00219727.00762939.00250244.0043335.00054932.00854492.00024414.01281738.00073242.54241943.01031494.98181152.45153809.98181152.99633789,0,.55126953-.44873047,1-1,1s-1-.44873047-1-1c0-.55047607.44750977-.99822998.9977417-.99957275Zm30.0022583,28.99957275v1h-26v-1c0-.55126953.44873047-1,1-1h24c.55126953,0,1,.44873047,1,1Zm-4.44287109-3h-17.11425781l2.25-6h5.30712891v2c0,.55224609.44775391,1,1,1s1-.44775391,1-1v-2h5.30712891l2.25,6Zm19.44287109-11c0,1.65429688-1.34570312,3-3,3H7c-1.65429688,0-3-1.34570312-3-3v-3h56v3Z" style="stroke-width:0px;"/></g></svg>