<?xml version="1.0" encoding="UTF-8"?><svg id="Layer_1" xmlns="http://www.w3.org/2000/svg" viewBox="0 0 64 64"><g id="Pencil_and_ruler"><path d="m62.64697266,44.23291016l-14.31982422-14.31982422c-.390625-.390625-1.0234375-.390625-1.4140625,0s-.390625,1.0234375,0,1.4140625l14.31982422,14.31982422c.49462891.49462891.76708984,1.15283203.76708984,1.85302734s-.27246094,1.35839844-.76708984,1.85302734l-11.87988281,11.87988281c-.98925781.98925781-2.71679688.98925781-3.70605469,0l-1.81884766-1.81884766,2.29296875-2.29296875c.390625-.390625.390625-1.0234375,0-1.4140625s-1.0234375-.390625-1.4140625,0l-2.29296875,2.29296875-2.12109375-2.12109375-1.46484375-1.46484375,4.29296875-4.29296875c.390625-.390625.390625-1.0234375,0-1.4140625s-1.0234375-.390625-1.4140625,0l-4.29296875,4.29296875-3.5859375-3.5859375,2.29296875-2.29296875c.390625-.390625.390625-1.0234375,0-1.4140625s-1.0234375-.390625-1.4140625,0l-2.29296875,2.29296875-1.08691406-1.08691406c-.390625-.390625-1.0234375-.390625-1.4140625,0s-.390625,1.0234375,0,1.4140625l8.96582031,8.96582031,2.828125,2.828125,2.52587891,2.52587891c.87255859.87255859,2.03271484,1.35302734,3.26708984,1.35302734s2.39453125-.48046875,3.26708984-1.35302734l11.87988281-11.87988281c.87255859-.87255859,1.35302734-2.03271484,1.35302734-3.26708984s-.48046875-2.39453125-1.35302734-3.26708984Z" style="stroke-width:0px;"/><path d="m15.67285156,34.08691406c.1953125.1953125.45117188.29296875.70703125.29296875s.51171875-.09765625.70703125-.29296875c.390625-.390625.390625-1.0234375,0-1.4140625l-1.08691406-1.08691406,2.29296875-2.29296875c.390625-.390625.390625-1.0234375,0-1.4140625s-1.0234375-.390625-1.4140625,0l-2.29296875,2.29296875-3.5859375-3.5859375,4.29296875-4.29296875c.390625-.390625.390625-1.0234375,0-1.4140625s-1.0234375-.390625-1.4140625,0l-4.29296875,4.29296875-3.5859375-3.5859375,2.29296875-2.29296875c.390625-.390625.390625-1.0234375,0-1.4140625s-1.0234375-.390625-1.4140625,0l-2.29296875,2.29296875-1.81884766-1.81884766c-.49462891-.49462891-.76708984-1.15283203-.76708984-1.85302734s.27246094-1.35839844.76708984-1.85302734L14.64697266,2.76708984c.98925781-.98925781,2.71679688-.98925781,3.70605469,0l14.31982422,14.31982422c.390625.390625,1.0234375.390625,1.4140625,0s.390625-1.0234375,0-1.4140625L19.76708984,1.35302734c-.87255859-.87255859-2.03271484-1.35302734-3.26708984-1.35302734s-2.39453125.48046875-3.26708984,1.35302734L1.35302734,13.23291016c-.87255859.87255859-1.35302734,2.03271484-1.35302734,3.26708984s.48046875,2.39453125,1.35302734,3.26708984l14.31982422,14.31982422Z" style="stroke-width:0px;"/><path d="m60.63720703,14.77685547c1.52392578-1.5234375,2.36279297-3.55029297,2.36279297-5.70703125,0-2.15625-.83886719-4.18261719-2.36279297-5.70703125-1.52441406-1.52392578-3.55078125-2.36279297-5.70703125-2.36279297-2.15673828,0-4.18359375.83886719-5.70703125,2.36279297L5.29296875,47.29296875c-.12011719.12011719-.20800781.26904297-.25439453.43212891l-4,14c-.10009766.34960938-.00244141.72509766.25439453.98193359.18994141.19042969.4453125.29296875.70703125.29296875.09179688,0,.18408203-.01269531.27490234-.03857422l14-4c.16308594-.04638672.31201172-.13427734.43212891-.25439453L60.63720703,14.77685547Zm-10-10c1.14599609-1.14599609,2.67041016-1.77685547,4.29296875-1.77685547,1.62207031,0,3.14648438.63134766,4.29296875,1.77685547,1.14550781,1.14648438,1.77685547,2.67089844,1.77685547,4.29296875,0,1.62255859-.63085938,3.14697266-1.77685547,4.29296875l-3.22314453,3.22314453-8.5859375-8.5859375,3.22314453-3.22314453Zm-4.63720703,4.63720703l8.5859375,8.5859375-3.5859375,3.5859375-8.5859375-8.5859375,3.5859375-3.5859375ZM8.03466797,47.37939453L41,14.4140625l8.5859375,8.5859375L16.62060547,55.96533203c-1.14532471-4.19262695-4.39331055-7.44061279-8.5859375-8.5859375Zm-1.31530762,1.74237061c4.15222168.7980957,7.36077881,4.00665283,8.15887451,8.15887451l-5.52758789,1.57922363c-.80847168-1.88134766-2.3291626-3.40203857-4.21051025-4.21051025l1.57922363-5.52758789Zm-2.13708496,7.4800415c1.22692871.59100342,2.22491455,1.58898926,2.81591797,2.81591797l-3.94213867,1.1262207,1.1262207-3.94213867Z" style="stroke-width:0px;"/><path d="m17.00976562,7c-.55224609,0-.99462891.44775391-.99462891,1s.45263672,1,1.00488281,1,1-.44775391,1-1-.44775391-1-1-1h-.01025391Z" style="stroke-width:0px;"/></g></svg>