<svg width="86" height="49" viewBox="0 0 86 49" fill="none" xmlns="http://www.w3.org/2000/svg">
<path d="M25.1509 18.4531C24.8506 18.3863 24.5002 18.2523 24.25 18.085C24.6503 18.4531 26.2687 20.9979 26.519 21.5168C26.569 20.9979 26.0185 19.3404 25.1509 18.4531Z" fill="#ADADAD"/>
<path d="M26.7725 24.3612C26.7725 24.3612 27.2898 21.967 26.9394 20.4101C26.5891 18.8533 25.705 17.2126 25.705 17.1958C25.705 17.1958 25.7882 18.0162 25.5047 18.1167C25.2211 18.217 24.3535 17.5306 24.3535 17.5306C24.3535 17.5306 25.5713 18.8533 26.0719 20.0085C26.5057 20.9962 26.6225 21.5821 26.4389 22.8042C26.2553 24.0262 26.222 23.9928 26.222 23.9928L26.7725 24.3612Z" fill="#ADADAD"/>
<path d="M23.5381 15.321C23.3766 15.5648 23.237 15.8224 23.1211 16.091C22.537 17.1959 22.0366 18.3344 21.6361 19.523C19.3839 26.6884 24.2722 40.7677 31.3293 40.5668C32.1302 40.55 32.8643 41.2029 32.6307 42.2743C32.5473 42.6762 32.4972 43.0781 32.4639 43.4966C32.3638 44.0489 32.5473 44.6014 32.931 45.0033C33.465 45.5725 34.1989 46.0746 35.1 45.991C35.6671 45.9407 35.8507 45.8068 36.3343 45.4552C36.7348 45.1706 37.0519 44.8025 37.4524 44.501C37.4857 44.4674 37.5358 44.4506 37.5691 44.4174C36.4012 43.53 36.6014 42.4083 37.1353 40.6003C36.9184 40.4162 36.735 40.232 36.5514 40.031C36.3511 39.8135 36.1843 39.5791 36.0007 39.3446C35.8507 39.1606 35.6505 38.9931 35.517 38.809C35.1499 38.2732 35.1666 37.5199 35.1666 36.867C35.1834 36.1806 35.3001 35.4774 35.1666 34.8079C35.0499 34.2386 34.833 33.6862 34.5661 33.1671C34.049 32.1482 33.3343 31.2433 32.4639 30.5053C31.5795 29.7519 30.6954 28.9986 29.8278 28.2117C29.1272 27.5756 28.5264 26.9729 28.1429 26.0856C27.8765 25.4848 27.6589 24.8633 27.4922 24.2274C27.3587 23.725 27.2753 23.2062 27.1085 22.7206C26.9726 22.3443 26.8051 21.9803 26.6078 21.6324C26.291 21.0466 26.024 20.4102 25.6736 19.8411C25.3066 19.205 24.8562 18.5184 24.2221 18.0832C24.4223 17.8489 24.5059 17.5476 24.4724 17.2294C24.4556 17.0118 24.4057 16.5933 24.122 16.5598C24.1888 16.3422 24.2555 16.1078 24.289 15.8902C24.3556 15.6558 24.289 15.4046 24.0886 15.254C23.9218 15.2205 23.755 15.2037 23.5882 15.2205C23.5882 15.2541 23.5547 15.2876 23.5381 15.321ZM35.9674 43.3794C36.1843 43.5802 36.2011 43.9319 36.0175 44.1495C35.8674 44.4006 35.5502 44.4674 35.3001 44.3168C35.3001 44.3168 35.2833 44.3169 35.2833 44.3001C35.0665 44.0992 35.0499 43.7476 35.2333 43.53C35.3835 43.2789 35.7006 43.212 35.9509 43.3626C35.9509 43.3794 35.9507 43.3794 35.9674 43.3794Z" fill="#ADADAD"/>
<path d="M37.7339 44.3499C38.4012 44.0652 39.1185 44.1489 39.7692 44.2827C40.3365 44.4001 40.887 44.5674 41.4376 44.7684C42.2717 43.8474 41.5377 42.5417 40.8036 42.1567C40.0695 41.7717 39.2019 41.6042 38.3678 41.3698C37.9675 41.2526 37.6004 40.9513 37.2833 40.7002C36.7661 42.4748 36.5827 43.5129 37.7339 44.3499Z" fill="#ADADAD"/>
<path d="M23.6017 30.3209C23.5684 29.8187 24.0355 30.0699 24.3859 30.3209C23.9353 29.9193 23.2347 29.1993 23.5015 28.764C23.7019 28.4626 24.0022 28.5966 24.2524 28.7976C23.9188 28.3957 23.5851 27.8433 23.7519 27.4415C23.1847 26.9559 22.6008 26.5877 22.2837 26.7216C21.9834 26.8556 22.5006 27.609 23.1681 28.3789C22.7008 27.994 22.267 27.7596 22.0501 27.9772C21.7165 28.3287 22.7175 29.5174 23.6017 30.438C23.6185 30.4046 23.6017 30.3712 23.6017 30.3209Z" fill="#ADADAD"/>
<path d="M22.5196 25.1471C22.2193 25.4652 22.9868 26.4865 23.8043 27.3904C23.9711 27.1393 24.2714 27.3402 24.5549 27.608C24.1212 27.0388 23.654 26.3021 23.9877 26.0847C24.0044 26.0679 24.0212 26.0679 24.0545 26.0511C23.4371 25.4149 22.7866 24.8625 22.5196 25.1471Z" fill="#ADADAD"/>
<path d="M23.9145 31.7742C23.8645 31.54 23.9313 31.4563 24.048 31.4227C24.2482 31.4227 24.4483 31.4731 24.6153 31.5902C24.3316 31.4227 23.7978 31.0376 23.6476 30.5522C23.1804 30.2006 22.7466 29.9998 22.6966 30.4517C22.5966 31.4227 24.8655 33.1304 24.8655 33.1304L24.8823 33.0967C24.3316 32.4606 23.9479 31.9585 23.9145 31.7742Z" fill="#ADADAD"/>
<path d="M24.0038 24.9812C23.9369 25.1987 24.254 25.7345 24.5876 26.2199C24.3875 26.0525 24.1706 25.9688 23.9704 26.1028C23.6366 26.3204 24.1039 27.057 24.5375 27.6262C24.2372 27.3415 23.9036 27.1407 23.7535 27.4755C23.5867 27.8772 23.9204 28.4298 24.254 28.8317C24.0038 28.6306 23.7035 28.4968 23.5033 28.7981C23.2363 29.2165 23.9204 29.9533 24.3875 30.355C24.0371 30.1039 23.5867 29.836 23.6033 30.355C23.6368 30.941 24.2873 31.4265 24.6211 31.6273C24.4541 31.5269 24.254 31.46 24.0538 31.46C23.9369 31.4768 23.8703 31.5772 23.9204 31.8116C24.0872 32.5649 29.7597 38.5583 30.7773 37.9054C31.8283 37.219 30.8108 33.72 28.4916 30.0704C27.5406 28.5638 24.7211 24.8137 24.1205 24.9142C24.0538 24.8806 24.0205 24.9312 24.0038 24.9812Z" fill="#ADADAD"/>
<path d="M44.7734 42.0896C44.8569 42.3909 44.9235 42.7591 44.9068 43.0604C45.0237 42.5248 46.4083 39.8462 46.7254 39.3774C46.2581 39.595 45.1071 40.8841 44.7734 42.0896Z" fill="#ADADAD"/>
<path d="M49.063 37.7197C49.063 37.7197 46.7439 38.4732 45.5759 39.5445C44.4082 40.616 43.4238 42.2232 43.4238 42.2232C43.4238 42.2232 44.0911 41.7376 44.3082 41.9385C44.5249 42.1395 44.3748 43.2276 44.3748 43.2276C44.3748 43.2276 44.9085 41.52 45.6594 40.4989C46.2933 39.6283 46.7439 39.2266 47.8951 38.7745C49.0462 38.3224 49.0294 38.356 49.0294 38.356L49.063 37.7197Z" fill="#ADADAD"/>
<path d="M42.8719 45.0527C43.1722 45.0695 43.4558 45.0695 43.7562 45.0359C45.0073 45.0025 46.2419 44.8519 47.4599 44.6007C54.7674 42.9602 64.4771 31.6931 60.7735 25.6494C60.3564 24.9632 60.5564 23.9924 61.5908 23.6574C61.9757 23.5241 62.3543 23.3732 62.7254 23.2052C63.2426 23.0044 63.6429 22.5859 63.7932 22.0503C64.01 21.2969 64.0767 20.4096 63.5595 19.673C63.2259 19.2041 63.0258 19.1038 62.4751 18.8527C62.0246 18.6519 61.5575 18.5513 61.1071 18.3671C61.0569 18.3503 61.0238 18.3337 60.9736 18.3003C60.7901 19.7568 59.7223 20.1417 57.9037 20.5937C57.8528 20.8653 57.786 21.1337 57.7036 21.3974C57.6034 21.6819 57.5034 21.9498 57.3865 22.2176C57.3032 22.4354 57.253 22.6865 57.1531 22.9041C56.8861 23.4899 56.2188 23.8584 55.6516 24.1764C55.0509 24.5111 54.3837 24.7624 53.8663 25.1975C53.4325 25.5826 53.0657 26.0347 52.7486 26.537C52.1313 27.4911 51.7143 28.5793 51.4974 29.701C51.2805 30.8562 51.0803 31.9945 50.8299 33.133C50.6297 34.0538 50.3961 34.891 49.8456 35.6608C49.462 36.1967 49.0282 36.682 48.5777 37.151C48.2106 37.5192 47.8103 37.8539 47.4599 38.239C47.2076 38.5448 46.979 38.8695 46.7759 39.2101C46.4255 39.7794 46.025 40.3318 45.6914 40.9177C45.3244 41.5538 44.9573 42.2904 44.8906 43.0605C44.5903 43.0102 44.2732 43.0773 44.0398 43.2782C43.8729 43.3953 43.5392 43.6632 43.6393 43.9142C43.4224 43.9814 43.1887 44.0316 42.972 44.0985C42.7384 44.1487 42.555 44.3495 42.5215 44.584C42.5715 44.7514 42.6382 44.902 42.7551 45.0361C42.7884 45.0527 42.8386 45.0527 42.8719 45.0527ZM60.8735 20.2255C60.9401 19.9409 61.2239 19.7399 61.5241 19.7902C61.8077 19.807 62.0414 20.0413 62.0246 20.3259V20.3428C61.958 20.6273 61.6743 20.8281 61.3739 20.7781C61.0904 20.7612 60.8567 20.5268 60.8735 20.2423V20.2255Z" fill="#ADADAD"/>
<path d="M60.8255 18.2005C60.2416 17.7652 59.9747 17.0954 59.7578 16.4761C59.5742 15.9235 59.4409 15.3542 59.3407 14.785C58.1227 14.5172 57.372 15.8063 57.4054 16.6433C57.4389 17.4803 57.7391 18.3174 57.9394 19.1545C58.0394 19.5562 57.9561 20.0251 57.9058 20.4268C59.6911 19.9915 60.6754 19.6235 60.8255 18.2005Z" fill="#ADADAD"/>
<path d="M55.7822 37.487C55.3484 37.7717 55.3484 37.2361 55.3819 36.8008C55.2649 37.4035 54.9812 38.3578 54.4808 38.3409C54.1138 38.3241 54.0805 38.0061 54.1303 37.6714C53.9469 38.1567 53.6467 38.7428 53.2129 38.7762C53.0794 39.5129 53.0461 40.2158 53.3296 40.4001C53.6132 40.5843 53.9969 39.7639 54.3139 38.7929C54.2138 39.3956 54.2305 39.8811 54.5141 39.9648C54.9814 40.0821 55.5151 38.6088 55.8656 37.3867C55.8488 37.4537 55.8153 37.4701 55.7822 37.487Z" fill="#ADADAD"/>
<path d="M51.8617 41.0349C52.2788 41.1523 52.7795 39.9469 53.1631 38.8084C52.8794 38.7916 52.8794 38.4234 52.9796 38.0552C52.7126 38.7247 52.3123 39.4948 51.9452 39.3106C51.9284 39.2938 51.9119 39.2938 51.8951 39.2771C51.6283 40.1141 51.4948 40.9345 51.8617 41.0349Z" fill="#ADADAD"/>
<path d="M56.8858 36.4989C56.719 36.6663 56.6022 36.6495 56.5189 36.5658C56.4187 36.3815 56.3686 36.1975 56.3686 35.9799C56.3686 36.3147 56.302 36.9676 55.9683 37.3359C55.9015 37.9219 55.9348 38.4072 56.3519 38.2232C57.2362 37.8214 57.5866 34.9922 57.5866 34.9922H57.5531C57.2696 35.7957 57.0193 36.3649 56.8858 36.4989Z" fill="#ADADAD"/>
<path d="M50.9657 39.8307C51.1826 39.7806 51.4829 39.2281 51.7331 38.6924C51.6831 38.9435 51.7331 39.1779 51.9334 39.2783C52.3004 39.4625 52.7008 38.6924 52.9677 38.0228C52.8677 38.4245 52.8677 38.8262 53.2346 38.7761C53.6684 38.7258 53.9687 38.1566 54.1523 37.6712C54.1023 37.9892 54.1356 38.324 54.5027 38.3409C55.0031 38.3577 55.2867 37.4033 55.4036 36.8007C55.3534 37.236 55.3702 37.7549 55.8039 37.4871C56.3045 37.1688 56.3879 36.3654 56.3879 35.9803C56.3879 36.1812 56.438 36.382 56.538 36.5662C56.6214 36.6499 56.7215 36.6667 56.9051 36.4993C57.4723 35.9803 59.808 28.0448 58.7403 27.4927C57.6225 26.9232 55.1199 29.5682 53.1179 33.4021C52.3004 34.9926 50.4652 39.3117 50.849 39.7806C50.8657 39.8141 50.9156 39.8475 50.9657 39.8307Z" fill="#ADADAD"/>
<path d="M55.6307 13.2433C55.8476 13.0257 56.1312 12.7746 56.3981 12.6406C55.8809 12.808 52.8779 12.942 52.3105 12.9085C52.7276 13.2099 54.4293 13.5614 55.6307 13.2433Z" fill="#ADADAD"/>
<path d="M49.7109 11.7047C49.7109 11.7047 51.5293 13.3453 53.0308 13.8307C54.5491 14.3164 56.4176 14.3665 56.4176 14.3665C56.4176 14.3665 55.667 14.0149 55.717 13.7303C55.7671 13.4458 56.8015 13.0272 56.8015 13.0272C56.8015 13.0272 55.0496 13.429 53.8152 13.2784C52.7473 13.1612 52.18 12.9603 51.2125 12.1902C50.2447 11.4201 50.2782 11.4033 50.2782 11.4033L49.7109 11.7047Z" fill="#ADADAD"/>
<path d="M59.1351 13.4104C59.0016 13.1426 58.8516 12.8914 58.6678 12.6571C58.0173 11.5857 57.2666 10.5812 56.4491 9.66049C51.3939 4.119 36.7957 1.30657 33.4423 7.55108C33.0587 8.27091 32.1243 8.57226 31.3236 7.83562C31.0233 7.56772 30.6895 7.31664 30.3558 7.08235C29.922 6.73075 29.3549 6.59664 28.8209 6.73075C28.0535 6.91478 27.2693 7.29983 26.8856 8.12016C26.6354 8.63915 26.6687 8.8736 26.7188 9.45965C26.7689 9.94503 26.9189 10.4138 26.9858 10.8993V11.0499C28.3371 10.4808 29.2047 11.2173 30.506 12.5734C30.7562 12.4729 31.0233 12.406 31.2901 12.3558C31.5738 12.2889 31.8741 12.2553 32.1577 12.205C32.3913 12.1716 32.6249 12.0879 32.8584 12.0544C33.4923 12.0042 34.1597 12.3892 34.7104 12.724C35.2942 13.0756 35.8447 13.5277 36.4954 13.7453C37.0505 13.9293 37.6295 14.0308 38.2139 14.0467C39.3484 14.0968 40.4995 13.9294 41.5673 13.5443C42.6684 13.1594 43.7528 12.7577 44.8707 12.406C45.7715 12.1213 46.5891 11.9037 47.5399 12.0043C48.1906 12.0712 48.8413 12.205 49.4752 12.3724C49.9759 12.5064 50.4596 12.6906 50.9602 12.7909C51.3437 12.8581 51.7442 12.9082 52.1447 12.9082C52.8121 12.925 53.4794 13.0087 54.1634 13.0087C54.8975 13.0087 55.715 12.9583 56.4156 12.6237C56.4664 12.7683 56.5479 12.9001 56.6545 13.01C56.761 13.1198 56.8903 13.2051 57.033 13.2598C57.2165 13.3435 57.6168 13.5109 57.7838 13.2766C57.9506 13.444 58.1007 13.6114 58.2676 13.762C58.4343 13.9462 58.7014 13.9964 58.9183 13.9128C59.035 13.7954 59.1351 13.6449 59.1852 13.4943C59.1684 13.4775 59.1517 13.4438 59.1351 13.4104ZM28.7209 10.1795C28.4372 10.2632 28.1369 10.1124 28.0202 9.82789C27.8867 9.57679 27.9867 9.25865 28.2371 9.12469C28.2371 9.12469 28.2538 9.12469 28.2538 9.10789C28.5374 9.02419 28.8377 9.17495 28.9544 9.45948C29.0879 9.71057 28.9879 10.0287 28.7375 10.1627C28.7208 10.1627 28.7209 10.1795 28.7209 10.1795Z" fill="#ADADAD"/>
<path d="M26.9853 11.2342C26.8852 11.954 26.4681 12.5233 26.0343 13.0255C25.6507 13.4607 25.2322 13.8639 24.7832 14.2308C25.1668 15.4196 26.6517 15.4196 27.3525 14.9843C28.0531 14.549 28.6371 13.8626 29.2543 13.2767C29.5546 12.992 30.005 12.8246 30.3721 12.6572C29.0875 11.3345 28.2867 10.665 26.9853 11.2342Z" fill="#ADADAD"/>
<path d="M46.1562 5.97823C46.6067 6.21268 46.1562 6.48058 45.7559 6.66461C46.3397 6.46377 47.3075 6.22932 47.541 6.68141C47.708 6.9994 47.4409 7.20041 47.1407 7.31755C47.6411 7.23386 48.3086 7.21705 48.5588 7.552C49.2594 7.30075 49.8768 6.98276 49.9101 6.64781C49.9436 6.31301 49.0425 6.38008 48.0248 6.59772C48.5921 6.38008 49.0091 6.11217 48.9259 5.82764C48.7922 5.35874 47.2574 5.64344 46.0228 5.94478C46.0895 5.92798 46.1228 5.94462 46.1562 5.97823Z" fill="#ADADAD"/>
<path d="M51.1756 7.59913C51.0587 7.18064 49.7741 7.34804 48.6064 7.58233C48.7396 7.85039 48.4228 8.01761 48.0391 8.13493C48.7396 8.03442 49.6073 8.00098 49.624 8.40282V8.46971C50.4916 8.26887 51.2756 7.98434 51.1756 7.59913Z" fill="#ADADAD"/>
<path d="M44.7531 5.50808C44.9868 5.57514 45.0201 5.67547 44.9868 5.79262C44.8814 5.968 44.7318 6.11236 44.5529 6.2111C44.8533 6.04387 45.4374 5.77581 45.9377 5.89312C46.4716 5.65884 46.872 5.37413 46.5051 5.12304C45.7041 4.53716 43.1016 5.65884 43.1016 5.65884L43.1183 5.69228C43.9524 5.54152 44.5697 5.45782 44.7531 5.50808Z" fill="#ADADAD"/>
<path d="M50.5796 8.99211C50.4294 8.82471 49.7954 8.84152 49.2115 8.8916C49.4451 8.80791 49.6286 8.65732 49.6286 8.42287C49.6118 8.02119 48.7443 8.05463 48.0436 8.15514C48.4439 8.03782 48.7944 7.83699 48.5775 7.55245C48.3272 7.20085 47.6765 7.2343 47.1593 7.31799C47.4596 7.20085 47.7267 6.99985 47.5598 6.68186C47.3264 6.22977 46.3586 6.48102 45.7747 6.66506C46.175 6.49767 46.6256 6.21296 46.175 5.97867C45.6413 5.71078 44.9239 6.02892 44.5735 6.22977C44.7569 6.12943 44.8904 5.99548 45.0073 5.81128C45.0406 5.69414 44.9906 5.59364 44.7737 5.52675C44.0396 5.29229 36.0314 7.2343 36.0981 8.43968C36.1649 9.69513 39.7018 10.5491 44.0062 10.3649C45.7913 10.2812 50.4294 9.72875 50.6463 9.14287C50.6295 9.07581 50.6128 9.02556 50.5796 8.99211Z" fill="#ADADAD"/>
</svg>
