<svg width="86" height="49" viewBox="0 0 86 49" fill="none" xmlns="http://www.w3.org/2000/svg">
<g clip-path="url(#clip0_11469_19032)">
<g clip-path="url(#clip1_11469_19032)">
<mask id="mask0_11469_19032" style="mask-type:luminance" maskUnits="userSpaceOnUse" x="19" y="0" width="49" height="49">
<path d="M19 0H68V49H19V0Z" fill="white"/>
</mask>
<g mask="url(#mask0_11469_19032)">
<path d="M40.0378 0.727068C40.6119 0.28673 41.3773 0.401284 41.9713 0.0185547H44.6504C46.6415 0.516501 48.5174 1.22435 50.0483 2.67912C50.1437 3.52139 50.3927 4.34446 50.2589 5.20593C50.2013 5.51185 50.2205 5.87604 49.8378 5.9906C49.4358 6.10581 49.2829 5.79923 49.1869 5.49331C49.0915 5.22514 48.8425 4.93776 48.6896 5.32115C48.3062 6.23957 47.6169 6.10581 46.909 6.0098C46.3349 5.60787 45.7608 5.30128 45.1675 5.97139C42.9281 6.10581 42.9473 8.21083 42.0858 9.53184C42.009 9.6656 41.9521 9.81856 41.8177 9.91457C41.7031 10.0099 41.5501 10.0483 41.3965 10.0483C40.6119 9.95298 40.5357 9.37888 40.4589 8.74718C40.3245 7.54072 40.535 6.35412 40.7079 5.16753C40.6503 5.05297 40.784 5.14833 40.688 5.09072C39.4829 4.36366 40.0186 3.08105 39.7126 2.06662C39.5405 1.53027 39.751 1.129 40.0378 0.727068ZM41.9706 48.9802C41.8362 48.9232 41.7216 48.8464 41.5872 48.7888C41.3389 48.5789 41.1853 48.3107 41.1661 47.9849C41.0896 46.9783 41.0896 45.9674 41.1661 44.9608C41.186 44.5973 41.3383 44.2907 41.6448 44.0802C41.9706 43.8702 42.3149 43.7742 42.6977 43.8126C43.4439 44.004 43.7697 44.5212 43.7889 45.2674C43.7889 45.7077 43.8081 46.1481 43.8081 46.5878C43.7883 47.3155 43.8843 47.9849 44.516 48.4637C44.6689 48.5789 44.7457 48.7703 44.6689 48.9616C43.7505 48.9808 42.8698 48.9802 41.9706 48.9802Z" fill="#ADADAD"/>
<path d="M44.648 48.9808C43.3661 48.9047 43.1747 48.1002 43.2893 47.0288C43.3469 46.4732 43.2893 45.8799 43.3085 45.325C43.3277 44.8271 43.1747 44.4642 42.7344 44.2146C42.8681 43.9663 43.1171 43.9279 43.3661 43.8901C43.9978 43.7557 44.6103 43.7941 45.2036 44.1385C45.6247 45.727 45.8161 47.297 45.05 48.8464C45.05 48.9047 45.05 48.9424 45.0308 49C44.897 48.9808 44.7824 48.9808 44.648 48.9808ZM65.6657 17.8003V26.9878C65.532 27.2937 65.6273 27.6195 65.6081 27.9254C65.5512 29.0551 65.187 29.9927 64.3454 30.835C62.1437 33.0552 59.5407 34.7973 57.1291 36.7494C54.9281 38.5293 52.6695 40.233 50.4492 41.9745C49.5109 42.7022 48.5356 43.3531 47.4437 43.7928C47.0993 44.0802 46.6782 44.0994 46.2571 44.0802C46.0849 44.0802 45.9512 44.004 45.8167 43.8888C45.4148 43.3723 45.5492 42.7406 45.53 42.1659C45.5102 41.2852 45.5876 40.4052 45.2042 39.5821C45.1851 39.481 45.1851 39.3773 45.2042 39.2762C45.3003 39.008 45.5108 38.8743 45.7598 38.7975C47.8271 38.1273 49.5301 36.807 51.1961 35.4866C54.9665 32.5195 58.7753 29.5715 62.5456 26.6051C64.2301 25.284 65.283 23.7339 65.0532 21.4753C64.9771 20.6522 65.2254 19.7908 65.034 18.9485C65.13 18.5081 64.9195 17.8956 65.6657 17.8003Z" fill="#ADADAD"/>
<path d="M47.3263 43.4293C50.6185 41.5726 53.3744 38.9889 56.3608 36.7302C58.4281 35.1801 60.4569 33.6101 62.4474 31.9646C64.0167 30.6628 65.5291 29.2465 65.6436 26.9878C65.6436 28.6148 65.7013 30.2417 65.6436 31.868C65.6052 33.5148 64.7252 34.7782 63.538 35.7926C60.2464 38.6061 56.7435 41.1707 53.3367 43.8697C51.9965 44.9417 50.6185 45.9753 49.2406 47.0083C48.8194 47.3341 48.3023 47.5447 47.8434 47.7936C47.2494 47.7552 47.2878 47.2957 47.2494 46.8938C47.2117 45.7456 47.2117 44.5974 47.3263 43.4293ZM46.9435 5.7609C47.6712 5.7801 48.15 5.49273 48.3605 4.74647C48.4175 4.55444 48.6473 4.40215 48.8194 4.26773C49.3359 3.86579 49.6233 3.9426 49.6233 4.65046C49.6233 4.93783 49.6233 5.20601 49.7001 5.49273C49.8531 4.86102 49.8531 4.22932 49.7385 3.59762C49.6809 3.21489 49.7001 2.90897 50.0444 2.6792C51.0019 3.3109 51.9203 3.98101 52.7434 4.78487C52.7818 5.18681 52.4375 5.37817 52.2269 5.64569C51.9971 5.93306 51.8627 6.22044 51.9203 6.60317C52.0548 7.5984 51.9971 7.63615 50.9827 7.5984C50.7721 7.57854 50.6185 7.67455 50.4464 7.75136C49.6233 8.03874 49.1452 7.52159 48.6473 7.0051C48.4367 6.66078 48.15 6.71773 47.8242 6.79454C47.0203 6.9859 46.523 6.69852 46.1973 5.85625C46.3893 5.33977 46.6568 5.33977 46.9435 5.7609ZM54.467 6.10523C55.0795 6.48862 55.6536 6.90975 56.1516 7.42624C56.8978 9.4551 56.7634 9.8961 54.9643 11.1211C54.5624 11.4078 54.218 11.3118 53.8929 10.9675C53.6166 10.6732 53.293 10.4272 52.9354 10.2398C52.4951 10.0676 52.1508 9.72328 51.7303 9.51271C51.2893 9.30214 51.041 8.88101 51.2509 8.32612C52.2468 7.92419 52.993 7.25408 53.5486 6.335C53.7393 6.01054 54.1035 5.99001 54.467 6.10523ZM62.754 12.652C63.2903 13.1493 63.9982 13.4751 64.3617 14.1637C64.0359 15.0828 63.8068 16.0012 63.7684 16.9779C63.7485 17.303 63.5764 17.6474 63.1943 17.7818C62.0263 17.5898 61.3568 16.6329 60.4377 16.0204C60.1888 15.6377 59.5193 15.5616 59.5571 14.9299C59.9212 14.2412 60.4569 13.8386 61.2032 13.8962C60.8781 13.6088 60.7821 13.4751 60.8973 13.2076C61.0886 12.7666 61.4522 12.4792 61.9117 12.4792C62.1984 12.4792 62.505 12.4799 62.754 12.652Z" fill="#ADADAD"/>
<path d="M63.0027 17.6086C63.4053 17.0537 63.4238 16.422 63.3861 15.7903C63.3285 15.005 63.596 14.4309 64.3621 14.1634C65.0892 14.9672 65.5871 15.8472 65.5103 16.9769C65.4911 17.2451 65.6063 17.5318 65.6633 17.8C65.4335 18.2211 65.511 18.6806 65.4911 19.1395C65.2805 19.4269 65.4534 19.9242 64.9362 20.0202C64.8409 20.0202 64.7256 20.001 64.668 19.9434C64.19 19.2547 63.5198 18.9104 62.716 18.7952C62.218 18.2972 61.4711 18.4886 60.9169 18.1443C60.515 17.8953 59.7872 17.8192 60.0362 17.1299C60.3044 16.4412 60.8785 16.8617 61.338 16.9769C61.9313 17.1299 62.371 17.6278 63.0027 17.6086ZM54.7926 10.9287C55.0793 10.5645 55.3666 10.1626 55.6732 9.81826C56.0176 9.43553 56.4195 9.16735 55.8831 8.57405C55.5772 8.24893 56.0937 7.8278 56.1513 7.42586C57.0121 8.05757 57.8928 8.631 58.6589 9.37792C58.3715 10.1248 57.9504 10.8711 58.3331 11.7326C58.3907 11.8663 58.2755 12.0385 58.161 12.1537C58.0881 12.2108 58.0028 12.25 57.912 12.2683C57.663 12.2683 57.3955 12.1345 57.1657 12.2875C56.3049 12.8808 55.5964 12.2875 54.8687 12.0193C54.1801 11.771 54.6773 11.2922 54.7926 10.9287ZM54.4661 6.10485C53.7576 6.6028 53.4901 7.46427 52.8584 8.0185C52.3988 8.42109 51.9592 8.67007 51.3467 8.42109C50.8487 8.68927 50.5997 8.40189 50.3892 8.01916C50.2938 7.82713 50.2554 7.65497 50.3892 7.46427C50.6381 6.77496 51.1361 7.11995 51.6142 7.2153C51.0017 6.12405 51.3467 5.4162 52.763 4.74609C53.3723 5.14428 53.9425 5.59922 54.4661 6.10485ZM62.7544 12.651C62.218 12.8616 61.395 12.843 61.299 13.5125C61.2228 14.1442 62.1412 13.9912 62.5054 14.5077C61.395 13.6846 60.6487 14.6997 59.7488 14.948C59.4045 15.1202 59.1939 14.9672 59.0026 14.6799C59.1747 13.9144 58.8106 13.2827 58.5046 12.6318C58.8112 11.6558 59.7488 10.8704 60.5527 10.8903C61.3566 11.4068 62.122 11.9431 62.7537 12.6516L62.7544 12.651ZM45.9871 43.8315H46.3698C46.6764 44.0037 46.791 44.2911 46.791 44.6162C46.8294 45.8988 46.983 47.1814 46.5619 48.4256C46.0831 48.6931 45.566 48.7699 45.0303 48.8468C45.0303 47.296 45.0303 45.7651 45.0111 44.2143C44.9761 44.1756 44.9552 44.1263 44.9517 44.0742C44.9482 44.0222 44.9624 43.9705 44.9919 43.9276C45.2985 43.5256 45.6428 43.6786 45.9871 43.8315Z" fill="#ADADAD"/>
<path d="M46.5626 48.406C46.1414 46.8943 46.4672 45.3442 46.3712 43.8126C46.697 43.6789 47.0029 43.5636 47.3287 43.4299C47.7498 43.755 47.6922 44.2146 47.7114 44.6549C47.7684 45.7077 47.5585 46.7606 47.8452 47.7935C47.5201 48.1961 47.0029 48.2147 46.5626 48.406ZM60.5739 10.8906C60.2488 11.1011 59.923 11.3309 59.7893 11.6752C59.5972 12.1725 59.2529 12.4023 58.794 12.5559C58.2391 12.8804 58.1623 12.4023 58.0286 12.058C57.3585 10.4502 57.473 9.97216 58.6411 9.3782C59.3346 9.81624 59.9817 10.3229 60.5739 10.8906ZM41.7771 44.2146C41.3752 45.7269 41.6811 47.2578 41.5858 48.7894C39.882 48.5974 38.4656 47.7167 37.1453 46.703C32.7816 43.3339 28.4551 39.9271 24.1106 36.5586C22.0626 34.9317 20.9329 32.9598 21.1051 30.2231C21.2772 27.4857 21.1435 24.7483 21.1435 22.0116C21.2587 21.954 21.3541 21.9732 21.4501 22.0308C21.852 22.3943 21.7176 22.93 21.852 23.3896C21.5454 24.5377 21.8321 25.6866 21.7752 26.8348C21.7176 28.175 22.2155 29.2272 23.1339 30.1655C24.5311 31.6202 26.1587 32.7876 27.7472 34.0126C31.5752 36.9606 35.2694 40.0992 39.2887 42.8174C39.4423 42.9319 39.5953 43.0664 39.7675 43.1048C40.4561 43.3531 41.2984 43.3153 41.7387 44.0808C41.7586 44.1192 41.7586 44.1569 41.7771 44.2146ZM40.0356 0.727051C40.0356 1.30115 40.1124 1.85604 40.3038 2.39173C40.476 2.88967 40.4952 3.36842 40.0932 3.94251C41.1262 3.75048 41.3752 4.15308 41.0117 4.99535C41.1646 5.37808 40.8971 5.51183 40.6289 5.62705C40.0548 5.87536 39.5185 6.23955 38.906 6.43092C36.946 7.83451 35.0186 9.28304 33.1253 10.7754C30.9771 12.4641 28.8207 14.1422 26.656 15.8098C25.1251 16.9772 23.6127 18.183 22.3877 19.7146C22.2539 19.8867 22.0818 20.0397 21.8328 20.0397C21.2011 19.8291 21.4686 19.1974 21.2587 18.8147C21.1627 18.4896 21.2971 18.1446 21.1627 17.8194C20.9905 15.5416 22.2923 14.0484 23.8809 12.7473C25.8713 11.1203 27.9201 9.55036 29.9483 7.96184C32.5704 5.91377 35.2124 3.8849 37.8538 1.8567C38.5233 1.33955 39.2311 0.956159 40.0356 0.727051Z" fill="#ADADAD"/>
<path d="M21.1641 17.8194C21.3362 18.126 21.3362 18.4511 21.3362 18.7762C21.566 19.4271 21.6229 20.0972 21.7382 20.7673C21.8143 21.2262 21.8527 21.7433 21.317 22.0301C21.2594 22.0301 21.221 22.0115 21.1641 22.0115V17.82V17.8194ZM38.7173 6.12426C39.349 5.49256 40.2674 5.37801 41.0144 4.97607C41.5693 5.10983 41.3587 5.41575 41.2249 5.76074C40.7654 6.81357 40.727 7.88495 40.976 8.9954C41.0521 9.30132 41.0905 9.6271 41.4355 9.76086C41.6077 10.0674 41.454 10.2204 41.1865 10.3158C40.7654 10.3734 40.574 10.0674 40.4204 9.81847C40.1145 10.6031 39.9423 11.4646 38.8127 11.6176C38.2002 11.6944 37.875 12.2301 37.9896 12.9194C37.8558 13.3405 38.0856 13.7616 37.9711 14.1828C37.7221 14.5655 37.7413 14.9674 37.8366 15.3879C37.911 15.7216 37.8776 16.0703 37.7413 16.3838C37.301 16.8241 36.9944 16.6705 36.6885 16.2116C36.5732 16.0196 36.899 15.5799 36.3819 15.6561C35.9607 15.7329 35.4827 15.8859 35.5012 16.3838C35.5396 17.1493 35.2337 17.4366 34.506 17.4168C34.2 17.4168 33.9895 17.628 33.8173 17.8578C33.3962 18.4511 32.879 18.9868 32.4003 19.5225C32.0368 19.829 31.6355 19.6761 31.2521 19.5801C30.831 19.4463 30.4105 19.3887 30.0079 19.6569C29.3769 20.0012 28.7829 20.4031 28.0744 20.5376C27.3096 20.231 27.099 19.7714 27.6347 19.3125C28.6107 18.4511 29.3 17.3214 30.2767 16.46C30.7932 16.0011 31.0607 16.0964 31.4249 16.7857C30.8124 15.6945 30.8124 15.6945 31.8269 14.7953C32.152 14.5079 32.5155 14.2397 32.4963 13.7226C32.4771 13.4551 32.6307 13.1869 32.8605 13.0915C33.7021 12.785 34.0087 12.0195 34.449 11.35C34.8702 10.7369 35.3482 10.2012 36.0952 9.99063C36.3057 9.93302 36.5924 9.81847 36.5924 9.5887C36.5355 8.24914 37.7221 7.69359 38.3339 6.77451C38.5061 6.5838 38.6597 6.37324 38.7173 6.12426ZM46.9467 5.76074C46.6984 5.66539 46.4878 5.64618 46.3726 5.95276C46.258 6.39244 46.2203 6.77517 46.4494 7.23471C46.7553 7.8088 46.3918 8.47891 45.7793 8.51732C45.0708 8.55572 44.5159 8.88085 43.961 9.24437C43.3869 9.24437 42.7936 9.24437 42.2956 9.6271C42.0851 9.78072 41.8361 9.78072 41.607 9.6079C42.1427 8.49812 42.64 7.36847 43.1955 6.25868C43.5597 5.55017 44.0563 4.93767 44.9569 5.66539C45.1092 5.3012 44.6503 5.3396 44.6887 4.99528C45.4734 5.12903 46.411 4.7463 46.9467 5.76074ZM43.3107 44.1953C43.1194 44.1953 42.928 44.1953 42.7366 44.2145H41.7798V44.1946C41.6269 44.0039 41.4355 43.8126 41.4156 43.5444C41.3203 42.1472 41.0713 40.7302 41.6269 39.3714C41.856 39.1039 42.1626 39.0079 42.5075 39.0271C42.928 39.0271 43.2346 39.2761 43.5021 39.5635C44.0001 40.903 43.7895 42.281 43.6941 43.6589C43.6743 43.9079 43.4644 44.0423 43.3107 44.1953Z" fill="#ADADAD"/>
<path d="M43.3066 44.1952V39.6018C44.4177 39.0078 45.0296 39.3144 45.0879 40.501C45.1448 41.6691 45.164 42.8364 45.0302 44.0038V44.1959L43.3066 44.1952ZM64.9368 19.9051C65.1282 19.6568 65.3196 19.3886 65.4917 19.1396C65.4917 19.9627 65.4149 20.805 65.5109 21.6281C65.7983 23.8867 64.7263 25.4951 63.0609 26.7962C58.4665 30.42 53.8471 34.0121 49.2032 37.5723C48.0928 38.4145 46.8677 39.1224 45.413 39.2376C44.7045 39.2568 44.7243 38.7781 44.7243 38.2808C44.7243 37.1511 44.8965 36.0029 44.3985 34.9117C44.4946 34.2032 44.9733 33.6483 45.1071 32.9404C45.1455 32.7299 45.3938 32.6339 45.6434 32.7107C46.1791 32.8828 45.758 33.6291 46.2937 33.8019C47.5955 33.5721 48.5523 32.7491 49.5667 32.0021C50.9255 31.0261 52.2465 29.9925 53.5483 28.9396C54.3138 28.7675 54.6197 28.0212 55.1944 27.6001C57.5676 25.8963 59.8071 24.0019 62.1233 22.2406C62.8696 21.6857 63.4821 20.9964 64.133 20.3454C64.3627 20.0971 64.5541 19.829 64.9368 19.9051Z" fill="#ADADAD"/>
<path d="M44.6488 34.835C45.1461 34.9694 45.2229 35.3713 45.2229 35.8117C45.2229 36.6347 45.2229 37.4578 45.2037 38.2617C45.2037 38.606 45.1268 38.9503 45.4142 39.2377V39.4291C44.6488 39.7933 43.8826 39.4291 43.1172 39.4675C42.6576 37.8982 42.6961 36.3288 43.1371 34.778C43.2324 34.682 43.3278 34.6059 43.443 34.5675C43.9211 34.3754 44.3243 34.3755 44.6488 34.835Z" fill="#ADADAD"/>
<path d="M43.1171 39.4091H45.4141C45.969 39.5621 45.9882 40.0216 45.9882 40.4812V43.8118C45.7008 44.0032 45.3565 44.0032 45.0307 44.0032C44.6672 43.8112 44.648 43.4476 44.648 43.1033V40.9215C44.648 39.6389 44.6102 39.6197 43.3084 39.6005C43.0403 39.6005 42.7721 39.5621 42.543 39.4091C42.7343 39.2562 42.9257 39.2562 43.1171 39.4091ZM50.3909 7.48297C50.4485 7.61673 50.5247 7.73128 50.5823 7.8657C50.6584 8.68877 50.4479 9.51184 50.3903 10.3157C50.3525 10.8521 49.9122 11.062 49.4526 11.1196C48.7064 11.2149 48.0555 11.5023 47.4046 11.8658C46.6391 11.9042 46.1034 11.6168 45.8928 10.8328C45.7968 10.6984 46.065 10.5647 45.8928 10.4303C45.3565 10.0667 45.5485 9.684 45.8928 9.33901C46.218 9.01455 46.4093 8.65036 46.5246 8.19082C46.8113 6.98569 47.539 6.54469 48.8401 6.69765C49.4526 6.81286 49.7784 7.44457 50.3909 7.48297Z" fill="#ADADAD"/>
<path d="M48.8596 6.71777C48.5153 6.87073 48.171 7.02435 47.826 7.15811C47.5194 7.29186 47.1751 7.44548 47.1373 7.7514C47.0413 8.59367 46.7924 9.32073 46.0646 9.85708C45.7971 10.0676 45.9309 10.2206 46.8308 10.412C46.4864 10.508 46.2375 10.5841 45.9885 10.6609C45.9686 10.7371 45.9117 10.7371 45.8733 10.6801C45.2038 10.1246 44.5529 9.5505 43.8828 8.99561C44.1702 8.23015 44.8396 8.03878 45.5289 7.96197C46.1414 7.90436 46.2375 7.78981 45.8733 7.25346C45.2416 6.35424 45.3952 6.04832 46.3712 5.93311C46.9645 6.08606 47.5194 6.46946 48.2087 6.27743C48.4577 6.22048 48.7252 6.41185 48.8596 6.71777ZM54.7933 10.9291C54.9469 11.7522 56.0759 12.1349 56.8029 11.6376C57.3393 11.2734 57.569 11.8283 57.8558 12.0965C58.2385 12.5368 57.8756 12.8242 57.6452 13.1686C57.1287 13.9532 56.1143 14.1062 55.5395 14.8147C54.9469 15.5609 54.1238 16.0013 53.3769 16.4992C52.6498 16.9965 52.1718 16.2695 51.6546 15.9053C50.966 15.159 49.8741 14.8147 49.3768 13.8387C49.3576 13.7426 49.3384 13.6466 49.3576 13.5705C49.9317 12.862 50.4296 12.1157 51.0613 11.4648C51.4056 11.1013 51.7884 11.1397 52.1903 11.4264C51.7692 10.6609 51.9605 10.355 53.071 9.9723C53.8172 9.9723 54.0662 10.853 54.7933 10.9291Z" fill="#ADADAD"/>
<path d="M53.0698 9.97238C53.0313 10.0677 52.9552 10.1445 52.9552 10.2399C52.9168 10.6802 52.1513 10.7186 52.3427 11.1974C52.4957 11.5993 53.0698 11.5033 53.3571 11.9244C53.0314 11.8284 52.687 11.7523 52.3619 11.6371C51.7302 11.4265 51.0985 11.7139 51.0217 12.2118C50.9071 13.1686 50.1794 13.2832 49.5861 13.6474C48.9928 14.1063 48.6869 13.513 48.2658 13.3031C47.787 12.8621 47.1931 12.5177 47.2897 11.7139C47.6725 11.1206 48.1506 10.7186 48.916 10.7378C49.6821 10.757 50.0073 10.3551 49.9689 9.58898C49.9311 8.95728 49.9119 8.28783 50.5429 7.8667C50.7919 8.05806 51.0601 8.24943 51.3091 8.44079C51.5388 8.86193 51.864 9.18705 52.342 9.28306C52.7446 9.35987 52.9552 9.62739 53.0704 9.97171L53.0698 9.97238ZM59.1762 14.5466C59.3676 14.6803 59.5589 14.7956 59.7503 14.9293C60.0754 15.1783 60.382 15.4458 60.7071 15.6948C60.6879 15.7908 60.6879 15.9053 60.631 15.963C59.4245 17.2833 59.5397 19.0063 59.2338 20.5948C59.0802 21.3794 58.5253 21.839 57.8367 22.1641C56.956 21.743 56.0753 21.8774 55.233 22.2793C54.9079 22.4323 54.6013 22.5475 54.257 22.3747C53.7783 21.686 53.2426 21.0351 52.8976 20.269C52.7453 19.9247 52.6109 19.5803 52.7254 19.1976C52.7254 18.8149 52.8976 18.5275 53.185 18.3169C54.8503 17.0158 56.5349 15.7524 58.181 14.4122C58.5445 14.393 58.8895 14.2208 59.1762 14.5466Z" fill="#ADADAD"/>
<path d="M57.8557 22.0112C59.0807 20.71 58.8701 18.9295 59.3489 17.3794C59.5978 16.5947 59.923 15.9822 60.7076 15.6948C61.5488 16.2362 62.3203 16.8789 63.0047 17.6085C62.7749 18.0687 62.4306 17.8959 62.1048 17.7806C61.5499 17.5707 60.995 17.341 60.4017 17.2264C60.8798 17.6667 61.4923 17.8005 62.0478 18.0303C62.3346 18.1448 62.8133 18.0303 62.7941 18.5666C62.9861 19.1016 62.5259 19.2745 62.2392 19.4082C60.9566 19.9823 60.1719 21.016 59.4449 22.1456C58.9661 22.9111 58.5066 22.9495 57.7411 22.3939C57.718 22.3261 57.7165 22.2528 57.7371 22.1842C57.7576 22.1156 57.7991 22.0551 57.8557 22.0112Z" fill="#ADADAD"/>
<path d="M57.8539 22.3943C58.9451 22.3744 59.4232 21.6665 59.6728 20.7481C59.7874 20.3654 60.094 20.2118 60.3814 20.0204C61.1913 19.5245 62.008 19.0397 62.8314 18.5663C63.8842 18.1452 64.4192 18.4895 64.9364 19.9059C64.0941 21.3414 62.7923 22.3175 61.5103 23.3127C58.9643 25.3038 56.3998 27.2751 53.8346 29.2655C53.1837 28.9404 53.0883 28.5769 53.5478 28.0021C54.1219 27.2936 54.696 26.605 55.2701 25.8964C55.5575 25.5905 55.6529 25.1886 55.7681 24.8059C56.2846 24.2318 56.5143 23.4848 56.9732 22.8723C57.1844 22.5856 57.3374 22.1837 57.8539 22.3943ZM21.3145 22.0301C21.3145 20.9395 21.3337 19.8675 21.3337 18.7762C21.6588 19.0828 21.6588 19.5615 21.8885 19.9059C22.1567 19.8483 22.405 19.8867 22.5587 20.1164C23.2288 21.054 24.1856 21.6665 25.0471 22.4135C25.6404 22.9876 26.3674 23.3895 26.9415 23.9828C27.5924 24.4231 28.2625 24.8436 28.8174 25.3992C30.0808 26.5473 30.4827 26.6434 31.4594 26.1454C31.7654 25.9931 31.9561 25.8203 32.0335 25.476C32.1097 25.0932 32.2818 24.7483 32.7222 24.6529C33.0665 24.6529 33.3923 24.6145 33.6982 24.8052C34.1385 25.227 34.6365 25.5713 35.1338 25.9163C35.3828 26.2606 35.9191 26.356 35.9376 26.8923C35.8807 27.7154 35.1722 28.2319 35 29.055C34.8087 29.9548 35.0576 30.4521 35.7277 30.8925C35.9184 31.0262 36.0721 31.1798 36.2634 31.2944C37.1818 31.9453 38.0049 32.7114 39.0385 33.1895C39.4789 33.5338 40.149 33.649 40.149 34.3761C40.1291 35.754 40.2066 37.1512 39.9954 38.5298C39.6126 39.1993 39.0962 38.9887 38.5982 38.7212C37.2209 38.0127 36.0529 37.0175 34.8663 36.0792C31.1714 33.1511 27.4395 30.28 23.726 27.3704C22.4441 26.356 21.4681 25.2462 21.3145 23.5431V22.0301Z" fill="#ADADAD"/>
<path d="M21.3159 23.5425C22.0622 25.6098 23.7659 26.8155 25.3922 28.0783C29.3671 31.1957 33.3548 34.2967 37.3555 37.381C38.064 37.9174 38.8102 38.414 39.6711 38.6636C39.8631 38.6828 40.0154 38.7974 40.0922 38.9695C40.4941 40.1945 40.322 41.4394 40.2842 42.6829C40.2643 43.0657 40.0538 43.3146 39.6903 43.4292C38.1401 42.8359 36.9151 41.7639 35.6517 40.7686C31.8536 37.8354 28.0765 34.8751 24.3208 31.8877C23.5739 31.2944 22.9236 30.5859 22.2727 29.8973C21.6218 29.1695 21.2961 28.2703 21.3153 27.2751C21.3351 26.0302 21.3159 24.7867 21.3159 23.5425Z" fill="#ADADAD"/>
<path d="M39.6704 43.4294C40.0723 41.9177 39.7657 40.3669 39.8617 38.836C40.6272 38.3195 41.1629 38.8552 41.7376 39.2571C41.7568 39.3141 41.7754 39.3525 41.7754 39.4101V44.1763C41.0867 43.9465 40.3789 43.6784 39.6704 43.4294ZM24.7598 22.7772C23.6878 21.935 22.5972 21.1119 21.8887 19.9054C21.9847 19.3313 22.3674 18.9678 22.7501 18.5659C24.836 16.3079 27.4204 14.6803 29.7936 12.766C32.3204 10.6994 34.9809 8.78508 37.5647 6.79462C37.909 6.52644 38.2732 6.23907 38.7135 6.12451C39.0387 6.66086 39.1155 6.96678 38.4454 7.48327C37.8521 7.92361 36.933 8.47916 37.278 9.66576C37.5839 10.6987 36.4933 10.5842 36.0722 10.661C35.1339 10.8139 34.9425 11.6178 34.483 12.1542C34.1585 12.5369 34.7128 12.7091 34.9425 12.9958C34.1579 13.0342 33.354 12.958 32.9521 13.7043C32.7415 14.087 33.258 14.087 33.5262 14.3929C32.6078 14.4313 32.2436 15.1975 31.6503 15.6563C30.8087 16.3264 31.88 17.0734 31.6887 17.8196C31.6887 17.8196 31.5933 17.8196 31.5933 17.7998C30.9232 16.3264 30.7895 16.288 29.775 17.6091C29.2771 18.2792 28.7798 18.9102 28.0905 19.4081C27.8031 19.6187 27.4396 19.9445 27.9945 20.2888C28.0713 20.3458 28.1097 20.4411 28.1289 20.5371C28.0905 20.9013 27.7846 20.9775 27.5548 21.1304C26.9608 21.2456 26.502 21.3986 26.3675 22.1833C26.2146 23.0447 25.3531 22.7196 24.7598 22.7772ZM32.225 19.332C32.4932 18.4513 33.2203 17.8964 33.642 17.1118C33.9288 16.5562 34.4645 16.8052 35.0193 17.0158C34.5029 16.4417 34.6366 16.0013 35.1346 15.6378C35.7087 15.2359 36.5317 15.1783 36.7615 14.336C36.7807 14.279 36.9337 14.2214 36.9913 14.2406C37.1442 14.279 37.1634 14.4128 37.1442 14.5466C37.1058 14.8909 37.0297 15.2352 37.0105 15.5802C36.9906 15.9245 37.0105 16.2688 37.3747 16.4609C37.9481 17.1303 37.8713 17.7812 37.0873 18.3368C36.2066 18.9493 35.4789 19.7339 34.5605 20.308C34.1393 20.461 33.7182 20.3272 33.2971 20.3848C32.7991 20.1551 32.2058 20.0591 32.225 19.332Z" fill="#ADADAD"/>
<path d="M34.5039 20.1354C34.9442 19.3123 35.6905 18.7382 36.4176 18.2595C37.1069 17.7999 37.4326 17.2834 37.375 16.4796C37.4326 15.6565 37.2221 14.8142 37.528 13.9912C37.72 13.972 37.9491 13.9912 38.0445 14.1633C38.4663 15.0248 39.1933 15.6949 39.4615 16.6332C39.4999 16.9199 39.729 17.1497 39.6913 17.4556C39.4039 18.5661 38.6 19.4275 38.2743 20.5181C38.1021 21.0922 37.4134 20.9776 37.0691 21.322C36.0355 21.322 35.0211 21.2644 34.5039 20.1354ZM41.1838 12.3073C40.074 11.1776 39.0212 11.3882 38.0253 12.4795C37.8154 12.7092 37.5287 12.843 37.1837 12.8622C37.6624 12.2113 38.0259 11.5028 38.945 11.2161C39.1741 11.1392 39.8058 10.4506 39.729 9.76128C39.7105 9.56926 39.6913 9.37855 39.729 9.20639C39.825 8.88061 39.9396 8.45947 40.3415 8.45947C40.6859 8.45947 40.6481 8.88061 40.7249 9.14878C40.8203 9.47391 40.8971 9.81889 40.9924 10.1632C41.0123 10.4314 41.2414 10.5651 41.3944 10.7181C41.7387 11.2922 42.0453 11.8862 41.1838 12.3073Z" fill="#ADADAD"/>
<path d="M43.3072 12.0575C43.3271 12.1151 43.3271 12.1535 43.3271 12.2111C43.7284 12.9958 43.1351 13.2639 42.6186 13.5699C42.0253 13.6851 41.8909 13.2831 41.7578 12.8428C41.5657 12.6508 41.3744 12.4786 41.183 12.2873C41.2598 11.7516 41.336 11.2344 41.4128 10.6987C42.0445 11.1583 42.6755 11.6178 43.3072 12.0575ZM43.1172 39.4094H41.7776C41.2612 39.1412 41.0691 38.7208 41.1075 38.146C41.2035 36.921 40.8394 35.6576 41.4519 34.4909C42.1796 34.0307 42.7537 34.3181 43.3086 34.8153C43.2132 36.3661 43.5191 37.897 43.1172 39.4094ZM55.7493 26.2211C54.8692 26.7767 54.5243 27.7719 53.8164 28.499C53.625 28.7102 53.6442 29.0161 53.8164 29.2843C51.3863 31.1787 49.1462 33.3612 46.1797 34.4518C45.7963 34.1459 45.8731 33.7824 46.0261 33.3804C46.1797 32.9785 46.428 32.5958 46.7922 32.4421C48.4761 31.6575 49.127 30.0306 50.0269 28.595C50.5056 27.8295 51.4048 27.4468 51.8259 26.6615C52.1901 26.0304 52.7066 25.7046 53.3383 25.4563C54.0654 25.169 55.2718 25.5517 55.7499 26.2218L55.7493 26.2211Z" fill="#ADADAD"/>
<path d="M55.7521 26.2208C55.2356 26.1063 54.6992 25.9917 54.1827 25.8573C53.857 25.7811 53.551 25.705 53.4742 26.1831C53.455 26.2784 53.4166 26.3552 53.3789 26.432C52.1155 25.7619 52.4029 27.2545 51.8096 27.561C51.1587 27.9054 50.5846 28.3649 50.2588 29.1304C49.876 29.9918 49.2827 30.7573 48.804 31.5612C48.555 31.9823 48.1339 32.1167 47.7512 32.3081C46.8705 32.7292 46.2587 33.3609 46.201 34.4138C45.3012 34.1648 45.7415 33.4179 45.6269 32.8822C45.7415 32.6716 45.5117 32.4226 45.6839 32.2121C46.8712 31.485 47.4452 30.26 48.1339 29.1496C48.5934 28.4033 49.5311 28.059 49.7608 27.1591C49.7807 26.9671 49.876 26.8148 49.8568 26.6228C49.78 25.6851 50.221 25.111 51.101 24.8621C51.1587 24.5945 51.0434 24.2496 51.4652 24.192C51.9049 23.9814 52.4982 24.0582 52.7856 23.5417C53.1299 22.9862 53.455 22.1631 54.0867 22.2015C54.68 22.2399 55.025 23.0438 55.3117 23.6185C55.3501 23.6947 55.3885 23.7907 55.4269 23.886C55.5223 24.3648 55.9434 24.6515 56.1355 25.0534C56.001 25.4554 55.8673 25.8381 55.7521 26.2215V26.2208Z" fill="#ADADAD"/>
<path d="M45.798 32.3462C45.7404 32.5382 45.6636 32.729 45.606 32.9203C45.3385 33.0925 45.3961 33.3799 45.4153 33.6096C45.4914 34.2413 45.2047 34.6241 44.6492 34.8346H43.501C42.9845 34.5857 42.6018 34.2413 42.7547 33.5904C42.9077 32.9018 43.7116 32.0019 44.2665 31.9443C44.6876 31.8873 45.0703 32.0211 45.4915 32.0211C45.6636 32.0403 45.7596 32.1549 45.798 32.3462Z" fill="#ADADAD"/>
<path d="M45.6255 32.1741C45.0507 32.4807 44.3044 32.1364 43.8065 32.7297C43.2516 33.3806 42.9258 34.0315 43.5006 34.8155H43.3086C42.7351 34.7585 42.161 34.6817 41.5869 34.6248C41.2804 34.9307 40.9546 34.9691 40.591 34.7393C40.0361 33.9739 40.4957 33.3998 40.9354 32.8442C41.1466 32.5959 41.5101 32.4423 41.4333 32.0218C41.4141 31.9258 41.4141 31.8298 41.4141 31.7344C41.2804 30.8537 41.7968 30.2412 42.4669 29.8969C43.2324 29.5142 43.8065 30.1644 44.4005 30.5286C44.9938 30.8729 45.5486 31.2557 45.8738 31.8874C45.8738 32.0595 45.8168 32.1748 45.6248 32.1748L45.6255 32.1741ZM50.1997 17.3979C50.64 17.7423 51.1188 18.0297 51.4823 18.4707C51.8842 18.9487 52.4014 19.1977 53.0516 19.1209C53.186 20.2883 54.1044 21.0922 54.3918 22.1834C55.291 22.872 55.4639 23.5422 54.9659 24.2891C54.4872 23.7911 54.5256 23.0641 54.066 22.394C53.7601 23.0065 53.5111 23.5422 53.243 24.0977C52.8602 24.1931 52.8033 23.9057 52.8218 23.6574C52.8794 22.8343 52.4391 23.0257 51.9994 23.2362C51.3869 23.5422 50.7546 23.7726 50.0851 23.8679C49.6448 23.9057 49.1091 24.3275 48.8025 23.7527C48.4582 23.1018 48.8224 22.49 49.2044 21.9344C50.0851 20.9584 50.4102 19.9824 49.166 19.0249C49.0707 18.9487 49.1091 18.7958 49.1283 18.6614C49.3958 18.1826 49.6448 17.6853 50.1997 17.3979Z" fill="#ADADAD"/>
<path d="M54.9852 24.3076C54.7931 23.5991 54.6024 22.9105 54.4111 22.202C55.2719 21.4365 56.3823 21.4934 57.416 21.3213C58.0093 21.2259 57.8371 21.704 57.8563 22.0106V22.3933C57.1286 23.1972 56.918 24.307 56.1334 25.0731C55.7506 25.4373 55.4248 25.5896 55.2726 24.8817C55.2149 24.6897 55.0805 24.499 54.9852 24.3076ZM58.9661 17.8383C58.7555 18.7382 58.5834 19.6189 58.3344 20.4803C58.2198 20.8816 56.5161 21.3795 56.1142 21.1882C55.8652 21.0736 55.8652 20.8631 56.0188 20.7478C57.0332 20.0393 57.263 18.6998 58.3152 18.0297C58.4688 17.9151 58.6026 17.7622 58.9661 17.8383ZM38.7159 33.4951C37.7398 32.9786 36.8022 32.4039 36.0367 31.5815C35.8262 31.2941 35.7686 31.0067 36.0169 30.72C36.5724 30.0883 37.2233 29.552 37.6253 28.7865C37.7014 28.6527 37.8934 28.6335 38.0464 28.6143C38.9271 29.1507 39.8839 28.5759 40.8023 28.8057C41.2235 29.3222 41.0321 29.8777 40.7639 30.3174C40.3428 31.0259 40.362 31.4279 41.2427 31.5808C41.4724 31.6192 41.6068 31.8298 41.7591 31.9827C41.7591 32.4423 41.3956 32.576 41.0705 32.576C40.1514 32.5383 39.4244 32.9594 38.7159 33.4951Z" fill="#ADADAD"/>
<path d="M38.1392 28.9014C37.9869 30.2224 36.3594 30.3946 36.0336 31.5812C35.9574 31.5428 35.8614 31.5044 35.7853 31.4474C33.9286 30.2986 33.7756 29.1312 35.2489 27.485C35.4025 27.3129 35.5171 27.1407 35.6515 26.9686C36.0726 26.6812 36.3786 26.9686 36.6659 27.1791C37.0487 27.4466 37.4698 27.6764 37.8141 28.0015C38.0247 28.2697 38.3882 28.4796 38.1392 28.9014ZM30.3105 22.9678C30.3681 22.9678 30.4257 22.987 30.4827 22.987C31.1336 22.8718 31.6699 23.1783 32.1672 23.5611C32.5115 23.9246 32.8559 24.3073 32.7989 24.8814C32.4546 25.3794 32.2824 25.8958 32.9141 26.5468C32.0142 26.4514 31.4209 26.6997 30.8277 26.9871C30.2152 27.293 29.8516 26.7189 29.4106 26.4507C29.0862 26.2408 28.7988 25.9919 28.6074 25.6667C29.1623 24.7662 29.3345 23.5995 30.3105 22.9678ZM40.6277 34.4331C40.9534 34.49 41.2594 34.5669 41.5851 34.6245C41.5851 35.9256 41.5851 37.2082 41.5467 38.51C41.5467 38.8352 41.5851 39.1417 41.7765 39.4093C41.1448 39.2179 40.4939 39.0265 39.8629 38.8352L39.6708 38.6438C39.7284 37.1698 39.5371 35.6965 39.8629 34.2417C40.2257 33.9352 40.4363 34.1457 40.6277 34.4331Z" fill="#ADADAD"/>
<path d="M30.3119 22.9682C30.2166 23.4278 30.2735 23.8873 29.853 24.27C29.4319 24.6336 30.0053 24.9203 30.1013 25.3414C29.5081 25.1501 29.0108 25.2653 28.5896 25.6672C27.8619 25.3606 27.307 24.7673 26.676 24.327C26.6177 22.7001 27.7474 21.6472 29.1445 22.0491C29.5273 22.3365 29.91 22.6431 30.3119 22.9682Z" fill="#ADADAD"/>
<path d="M29.142 22.0298C27.7832 22.2026 27.4581 23.5044 26.6734 24.3076C26.0417 23.7912 25.3908 23.2939 24.7598 22.7767C25.0273 22.547 25.2763 22.298 25.659 22.298C25.9073 22.2794 25.9265 22.1834 25.9265 21.9345C25.8695 20.8816 26.3099 20.5949 27.4389 20.8631C28.0322 21.1882 28.7599 21.3412 29.1426 22.0305L29.142 22.0298ZM40.6265 34.4334C40.3775 34.3758 40.11 34.2997 39.861 34.2414C39.4783 33.9931 39.0956 33.7448 38.7122 33.4766C38.789 32.4807 39.3055 32.041 40.3206 32.1172C40.7987 32.1556 41.3158 32.2132 41.7747 31.945C42.0045 31.9834 42.4832 31.8689 42.0045 32.3278C41.4112 32.9403 40.8172 33.5726 40.6265 34.4334ZM39.4207 17.4364C39.7458 18.0681 40.0908 18.6998 40.4159 19.3315C40.2822 20.3843 40.0517 21.3796 39.038 21.9921C38.1381 22.241 37.7362 22.0682 37.2005 21.2259C37.2005 21.169 37.1806 21.1114 37.1806 21.0538C37.9275 19.8672 38.6744 18.6422 39.4207 17.4364ZM44.5889 15.1201C43.9188 14.546 43.2301 13.972 42.56 13.3979C42.8282 13.0151 43.0765 12.6132 43.3447 12.2305L46.1589 14.2401V14.3931C46.2542 15.2539 45.508 15.3314 44.9908 15.6373C44.7034 15.5797 44.5313 15.4267 44.5889 15.1208V15.1201ZM49.6233 21.9914C49.5471 22.1636 49.4511 22.3172 49.3935 22.5085C49.279 22.8913 48.9532 23.3124 49.2214 23.6375C49.4319 23.9057 49.8531 23.5038 50.1782 23.5422C50.3888 23.8673 50.6947 23.7143 50.9827 23.7335C51.4032 23.7528 51.8243 23.9057 51.4992 24.499C51.327 25.2267 52.1501 24.7864 52.2647 25.2459C51.8627 25.1883 51.48 25.1307 51.1165 25.0738C50.6185 25.0738 50.1404 25.2651 49.6425 25.1115C49.2406 24.9778 48.9724 25.2459 48.6857 25.571C47.2686 27.1602 46.0251 28.8819 44.7617 30.5664C44.6471 30.72 44.4743 30.8154 44.283 30.873C43.5367 30.681 43.1924 29.9731 42.5799 29.5904C42.3309 29.4374 42.3878 28.9779 42.5799 28.8057C43.5559 27.925 43.4221 26.6431 43.8241 25.571C44.4174 24.9201 45.3742 24.5758 45.5848 23.5806C46.1589 23.0065 46.8098 22.5278 47.0395 21.6471C47.1541 21.2259 47.652 21.0346 48.0348 20.824C48.8002 20.9392 49.4505 21.1498 49.6233 21.9914Z" fill="#ADADAD"/>
<path d="M44.2657 30.8154C44.7252 29.3037 46.0072 28.3654 46.8111 27.0835C47.2898 26.3174 48.0169 25.7241 48.4956 24.9202C48.7446 24.4991 49.1081 24.3845 49.5484 24.5183C50.0848 24.6904 50.6205 24.8825 51.1562 25.0738C50.4675 25.5142 50.1801 26.1068 50.4477 26.9299C50.5053 27.1219 50.4099 27.351 50.3907 27.5616C49.3955 27.4854 48.8399 28.2125 48.3618 28.8826C47.6725 29.8202 46.8111 30.6439 46.2946 31.7153C46.1986 31.8875 46.0264 31.9643 45.8158 31.9643C45.2225 31.7921 44.8206 31.2942 44.2849 31.0075C44.2081 30.9691 44.1889 30.9307 44.2081 30.8731C44.2273 30.8346 44.2465 30.8154 44.2657 30.8154Z" fill="#ADADAD"/>
<path d="M45.7965 31.9455C46.3322 30.012 47.7677 28.7685 49.2033 27.562C49.5675 27.2561 49.988 27.3899 50.3899 27.562C49.1649 28.3281 48.4186 29.4571 47.8253 30.7589C47.481 31.5052 46.7341 32.1369 45.815 32.3481L45.6429 32.176C45.6813 32.0985 45.7395 32.0223 45.7965 31.9455ZM51.5374 24.5002C51.0971 23.8109 50.3124 24.3081 49.6999 24.0022C49.892 23.8301 50.0443 23.6764 50.1979 23.5427C51.1163 23.1408 52.0354 22.7388 52.9538 22.3561C53.1644 22.2601 53.4133 21.9919 53.6239 22.2409C53.8159 22.4514 53.6047 22.7196 53.5285 22.9494C53.3941 23.3321 53.1452 23.6764 53.2604 24.1168C52.7624 24.5955 52.1307 24.4816 51.5374 24.5002ZM44.2642 30.8159V31.0079C44.1497 30.9688 44.0345 30.9119 43.9199 30.8735C43.4796 30.7013 43.2882 29.9167 42.675 30.2802C42.0632 30.6444 41.7758 31.237 41.795 31.9647H40.6654C39.6894 31.9263 39.4218 31.4668 39.9767 30.6437C40.3409 30.1074 40.6654 29.6107 40.6468 28.9406C40.3403 28.5764 40.4747 28.1937 40.57 27.7918C40.9144 27.3322 41.1064 26.7005 41.8334 26.6628C41.8526 26.6628 41.9288 26.7197 41.891 26.6429C41.3355 25.8013 41.948 25.2458 42.3691 24.6531C43.1346 24.6531 43.8623 24.7293 44.0921 25.6484C44.245 25.9927 44.2642 26.3178 44.0722 26.6436C43.7093 27.313 43.8623 27.7918 44.8191 28.1169C44.2066 28.2321 43.7862 27.8686 43.4412 28.4235C42.7327 29.5147 42.6757 29.5339 44.2642 30.8159ZM50.1992 17.3985C50.2568 18.0302 49.8926 18.4129 49.4331 18.738C49.1272 19.0062 48.8206 18.987 48.4955 18.7764C48.0743 18.0878 47.1559 18.011 46.7341 17.3217C46.5619 17.035 46.256 16.8244 46.352 16.4225C46.6387 15.9437 46.8685 15.3888 47.5386 15.312C48.3617 15.9437 49.1848 16.5754 50.0078 17.2257C50.0648 17.2833 50.1416 17.3415 50.1992 17.3985Z" fill="#ADADAD"/>
<path d="M47.5174 15.3116C47.3452 15.8281 47.1154 16.2883 46.5413 16.4797C46.35 16.632 46.1586 16.7664 45.8904 16.6711C45.4309 16.4029 45.0296 16.097 45.0296 15.4845C45.2018 14.9097 45.7567 14.7376 46.1394 14.374C46.6559 14.5078 46.9049 15.1203 47.4982 15.1395C47.518 15.1971 47.5174 15.2547 47.5174 15.3116ZM40.8183 27.9642C40.3779 27.849 40.1098 27.5239 39.8422 27.1796C39.5363 26.9876 39.2489 26.7776 38.9424 26.5863C38.8278 26.4903 38.751 26.2989 38.8278 26.2605C39.6125 25.7632 39.3827 24.7104 39.9952 24.1363C40.0912 24.0979 40.1674 24.0595 40.2826 24.0595C40.8567 23.9827 41.4308 24.0019 41.9287 24.3468C42.1585 24.4806 42.4068 24.6144 42.3883 24.9401C42.3684 25.1315 42.426 25.3613 42.3306 25.495C41.8903 26.2605 42.1201 26.7968 42.9623 27.2564C41.7566 26.3757 41.4692 27.6577 40.8183 27.9642Z" fill="#ADADAD"/>
<path d="M40.0531 24.3079C40.0147 24.8442 39.6896 25.4369 40.4742 25.8011C39.8617 26.0686 39.2691 26.0686 38.9241 26.5857C38.3308 26.1262 37.6793 25.6859 37.2012 25.0926C37.3733 24.4225 37.7945 23.8868 38.2156 23.3511C38.9433 23.4272 39.8048 23.2935 40.0531 24.3079Z" fill="#ADADAD"/>
<path d="M38.1406 23.5811C39.2696 24.9974 37.6619 24.6723 37.2023 25.0742C37.011 25.0166 36.8196 24.9398 36.609 24.8822C36.3607 24.2889 35.6906 24.1936 35.3271 23.734C35.251 23.7003 35.1849 23.6476 35.1351 23.5811C35.0589 23.2937 35.0397 23.007 35.2503 22.758H35.8244C36.609 22.4898 37.3176 22.7004 37.9685 23.1599C38.1214 23.2745 38.1598 23.4089 38.1406 23.5811ZM39.6901 21.9919C39.4411 21.8581 39.1921 21.7244 38.9246 21.5899C39.461 21.188 39.6331 20.5755 39.843 20.0014C39.9583 19.6955 40.0728 19.4273 40.4171 19.3313C40.5324 19.4657 40.6469 19.5995 40.7429 19.7332C41.5852 20.1166 41.7759 21.0158 42.2738 21.6667C42.6566 22.911 42.4659 23.2361 41.413 22.9871C41.159 22.8742 40.8862 22.8093 40.6085 22.7957C40.092 22.7957 39.7669 22.5282 39.6901 21.9919ZM42.7519 18.5473C42.6758 18.4321 42.599 18.2983 42.5221 18.1831C42.1778 17.4945 41.7183 16.882 41.5653 16.0973C41.5653 16.0397 41.5845 15.9629 41.5845 15.9053C42.1586 16.3264 42.7327 16.7475 43.3075 17.1879C43.7471 17.3223 43.9769 17.6858 44.2067 18.0494C44.2259 18.1454 44.2259 18.2414 44.2835 18.3175C44.4749 18.6427 44.896 18.93 44.551 19.3704C44.1683 19.8292 43.7664 19.4465 43.3644 19.3704C43.0201 19.1783 42.9049 18.8539 42.7519 18.5473ZM46.3501 19.3505L48.0916 21.035C47.7473 21.5138 47.3645 21.9535 47.25 22.5852C47.1156 23.3513 46.3501 23.485 45.7568 23.734C45.6807 23.791 45.5846 23.8102 45.4893 23.791C44.8953 23.3705 44.647 22.758 44.6086 22.0495C44.9337 21.284 45.0682 20.4225 45.5846 19.7332C45.7376 19.5227 45.872 19.3121 46.121 19.2359C46.2163 19.2359 46.2932 19.2744 46.3501 19.3505Z" fill="#ADADAD"/>
<path d="M44.4542 21.647C44.4164 21.3411 44.282 21.0921 44.0906 20.8624C43.6126 20.3836 43.2868 19.8479 43.2676 19.1586C44.4926 19.5605 44.2059 18.6805 44.2059 18.0488C44.378 18.2402 44.5694 18.374 44.8376 18.3932C45.2772 18.7189 45.7368 19.0633 46.1771 19.3884C45.9372 20.3672 45.4645 21.2735 44.7992 22.0304C44.4734 22.0874 44.6263 21.7238 44.4542 21.647Z" fill="#ADADAD"/>
<path d="M44.457 21.6475C44.5722 21.7819 44.6868 21.8964 44.8014 22.0302C45.0695 22.6049 45.3377 23.1598 45.6251 23.7339C44.955 23.5618 44.9934 22.8347 44.6484 22.4136C44.5722 22.1454 44.5146 21.8971 44.457 21.6475Z" fill="#ADADAD"/>
<path fill-rule="evenodd" clip-rule="evenodd" d="M47.9023 31.5813C54.9855 31.5813 60.7271 25.8403 60.7271 18.7572C60.7271 11.6747 54.9855 5.93311 47.9023 5.93311C45.8536 5.93311 43.9174 6.41317 42.1998 7.26802C41.1851 7.01655 40.1436 6.8898 39.0982 6.89059C32.015 6.89059 26.2734 12.6315 26.2734 19.714C26.2734 26.7972 32.015 32.5388 39.0982 32.5388C41.1469 32.5388 43.0831 32.0581 44.8007 31.2039C45.794 31.4508 46.8336 31.5813 47.9023 31.5813Z" fill="#ADADAD"/>
<path d="M59.8419 15.908C59.246 17.0681 59.1268 18.4639 58.213 19.487C57.9746 19.4671 57.7164 19.4472 57.478 19.428C57.18 19.1135 57.2793 18.7791 57.4184 18.4447C57.6766 17.7759 57.9349 17.0873 58.2329 16.2814C57.6965 16.3801 57.3191 16.4589 56.9416 16.5178C56.0477 16.6549 55.1935 17.1469 54.24 16.9304C54.1606 16.7926 54.0811 16.6748 54.0016 16.537C54.1407 16.0848 54.4983 15.9868 54.8956 15.908C55.8491 15.6915 56.7827 15.4557 57.915 15.1803C57.2396 14.6492 56.7033 14.236 56.1868 13.8228C55.8491 13.548 55.3326 13.3904 55.412 12.8005C55.5114 12.6826 55.6306 12.5846 55.7299 12.4661C56.1073 12.4071 56.4649 12.4859 56.8026 12.7025C57.6965 13.411 58.5706 14.1182 59.4843 14.8068C59.8816 15.0823 60.1207 15.3961 59.8419 15.908ZM42.8945 8.08057C43.0137 7.45151 43.5699 7.45151 44.0268 7.33365C45.0399 7.09726 46.053 6.88139 47.0867 6.66487C48.0203 6.35034 48.8348 6.4682 49.5897 7.19592C50.2055 7.76604 50.9213 8.23816 51.5967 8.74935C51.8748 8.96588 52.1926 9.16254 52.2125 9.57507C51.8946 9.89026 51.5371 10.0869 51.0603 9.92933C50.4445 9.438 49.8088 8.98508 49.2129 8.47389C48.7361 8.0415 48.5176 8.08057 48.2792 8.71028C47.9614 9.51614 47.8621 10.4405 47.1072 11.0113C46.9278 11.0113 46.7291 10.9914 46.5503 10.9914C46.1729 10.716 46.153 10.3822 46.3318 9.96839C46.6298 9.29961 46.8682 8.61162 47.186 7.82497C45.7756 8.06137 44.544 8.27723 43.3117 8.47389C43.1726 8.35603 43.0336 8.2183 42.8945 8.08057Z" fill="#E0E0E0"/>
<path d="M51.058 9.92901C51.5348 10.0866 51.8923 9.88994 52.2102 9.57541C53.1637 10.7945 54.5145 11.542 55.7071 12.4465C55.6077 12.5644 55.4885 12.6631 55.3892 12.7809C55.0317 12.8405 54.7734 12.6432 54.5152 12.4465C53.3829 11.601 52.2108 10.7753 51.058 9.92901ZM30.4555 14.2364C30.3771 14.0751 30.2909 13.9178 30.1973 13.7649C30.5151 12.9783 30.9323 12.2307 31.1508 11.405C31.4686 10.2051 32.1639 9.59594 33.3763 9.47808C34.3695 9.30062 35.3628 9.10395 36.3759 8.92716C36.7931 8.84836 37.2109 8.71063 37.5883 9.04502C37.5883 9.24168 37.5685 9.43835 37.5685 9.63501C36.4362 10.225 35.1052 10.0873 33.8537 10.6574C34.6483 11.2864 35.3635 11.8374 36.0786 12.3883C36.3964 12.6439 36.7143 12.8796 36.5355 13.3517C36.3368 13.4312 36.158 13.5093 35.9594 13.5881C34.9066 13.2928 34.2113 12.4671 33.3962 11.8374C32.84 11.4248 32.6214 11.346 32.3433 12.0936C32.0652 12.8604 31.946 13.7649 31.211 14.3158C30.9528 14.3158 30.7138 14.2761 30.4555 14.2364Z" fill="#E0E0E0"/>
<path d="M37.5696 9.65386C37.5696 9.4572 37.5894 9.26054 37.5894 9.06454L42.1193 8.17923C42.3775 8.11963 42.6358 8.11963 42.894 8.08057L43.3112 8.49376C41.424 8.94601 39.517 9.41813 37.5696 9.65386ZM44.4037 30.2842C44.1852 30.559 43.8872 30.6775 43.5694 30.7364C43.192 30.8152 42.7748 30.8543 42.4172 31.0119C39.2183 32.5256 37.112 30.7166 35.0659 28.691C35.1652 28.4944 35.2844 28.2977 35.3838 28.101C36.5558 27.9044 37.1319 28.8678 37.8669 29.4386C38.582 29.9889 38.8402 30.0081 39.1581 29.0844C39.3965 28.3368 39.3965 27.3535 40.3506 26.98C40.5294 27.0396 40.7281 27.0979 40.9069 27.1376C41.2048 27.4521 41.0658 27.7865 40.9267 28.1209C40.6685 28.8096 40.4301 29.4975 40.1321 30.3431C41.2446 30.1067 42.1782 29.8909 43.1317 29.6743C43.6283 29.5763 44.1256 29.4777 44.4236 30.0286C44.4236 30.1465 44.4037 30.2054 44.4037 30.2842ZM30.6155 25.4067C29.5826 24.6002 28.5695 23.7745 27.516 22.9878C27.0392 22.6336 26.92 22.2992 27.1782 21.7489C27.5557 20.8835 27.8735 19.9982 28.1914 19.0936C28.3503 18.6613 28.5489 18.3269 29.0455 18.2679C29.3237 18.3077 29.562 18.4447 29.7607 18.6414C29.4627 19.5459 29.1449 20.4703 28.8072 21.5324C29.5422 21.3748 30.1778 21.2179 30.8135 21.1391C31.5287 21.0603 32.2643 20.5689 32.9993 21.0795V21.6701C31.8472 22.2793 30.4765 22.1422 29.2051 22.7322C29.96 23.3216 30.6155 23.8533 31.2909 24.3645C31.6684 24.6399 31.8074 24.9346 31.5492 25.367C31.2313 25.3471 30.9135 25.367 30.6155 25.4067ZM56.6027 23.8135C56.6027 25.2491 55.7883 26.4489 55.391 27.7468C55.2718 28.16 54.8149 28.1401 54.4772 28.2189C52.9867 28.5924 51.4763 28.9268 49.9864 29.281C49.8275 29.0843 49.6487 28.9069 49.4898 28.7102C50.344 27.9236 51.516 28.1401 52.4894 27.7468C52.7675 27.6289 53.1251 27.5501 53.1847 27.2945C53.2641 27.0389 52.8668 26.9403 52.688 26.7635C52.0722 26.1543 51.1187 25.898 50.8207 24.9736C50.9002 24.8558 50.9995 24.7578 51.079 24.6393C51.516 24.4823 51.9133 24.5611 52.2709 24.8756C52.5093 25.0922 52.7874 25.2888 53.0456 25.4848C54.4368 26.5668 54.4368 26.5668 55.0328 24.9346C55.1917 24.4823 55.291 23.9711 55.8274 23.7546L56.6021 23.8142L56.6027 23.8135Z" fill="#E0E0E0"/>
<path d="M30.6149 25.4068C30.9129 25.3869 31.2307 25.3671 31.5287 25.328C31.8863 25.3876 32.224 25.5445 32.5021 25.7803C33.4556 26.5669 34.4098 27.3536 35.3831 28.1204C35.2838 28.317 35.1646 28.5137 35.0653 28.7103C33.5754 27.6092 32.0856 26.5087 30.6149 25.4068ZM56.6028 23.8137C56.3445 23.7938 56.0863 23.7746 55.8281 23.7746C56.3843 22.339 56.9206 20.8836 57.4768 19.448L58.2118 19.5076C57.669 20.9405 57.1327 22.3759 56.6028 23.8137ZM29.7601 18.6216C29.5614 18.425 29.323 18.2879 29.0449 18.2482C29.3628 16.8523 30.0183 15.5737 30.4752 14.2169C30.7334 14.2567 30.9917 14.2957 31.2301 14.3348C30.8526 15.8094 29.9984 17.1271 29.7601 18.6216ZM49.4892 28.711C49.6481 28.907 49.8269 29.0845 49.9858 29.2805C48.635 29.3798 47.363 29.8512 46.0519 30.1068C45.4957 30.2055 44.9593 30.3234 44.4031 30.2836C44.4031 30.2055 44.423 30.1466 44.423 30.0678C44.6278 29.8617 44.8916 29.7243 45.1778 29.6744C46.628 29.3791 48.0582 29.0454 49.4885 28.7103L49.4892 28.711ZM44.6216 18.2674C46.4095 18.4051 48.0384 17.6781 49.7474 17.3827C51.1777 17.1463 52.5682 16.8318 53.9992 16.5372C54.0786 16.6742 54.1581 16.7927 54.2375 16.9305C52.8669 17.4807 51.4167 17.6383 50.0057 17.9529C48.2973 18.3462 46.569 18.7196 44.86 19.0938C44.4031 18.9163 44.3634 18.6415 44.6216 18.2674ZM44.9203 14.9049C45.4765 13.6071 45.7347 12.1715 46.5492 10.9717C46.728 10.9717 46.9266 10.9915 47.1054 10.9915C46.6485 12.4072 46.2115 13.8236 45.5162 15.1413L44.9203 14.9049ZM42.1385 18.6812C40.5295 17.147 38.6622 15.928 36.9333 14.5513C36.5956 14.2759 36.1387 14.0991 35.9797 13.627C36.1784 13.5482 36.3572 13.4694 36.5558 13.3912C38.5026 14.8857 40.4493 16.3802 42.3968 17.8939C42.6153 18.0714 42.8536 18.1303 43.1318 18.1303C43.0523 18.7402 42.5557 18.6223 42.1385 18.6812ZM43.9065 20.0572C42.953 21.6894 42.5358 23.5382 41.7809 25.2486C41.5028 25.8981 41.4234 26.6259 40.8864 27.1569C40.7076 27.0973 40.5089 27.039 40.3302 26.9993C41.085 24.993 41.8001 22.9681 42.5947 20.9816C42.8331 20.3724 42.7934 20.0572 42.118 19.9003C42.7537 19.7036 43.39 19.3494 43.9065 20.0572ZM38.4225 20.3724C37.7669 20.8637 36.9723 20.8445 36.2168 21.0213C35.1441 21.2968 34.0515 21.4345 32.9583 21.6504V21.061C34.7263 20.7657 36.4154 20.1168 38.2232 20.0771C38.3026 20.1757 38.3629 20.2737 38.4225 20.3724ZM50.8214 24.9738C50.007 24.9936 49.6494 24.2851 49.1131 23.9117C48.3383 23.3422 47.4438 22.8893 46.8677 22.0636C47.0465 21.9841 47.2252 21.8861 47.404 21.808C48.7151 22.6535 49.907 23.6369 51.0598 24.6394C51.0002 24.7572 50.9208 24.8559 50.8214 24.9738Z" fill="#E0E0E0"/>
<path d="M47.425 21.8077C47.2462 21.8871 47.0674 21.9851 46.8886 22.0639C45.7166 21.6706 44.9816 20.6277 43.9281 20.0774C43.3918 19.3689 42.7561 19.7033 42.1403 19.9C41.2463 20.0774 40.3716 20.2542 39.4777 20.431C39.1201 20.5105 38.7626 20.5105 38.4249 20.3721L38.2461 20.0774C38.3256 19.6053 38.6831 19.5066 39.1003 19.4086C40.1134 19.1729 41.1265 18.9173 42.1396 18.6809C42.5568 18.6412 43.0534 18.7405 43.113 18.1108C43.4308 17.3242 43.7884 16.5574 44.0672 15.7707C44.2261 15.3377 44.4446 15.0231 44.9214 14.9053C45.12 14.9841 45.3186 15.0622 45.5372 15.141C45.6166 16.2819 44.822 17.1864 44.6432 18.2677C44.385 18.6419 44.4247 18.9167 44.8618 19.0941C45.5968 19.6834 46.3119 20.2741 47.0469 20.8243C47.3846 21.0998 47.6243 21.3554 47.425 21.8077Z" fill="#E0E0E0"/>
</g>
</g>
</g>
<defs>
<clipPath id="clip0_11469_19032">
<rect width="86" height="49" fill="white"/>
</clipPath>
<clipPath id="clip1_11469_19032">
<rect width="49" height="49" fill="white" transform="translate(19)"/>
</clipPath>
</defs>
</svg>
