<svg width="86" height="49" viewBox="0 0 86 49" fill="none" xmlns="http://www.w3.org/2000/svg">
<path d="M57.426 1.16064H27.7378C23.0026 1.16064 19.1641 4.99922 19.1641 9.73434V39.2659C19.1641 44.0011 23.0026 47.8396 27.7378 47.8396H57.426C62.1611 47.8396 65.9997 44.0011 65.9997 39.2659V9.73434C65.9997 4.99922 62.1611 1.16064 57.426 1.16064Z" fill="#C4C4C4"/>
<mask id="mask0_11469_19116" style="mask-type:alpha" maskUnits="userSpaceOnUse" x="19" y="1" width="47" height="47">
<path d="M57.426 1.16016H27.7378C23.0026 1.16016 19.1641 4.99873 19.1641 9.73385V39.2655C19.1641 44.0006 23.0026 47.8391 27.7378 47.8391H57.426C62.1611 47.8391 65.9997 44.0006 65.9997 39.2655V9.73385C65.9997 4.99873 62.1611 1.16016 57.426 1.16016Z" fill="#C4C4C4"/>
</mask>
<g mask="url(#mask0_11469_19116)">
<path d="M31.4503 12.6253L31.2363 37.5606L43.3293 48.4767L53.2821 50.9381L68.4787 48.1556L66.6753 27.4488L55.7435 17.1202L46.647 17.7623L40.7609 12.1973L31.4503 12.6253Z" fill="#ADB0B5"/>
</g>
<path d="M38.7058 11.9341H32.9868C31.4084 11.9341 30.1289 13.2136 30.1289 14.792V20.511C30.1289 22.0894 31.4084 23.3689 32.9868 23.3689H38.7058C40.2842 23.3689 41.5637 22.0894 41.5637 20.511V14.792C41.5637 13.2136 40.2842 11.9341 38.7058 11.9341Z" fill="white"/>
<path d="M38.7058 26.0669H32.9868C31.4084 26.0669 30.1289 27.3464 30.1289 28.9248V34.6438C30.1289 36.2222 31.4084 37.5017 32.9868 37.5017H38.7058C40.2842 37.5017 41.5637 36.2222 41.5637 34.6438V28.9248C41.5637 27.3464 40.2842 26.0669 38.7058 26.0669Z" fill="white"/>
<path d="M52.7078 26.0669H46.9888C45.4104 26.0669 44.1309 27.3464 44.1309 28.9248V34.6438C44.1309 36.2222 45.4104 37.5017 46.9888 37.5017H52.7078C54.2862 37.5017 55.5657 36.2222 55.5657 34.6438V28.9248C55.5657 27.3464 54.2862 26.0669 52.7078 26.0669Z" fill="white"/>
<path d="M47.439 12.2143L44.1302 15.5231C43.0141 16.6392 43.0141 18.4487 44.1302 19.5648L47.439 22.8736C48.5551 23.9896 50.3646 23.9896 51.4807 22.8736L54.7895 19.5648C55.9055 18.4487 55.9055 16.6392 54.7895 15.5231L51.4807 12.2143C50.3646 11.0982 48.5551 11.0982 47.439 12.2143Z" fill="#E2E2E2"/>
</svg>
