<svg width="86" height="49" viewBox="0 0 86 49" fill="none" xmlns="http://www.w3.org/2000/svg">
<path fill-rule="evenodd" clip-rule="evenodd" d="M71.1751 5.00173L70.5106 5H16.4894L15.8223 5.00173C15.6436 5.00173 15.4641 5.00431 15.2838 5.00949C14.9679 5.01812 14.5994 5.03538 14.2568 5.09666C13.9827 5.14232 13.7171 5.22902 13.4688 5.35384C12.9886 5.59735 12.5981 5.98721 12.3538 6.46712C12.2288 6.71555 12.142 6.9815 12.0967 7.25592C12.0345 7.60112 12.0173 7.96963 12.0086 8.28377C12.0043 8.46327 12.0017 8.64364 12.0009 8.82315L12 9.34959V39.9719L12.0009 40.5009C12.0017 40.6796 12.0043 40.8591 12.0095 41.0395C12.0181 41.3536 12.0345 41.7212 12.0958 42.0639C12.1502 42.3642 12.2313 42.6145 12.353 42.8535C12.5959 43.334 12.986 43.7243 13.4663 43.9677C13.7079 44.0911 13.9582 44.1722 14.2559 44.2266C14.6037 44.2887 14.9878 44.3051 15.2829 44.3129C15.4581 44.3172 15.6393 44.3198 15.8206 44.3206C16.0424 44.3224 16.2607 44.3224 16.479 44.3224H70.5106C70.7315 44.3224 70.9533 44.3224 71.1751 44.3206C71.3598 44.3206 71.541 44.3172 71.7231 44.3137C72.0114 44.3051 72.3963 44.2878 72.7458 44.2257C73.0184 44.1801 73.2826 44.0937 73.5294 43.9694C74.0112 43.7261 74.4025 43.3351 74.6462 42.8535C74.771 42.6063 74.8574 42.3414 74.9025 42.0682C74.9646 41.7247 74.9819 41.3553 74.9905 41.0386C74.9948 40.8599 74.9974 40.6804 74.9983 40.5018C75 40.28 75 40.0634 75 39.8459V9.47645C75 9.25897 75 9.04149 74.9983 8.82401C74.9974 8.64105 74.9948 8.46155 74.9896 8.28377C74.9862 7.94007 74.9573 7.5971 74.9033 7.25764C74.8584 6.98352 74.772 6.71783 74.647 6.46971C74.4021 5.98961 74.0119 5.59909 73.532 5.35384C73.2836 5.2284 73.0177 5.14112 72.7432 5.09493C72.4035 5.04103 72.0602 5.01218 71.7162 5.00863C71.535 5.00345 71.3555 5.00173 71.1751 5V5.00173ZM28.5621 16.8733C29.1256 16.1683 29.508 15.2224 29.4078 14.255C28.5828 14.2964 27.5757 14.7987 26.9931 15.5046C26.4701 16.1087 26.0067 17.0943 26.1275 18.0212C27.0535 18.1014 27.9787 17.5577 28.5621 16.8733ZM29.3966 18.2015C28.5785 18.1532 27.8346 18.4458 27.2339 18.6831C26.8456 18.835 26.5176 18.9644 26.2665 18.9644C25.9886 18.9644 25.6477 18.8298 25.2645 18.6788C24.7597 18.4785 24.1814 18.2507 23.5765 18.2611C22.1922 18.2818 20.908 19.0637 20.2055 20.309C18.7608 22.7997 19.8241 26.4934 21.2291 28.5214C21.9108 29.5251 22.7342 30.6298 23.8181 30.5901C24.2928 30.572 24.6328 30.4278 24.9858 30.2794C25.394 30.1068 25.8194 29.9273 26.4874 29.9273C27.1235 29.9273 27.5291 30.1008 27.9183 30.2682C28.2894 30.427 28.6467 30.5797 29.1757 30.5702C30.2993 30.5504 31.0018 29.5665 31.6845 28.562C32.1646 27.8556 32.541 27.0839 32.8021 26.2707L32.8073 26.2534C32.8073 26.2517 32.7969 26.2474 32.7814 26.2396C32.5294 26.124 30.6394 25.2558 30.6204 22.9395C30.6014 20.996 32.1082 20.0104 32.355 19.8482C32.3659 19.8415 32.3765 19.8346 32.387 19.8274C31.423 18.4026 29.9188 18.2421 29.3966 18.2015ZM46.0614 20.3504C46.0614 17.4179 44.0264 15.4028 41.1043 15.4028H35.4567V30.4649H37.7955V25.3188H41.0309C43.985 25.3188 46.0623 23.2942 46.0623 20.3504H46.0614ZM40.4777 23.3572H37.7955V17.3765H40.4881C42.5127 17.3765 43.6717 18.4613 43.6717 20.3608C43.6717 22.2611 42.5127 23.3572 40.4777 23.3572ZM46.6733 27.3443C46.6733 25.4241 48.1447 24.2443 50.7554 24.0985L53.7604 23.9207V23.075C53.7604 21.8538 52.9362 21.1237 51.558 21.1237C50.2531 21.1237 49.4393 21.7494 49.2408 22.7306H47.1117C47.2368 20.7474 48.9275 19.2863 51.6417 19.2863C54.3032 19.2863 56.0051 20.6956 56.0051 22.898V30.4658H53.8441V28.6595H53.7923C53.1554 29.8807 51.7668 30.6531 50.3264 30.6531C48.1767 30.6531 46.6733 29.3171 46.6733 27.3443ZM53.7604 26.3527V25.4879L51.0565 25.6554C49.7102 25.7494 48.9482 26.3441 48.9482 27.2839C48.9482 28.2435 49.7422 28.8701 50.953 28.8701C52.5289 28.8701 53.7604 27.7844 53.7604 26.3544V26.3527ZM58.0444 32.6786V34.5047C58.2109 34.5358 58.7745 34.5565 58.9626 34.5565C61.2384 34.5565 62.3241 33.7012 63.263 31.0389L67.3761 19.484H64.9959L62.2196 28.4196H62.1782L59.401 19.484H56.9587L60.9251 30.4753C60.9251 30.4796 60.8906 30.5935 60.8509 30.7256V30.7273C60.7948 30.9154 60.7266 31.1415 60.7266 31.1545C60.3823 32.2816 59.8187 32.72 58.7753 32.72C58.5872 32.72 58.2109 32.7209 58.0444 32.6786Z" fill="#ADADAD"/>
</svg>
