<svg width="86" height="49" viewBox="0 0 86 49" fill="none" xmlns="http://www.w3.org/2000/svg">
<path d="M48.9686 4C69.6318 18.0805 62.9312 33.5559 62.9312 33.5559C62.9312 33.5559 68.8003 40.1898 66.4406 46C66.4406 46 64.0038 41.9431 59.9622 41.9431C56.0562 41.9431 53.745 46 45.8551 46C28.3157 46 20 31.3197 20 31.3197C35.809 41.7594 46.6095 34.3602 46.6095 34.3602C39.474 30.2253 24.3319 10.4307 24.3319 10.4307C37.531 21.683 43.2252 24.6365 43.2252 24.6365C39.8026 21.8284 30.2594 8.06797 30.2594 8.06797C37.8978 15.8054 53.0782 26.5936 53.0782 26.5936C57.4295 14.6727 48.9692 4.00065 48.9692 4.00065L48.9686 4Z" fill="#ADADAD"/>
</svg>
