<svg width="86" height="49" viewBox="0 0 86 49" fill="none" xmlns="http://www.w3.org/2000/svg">
<path d="M43.4373 46.1305C31.8127 46.1305 21.9538 36.3121 21.8638 24.6128C21.8436 21.7909 22.3836 18.993 23.4526 16.3813C24.5216 13.7697 26.0984 11.3962 28.0914 9.39835C30.098 7.34331 32.4929 5.70747 35.1371 4.58586C37.7812 3.46425 40.6218 2.87922 43.494 2.86476C46.314 2.86218 49.1067 3.41763 51.7111 4.49912C54.3155 5.58061 56.6802 7.16675 58.6689 9.16617C60.6908 11.137 62.3028 13.4886 63.4118 16.0853C64.5208 18.682 65.1049 21.4725 65.1305 24.296C65.1562 30.04 62.9075 35.5607 58.8756 39.6519C54.8438 43.7431 49.3565 46.0723 43.6128 46.1305H43.4373ZM43.5048 3.99689C40.7832 4.01292 38.0919 4.56929 35.5871 5.63371C33.0822 6.69812 30.8137 8.24939 28.9131 10.1975C27.0226 12.0874 25.5261 14.3339 24.5104 16.8065C23.4947 19.2792 22.9799 21.9289 22.996 24.602C23.0806 35.6893 32.4238 44.9867 43.4319 44.9867H43.5786C49.0248 44.9375 54.23 42.734 58.0563 38.858C61.8826 34.982 64.0186 29.7487 63.9974 24.3023C63.9721 21.6274 63.4177 18.984 62.3661 16.5243C61.3146 14.0646 59.7868 11.8373 57.8706 9.97072C55.9906 8.07402 53.7528 6.56933 51.287 5.54388C48.8211 4.51843 46.1754 3.9926 43.5048 3.99689Z" fill="#ADADAD"/>
<path fill-rule="evenodd" clip-rule="evenodd" d="M21.0006 24.6201C20.9796 21.684 21.5416 18.773 22.6538 16.0557C23.7661 13.3384 25.4066 10.8688 27.4802 8.79009C29.5666 6.65456 32.0564 4.95467 34.805 3.78906C37.5537 2.62345 40.5064 2.01534 43.492 2.00001H43.4956C46.4288 1.99737 49.3335 2.57496 52.0426 3.69952C54.7517 4.82407 57.2116 6.47339 59.2806 8.5525C61.3828 10.6029 63.0585 13.0489 64.2113 15.7496C65.3642 18.4504 65.9713 21.3525 65.9978 24.2889V24.2925C66.0245 30.2649 63.6865 36.0051 59.4945 40.2591C55.3025 44.5132 49.5973 46.9353 43.6252 46.9963H43.4398C31.3355 46.9963 21.0942 36.791 21.0006 24.6201ZM58.6722 9.16627C56.6835 7.16662 54.3187 5.58028 51.7141 4.49863C49.1096 3.41699 46.3167 2.86143 43.4965 2.86396C40.6244 2.87875 37.7839 3.46403 35.14 4.58579C32.496 5.70755 30.1013 7.34344 28.0948 9.39845C26.1014 11.3962 24.5244 13.7699 23.4552 16.3817C22.386 18.9936 21.8459 21.7917 21.8663 24.6138C21.9563 36.3122 31.8152 46.1315 43.4398 46.1315H43.6153C49.3592 46.0733 54.8465 43.744 58.8784 39.6526C62.9103 35.5612 65.1589 30.0403 65.1329 24.2961C65.1075 21.4726 64.5235 18.6821 63.4145 16.0853C62.3055 13.4886 60.6943 11.1371 58.6722 9.16627ZM28.9147 10.1967C27.0241 12.0867 25.5275 14.3333 24.5118 16.8061C23.4961 19.279 22.9814 21.9289 22.9975 24.6021C23.0821 35.6894 32.4254 44.9868 43.4335 44.9868H43.5802C49.0265 44.9378 54.232 42.7344 58.0584 38.8584C61.8849 34.9824 64.0211 29.749 63.9999 24.3024C63.9744 21.6275 63.4199 18.984 62.3682 16.5243C61.3165 14.0646 59.7885 11.8373 57.8722 9.97082C55.9923 8.07423 53.7546 6.5696 51.289 5.54415C48.8233 4.51871 46.1786 3.99282 43.5082 3.99699C40.7864 4.0129 38.095 4.56921 35.5899 5.63363C33.0849 6.69805 30.8162 8.24939 28.9156 10.1976L28.9147 10.1967ZM43.51 4.86183C46.0658 4.85802 48.597 5.36149 50.9569 6.34306C53.3167 7.32464 55.4583 8.7648 57.2575 10.5801L57.2629 10.5855L57.2683 10.5909C59.1024 12.3776 60.565 14.5095 61.5717 16.8638C62.5784 19.2181 63.1094 21.7483 63.1342 24.3087C63.1537 29.5253 61.1075 34.5375 57.4428 38.2501C53.7782 41.9626 48.7929 44.0737 43.5766 44.1219H43.4326C32.905 44.1219 23.9443 35.2116 23.8633 24.5967C23.848 22.0382 24.3407 19.5021 25.3129 17.1354C26.285 14.7687 27.7173 12.6186 29.5266 10.8096L29.5338 10.8006C31.3543 8.93476 33.5271 7.44902 35.9263 6.42957C38.3255 5.41011 40.9032 4.87723 43.51 4.86183Z" fill="#ADADAD"/>
<path d="M26.7168 30.8258V18.187H29.791V19.3191H28.1603V29.7161H29.7919V30.8483L26.7168 30.8258ZM37.1526 24.3822C37.1526 26.686 35.754 27.9999 33.857 27.9999C31.9608 27.9999 30.6982 26.5222 30.6982 24.501C30.6982 22.3888 32.0229 20.8994 33.9587 20.8994C35.8953 20.8994 37.1526 22.4509 37.1526 24.3822ZM32.0229 24.4839C32.0229 25.8824 32.7248 26.992 33.9308 26.992C35.1367 26.992 35.8278 25.8599 35.8278 24.4326C35.8278 23.1366 35.188 21.9127 33.9308 21.9127C32.6735 21.9127 32.0112 23.097 32.0112 24.5127L32.0229 24.4839ZM38.2172 21.137C38.8202 21.0335 39.4294 20.9822 40.0405 20.984C40.7271 20.917 41.4172 21.0698 42.0114 21.4205C42.2341 21.5516 42.4177 21.7399 42.5431 21.9659C42.6686 22.1918 42.7314 22.4472 42.725 22.7056C42.7169 23.0415 42.603 23.3663 42.3996 23.6337C42.1962 23.9011 41.9135 24.0975 41.592 24.195C41.9838 24.2745 42.3361 24.4872 42.5891 24.7969C42.842 25.1066 42.98 25.4942 42.9797 25.8941C42.9841 26.1649 42.9268 26.4331 42.812 26.6784C42.6972 26.9237 42.5281 27.1396 42.3173 27.3097C41.8305 27.7399 41.0205 27.9487 39.7687 27.9487C39.2539 27.9523 38.7401 27.9217 38.2289 27.8587L38.2172 21.137ZM39.4627 23.8494H40.1026C40.9692 23.8494 41.4561 23.4417 41.4561 22.8595C41.4561 22.2754 40.9701 21.919 40.171 21.919C39.9316 21.91 39.6931 21.928 39.4573 21.9694L39.4627 23.8494ZM39.4627 27.0091C39.6832 27.0316 39.9037 27.0415 40.126 27.0379C40.9296 27.0379 41.6433 26.7319 41.6433 25.9049C41.6433 25.0787 40.9521 24.7727 40.0864 24.7727H39.4627V27.0091ZM45.4536 21.047H46.7046V25.5143C46.7046 27.4114 45.7875 28.0458 44.4403 28.0458C44.0797 28.0427 43.7221 27.9813 43.3811 27.8641L43.5341 26.8561C43.786 26.9353 44.047 26.9767 44.3098 26.9812C45.0235 26.9812 45.4419 26.6527 45.4419 25.4639L45.4536 21.047ZM50.2665 24.7664V25.6331H47.6621V24.7664H50.2665ZM56.3484 27.712C55.7852 27.9366 55.1813 28.0408 54.5755 28.0179C52.3958 28.0179 51.0711 26.6527 51.0711 24.564C51.0452 24.0771 51.1227 23.5902 51.2985 23.1354C51.4742 22.6807 51.7443 22.2682 52.0909 21.9253C52.4374 21.5824 52.8527 21.3167 53.3093 21.1458C53.766 20.9749 54.2536 20.9025 54.7402 20.9336C55.3221 20.9095 55.9022 21.014 56.4393 21.2396L56.1621 22.2358C55.736 22.0547 55.2769 21.9643 54.814 21.9703C53.4155 21.9703 52.4075 22.8478 52.4075 24.501C52.4075 26.0075 53.2967 26.9812 54.8023 26.9812C55.2698 26.9881 55.7339 26.9015 56.1675 26.7265L56.3484 27.712ZM60.2784 18.1528V30.8258H57.2033V29.6936H58.834V19.2858H57.2033V18.1519H60.2775L60.2784 18.1528Z" fill="#ADADAD"/>
</svg>
