<svg width="86" height="49" viewBox="0 0 86 49" fill="none" xmlns="http://www.w3.org/2000/svg">
<path d="M13.7651 27.4725C12.9582 29.3251 11.6965 30.1526 9.67332 30.1526C5.98386 30.1526 4.6722 27.0337 4.6722 24.365C4.6722 21.6962 5.96113 18.5364 9.58921 18.5364C11.7647 18.5364 13.0582 19.3956 13.7834 21.3188L13.8652 21.5462H15.6701L15.5837 21.1346C15.0223 18.4591 12.8059 16.8633 9.65287 16.8633C4.91545 16.8633 2.75586 20.7642 2.75586 24.3877C2.75586 28.841 5.52011 31.8325 9.63241 31.8325C12.6058 31.8325 14.7108 30.3709 15.5542 27.7157L15.6951 27.2611H13.8561L13.7651 27.4725Z" fill="#ADADAD"/>
<path d="M21.8911 20.7974C18.8359 20.7974 16.7832 23.0297 16.7832 26.3531C16.7832 29.6766 18.7928 31.9089 21.7843 31.9089C25.3237 31.9089 26.9355 29.0173 26.9355 26.3327C26.9355 23.0229 24.9078 20.7974 21.8911 20.7974ZM21.8707 30.2904C19.9407 30.2904 18.5926 28.6718 18.5926 26.3531C18.5926 23.8866 19.802 22.4158 21.8275 22.4158C24.2621 22.4158 25.126 24.5368 25.126 26.3531C25.126 28.7854 23.878 30.2904 21.8707 30.2904Z" fill="#ADADAD"/>
<path d="M39.9815 20.7984C38.1516 20.7984 37.1173 21.6417 36.5604 22.3896C35.9648 21.3826 34.8372 20.7984 33.4278 20.7984C32.8896 20.7786 32.3537 20.8777 31.8583 21.0887C31.3628 21.2997 30.9199 21.6173 30.5612 22.0191C30.5612 21.7599 30.5385 21.5236 30.5271 21.3576L30.5067 21.0371H28.7949V21.3894C28.8154 22.1601 28.8154 23.108 28.8154 23.9468V31.6758H30.5612V25.8563C30.5612 24.2128 31.2774 22.4464 33.2891 22.4464C34.7304 22.4464 35.3737 23.208 35.3737 24.9129V31.6599H37.0991V25.604C37.0991 23.6376 38.0925 22.4624 39.7587 22.4624C41.1841 22.4624 41.907 23.2853 41.907 24.9084V31.6758H43.6528V24.7879C43.6642 22.2873 42.2889 20.7984 39.9815 20.7984Z" fill="#ADADAD"/>
<path d="M51.4577 20.7981C49.8187 20.7981 48.7957 21.3437 48.1592 21.9961V16.313H46.4111V27.9065C46.4111 29.0203 46.4111 30.1797 46.3906 31.3164V31.6619H48.0979L48.1206 31.3481C48.1206 31.2299 48.1388 31.0435 48.1479 30.8162C48.8457 31.5459 49.8506 31.9029 51.1872 31.9029C54.2129 31.9029 56.1679 29.6296 56.1679 26.1288C56.161 22.994 54.2265 20.7981 51.4577 20.7981ZM51.2304 30.2911C49.1254 30.2911 48.1001 29.009 48.1001 26.3743C48.1001 23.6737 49.1367 22.4166 51.3577 22.4166C53.1763 22.4166 54.3584 23.8828 54.3584 26.1538C54.3516 28.7453 53.1808 30.2911 51.2235 30.2911H51.2304Z" fill="#ADADAD"/>
<path d="M59.8806 21.0386H58.1348V31.6706H59.8806V21.0386Z" fill="#ADADAD"/>
<path d="M67.5651 20.7974C66.1715 20.7974 65.1168 21.2247 64.3825 22.0954C64.3825 21.7725 64.3597 21.477 64.3393 21.3338L64.3007 21.036H62.6094V21.3861C62.6298 22.1795 62.6298 23.0069 62.6298 23.8866V31.6702H64.3757V26.2531C64.3757 24.8346 64.7735 22.4545 67.44 22.4545C68.9881 22.4545 69.7383 23.3001 69.7383 25.0391V31.668H71.4773V24.88C71.4773 22.325 70.0178 20.7974 67.5651 20.7974Z" fill="#ADADAD"/>
<path d="M78.3368 20.7974C75.3248 20.7974 73.3789 23.0092 73.3789 26.4327C73.3789 28.9583 74.6428 31.9089 78.2095 31.9089C81.2397 31.9089 82.34 30.0039 82.7264 28.8719L82.8787 28.4172H81.1011L81.0078 28.6127C80.6192 29.4425 79.9872 30.2881 78.2527 30.2881C76.45 30.2881 75.2838 28.9651 75.1566 26.8123H82.9515L82.9765 26.4986C82.9993 26.2259 82.9993 25.9349 82.9993 25.6552C82.9993 23.8526 82.0172 20.7974 78.3368 20.7974ZM78.2981 22.4204C79.9417 22.4204 81.051 23.523 81.1965 25.2597H75.2611C75.5703 23.3456 76.5705 22.4204 78.2981 22.4204Z" fill="#ADADAD"/>
<path d="M59.0083 18.9355C59.7302 18.9355 60.3154 18.3503 60.3154 17.6284C60.3154 16.9065 59.7302 16.3213 59.0083 16.3213C58.2864 16.3213 57.7012 16.9065 57.7012 17.6284C57.7012 18.3503 58.2864 18.9355 59.0083 18.9355Z" fill="#ADADAD"/>
</svg>
