<svg width="86" height="49" viewBox="0 0 86 49" fill="none" xmlns="http://www.w3.org/2000/svg">
<path d="M56.8806 48H30.1194C24.5303 48 20 43.4697 20 37.8806V23.8068L39.5834 1H56.8794C62.4697 1 67 5.53028 67 11.1194V37.8794C67 43.4697 62.4697 48 56.8806 48Z" fill="url(#paint0_radial_11469_19024)"/>
<path d="M39.5834 1L20 23.8067C25.6465 31.315 39.3392 36.5751 48.3149 28.3344C53.5371 21.8066 50.5186 11.1167 46.6007 7.60872C44.6332 5.84622 42.278 3.31084 39.5834 1Z" fill="#9A9A9A"/>
<path d="M39.5834 1L20 21.475V23.8067C26.6309 28.9676 36.9787 31.0004 44.235 24.3368C49.4572 17.809 46.4388 7.11914 42.5209 3.61111C41.6892 2.86695 40.6905 1.95959 39.5834 1Z" fill="#A3A3A3"/>
<path d="M20 17.2894V21.475C26.1179 24.0535 33.4668 24.0418 39.0128 18.9514C43.2219 13.69 42.2375 5.72872 39.5834 1H35.4709L20 17.2894Z" fill="#BCBCBC"/>
<path d="M30.1194 1C24.5303 1 20 5.53028 20 11.1194V17.2894C24.5381 17.7881 29.2107 16.6901 33.0281 13.1848C35.7946 9.72637 36.2398 5.10597 35.4709 1H30.1194Z" fill="#DBDBDB"/>
<path d="M28.6267 12.5806C28.6267 12.5806 37.5476 26.0631 45.0479 30.6235C42.2097 31.536 36.0474 35.2647 25.3027 28.6755C28.0392 32.4264 32.8841 39.949 44.7438 39.2401C48.8993 39.0377 51.4334 37.7191 53.7652 36.8078C56.0968 35.8966 58.3268 35.9971 60.2524 39.4437C60.6584 36.3012 60.7591 33.3612 57.5161 30.0163C57.5161 30.0163 60.7224 17.7925 47.0703 8.14697C49.9086 13.8235 51.5522 17.0247 50.2179 24.8463C47.1773 22.8188 35.9469 13.7752 33.4128 10.8351C35.2381 14.0795 40.4877 21.196 42.3116 23.0212C39.0686 20.7912 28.6267 12.5806 28.6267 12.5806Z" fill="#7B7B7B"/>
<defs>
<radialGradient id="paint0_radial_11469_19024" cx="0" cy="0" r="1" gradientUnits="userSpaceOnUse" gradientTransform="translate(43.423 -1.07373) scale(71.0196 42.9242)">
<stop offset="0.202" stop-color="#DBDBDB"/>
<stop offset="0.29" stop-color="#DBDBDB"/>
<stop offset="0.468" stop-color="#BCBCBC"/>
<stop offset="0.717" stop-color="#A9A9A9"/>
<stop offset="0.857" stop-color="#A3A3A3"/>
<stop offset="1" stop-color="#9E9E9E"/>
</radialGradient>
</defs>
</svg>
