<svg width="48" height="48" viewBox="0 0 48 48" fill="none" xmlns="http://www.w3.org/2000/svg">
<path d="M17.6655 6.57996L9.58808 9.15967L15.4664 12.7544L24.0937 9.498L18.173 6.66454C18.0303 6.59053 17.8083 6.57996 17.6655 6.57996ZM8.86914 10.4284L10.6453 19.0133C10.6453 19.1561 10.7986 19.2935 10.9414 19.4362L16.1008 23.4961L14.7052 13.9808L8.86914 10.4284ZM24.7281 10.7667L16.1854 13.9808L17.6233 23.4115L24.7281 19.7323C24.9395 19.6583 25.0664 19.3834 25.0664 19.0979L24.7281 10.7667ZM33.1861 19.0556C33.0593 19.0556 32.9112 19.1138 32.8055 19.1825L28.7879 21.7199L33.4822 24.638L37.7958 21.5085L33.5245 19.1825C33.4187 19.1138 33.313 19.0556 33.1861 19.0556ZM11.1951 21.4239L12.7176 28.9516C12.7176 29.0943 12.7863 29.2582 12.929 29.3322L17.6233 33.7304L16.4814 25.6106L11.1951 21.4239ZM25.151 21.4239L18.0462 25.4838L19.0188 33.7304L25.151 29.6282C25.3624 29.4855 25.521 29.2371 25.447 28.9516L25.151 21.4239ZM38.6416 22.6503L38.5147 22.7772C38.4407 22.8512 38.4566 22.9464 38.3879 22.9464L34.0319 25.9067L33.8205 30.474V30.7278L37.7112 27.6829C37.8539 27.5401 37.9385 27.4027 38.0072 27.26L38.6416 22.6503ZM27.2655 22.7349C27.1333 22.7349 26.9853 22.793 26.8426 22.8618L26.7157 22.9464L26.9272 28.9516C26.9272 29.0943 26.9166 29.3163 26.8426 29.4591L31.9597 25.6952L27.6461 22.8618C27.5404 22.793 27.3976 22.7349 27.2655 22.7349ZM32.7632 26.8371L27.054 30.8124L27.2232 35.7181V36.0987L32.1712 32.1657C32.3139 32.0229 32.4672 31.8696 32.4672 31.6582L32.7632 26.8371ZM13.3519 31.2353L14.4092 36.9445C14.4092 37.0872 14.4779 37.1401 14.6206 37.2828L18.892 41.7656L18.7651 41.4696L17.8347 35.5912L13.3519 31.2353ZM25.7007 31.3199L19.3149 35.422L20.1607 41.3427L20.2453 41.7656L25.5739 37.4943C25.7853 37.3515 25.8699 37.1559 25.8699 36.9445L25.7007 31.3199Z" fill="#0B0C0D"/>
</svg>
