<svg width="48" height="48" viewBox="0 0 48 48" fill="none" xmlns="http://www.w3.org/2000/svg">
<path d="M24.4767 16.3763C23.7868 17.7561 24.1303 18.905 25.0511 18.905C25.972 18.905 27.3503 17.8701 28.0388 16.4917C28.7272 15.1134 28.3852 13.963 27.4643 13.963C26.545 13.8476 25.1651 14.9979 24.4767 16.3763ZM32.4077 11.4344C31.8333 13.1591 30.9139 14.9993 29.879 16.3763C27.8107 19.3639 24.9371 21.2042 23.4418 20.6297C21.8325 19.9398 22.293 16.9521 24.2458 13.9616C24.6797 13.2993 25.1802 12.6832 25.7396 12.1228L23.7853 12.4692C17.0018 20.8606 14.1151 31.6653 14.5914 41.3211C10.5689 39.7118 7.69527 35.8033 7.35032 30.8614C6.77588 22.1264 13.672 13.1606 22.8659 10.8614C26.3155 10.0574 29.6495 10.2869 32.3918 11.4358L32.4077 11.4344Z" fill="#0B0C0D"/>
<path d="M29.8936 34.9993L27.8253 36.2637C27.7099 34.1954 27.2509 32.1257 26.4455 30.4009C24.3773 25.918 20.6983 25.573 18.285 29.597C16.7912 32.1257 16.1013 35.6878 16.3308 39.1229C18.8595 39.9268 21.8486 40.0423 24.9517 39.2383C34.0446 36.9391 41.0447 27.9747 40.4673 19.2383C40.1209 11.5368 34.0301 6.5949 26.4441 7.05387C25.7542 7.8578 25.0643 8.5477 24.3758 9.35307C28.8588 8.77863 32.4223 9.69947 34.7201 11.5368C26.6736 23.0314 27.7084 29.4671 29.8922 34.9849L29.8936 34.9993Z" fill="#0B0C0D"/>
</svg>
