<svg width="48" height="48" viewBox="0 0 48 48" fill="none" xmlns="http://www.w3.org/2000/svg">
<path fill-rule="evenodd" clip-rule="evenodd" d="M15.934 42C15.0965 42 14.284 41.6175 13.749 40.9225L5.61397 30.4925C5.34627 30.1516 5.1591 29.7547 5.06645 29.3313C4.9738 28.9079 4.97809 28.469 5.07897 28.0475L7.99147 15.03C8.17647 14.1675 8.73647 13.4725 9.50397 13.09L21.2915 7.29C21.6665 7.095 22.084 7 22.504 7C22.924 7 23.3415 7.095 23.7165 7.2875L35.499 13.065C36.269 13.4475 36.829 14.145 37.014 15.0075L39.9265 28.025C40.1115 28.8875 39.9265 29.775 39.3915 30.47L31.249 40.915C30.714 41.585 29.899 42 29.0615 42H15.934ZM35.229 27.4125L35.3065 27.4325C35.412 27.4466 35.5134 27.4825 35.6043 27.5378C35.6952 27.5931 35.7737 27.6666 35.8348 27.7538C35.8959 27.8409 35.9382 27.9398 35.9592 28.0441C35.9801 28.1485 35.9792 28.256 35.9565 28.36C35.933 28.4645 35.8878 28.5629 35.8239 28.6488C35.76 28.7348 35.6788 28.8063 35.5854 28.8589C35.4921 28.9114 35.3888 28.9438 35.2822 28.9539C35.1756 28.964 35.068 28.9516 34.9665 28.9175H34.9565L34.949 28.915L34.9415 28.9125L34.8665 28.895L34.7415 28.87C34.5082 28.7949 34.2795 28.7064 34.0565 28.605C33.626 28.4322 33.1797 28.3016 32.724 28.215C32.5664 28.2098 32.413 28.2663 32.2965 28.3725C32.1876 28.3518 32.0784 28.3326 31.969 28.315C31.2276 30.6371 29.6579 32.6054 27.559 33.845C27.5965 33.95 27.639 34.0525 27.6865 34.1525C27.6089 34.2891 27.5882 34.4508 27.629 34.6025C27.814 35.0275 28.0415 35.4325 28.3065 35.8125C28.4565 36.0075 28.5915 36.2125 28.7165 36.4225L28.7865 36.565L28.8165 36.6275C28.8999 36.7658 28.9375 36.927 28.9237 37.0879C28.9099 37.2489 28.8455 37.4014 28.7398 37.5235C28.634 37.6456 28.4924 37.7311 28.335 37.7678C28.1777 37.8044 28.0128 37.7903 27.864 37.7275C27.7648 37.6867 27.6754 37.6256 27.6013 37.548C27.5272 37.4705 27.4702 37.3784 27.434 37.2775C27.4257 37.2608 27.4174 37.2441 27.409 37.2275L27.339 37.0825C27.2514 36.8536 27.1771 36.6199 27.1165 36.3825C26.9836 35.9397 26.8078 35.511 26.5915 35.1025C26.4975 34.9754 26.3575 34.8902 26.2015 34.865C26.1762 34.821 26.1512 34.7768 26.1265 34.7325L26.039 34.5725C23.763 35.4322 21.2506 35.4259 18.979 34.555L18.8065 34.8675C18.6829 34.8865 18.5679 34.9422 18.4765 35.0275C18.2165 35.4525 18.0165 35.915 17.884 36.3975C17.8243 36.6349 17.7508 36.8686 17.664 37.0975L17.6015 37.2225L17.569 37.29C17.5323 37.3901 17.4753 37.484 17.4013 37.5609C17.3274 37.6377 17.2383 37.6983 17.1397 37.7388C17.041 37.7793 16.935 37.7988 16.8285 37.7961C16.7219 37.7934 16.617 37.7684 16.5206 37.7229C16.4242 37.6774 16.3383 37.6123 16.2684 37.5318C16.1986 37.4512 16.1462 37.357 16.1148 37.2551C16.0834 37.1532 16.0735 37.0459 16.0858 36.94C16.0982 36.8341 16.1325 36.7319 16.1865 36.64L16.2215 36.565L16.2865 36.435C16.4115 36.2225 16.5465 36.02 16.6965 35.825C16.9665 35.435 17.1965 35.02 17.389 34.585C17.4089 34.4371 17.3845 34.2866 17.319 34.1525L17.459 33.82C15.3677 32.5902 13.799 30.6373 13.049 28.33L12.714 28.3875C12.5846 28.2958 12.4322 28.2421 12.274 28.2325C11.8183 28.3191 11.372 28.4498 10.9415 28.6225C10.7165 28.7225 10.489 28.81 10.2565 28.885L10.1315 28.9125L10.0565 28.93H10.049L10.044 28.935H10.0315C9.90471 28.9757 9.76958 28.9828 9.63925 28.9556C9.50892 28.9285 9.38786 28.868 9.28788 28.7801C9.1879 28.6922 9.11241 28.5799 9.06879 28.4541C9.02516 28.3284 9.01489 28.1934 9.03897 28.0625C9.06966 27.9048 9.1492 27.7608 9.26631 27.6509C9.38343 27.5409 9.53218 27.4707 9.69147 27.45L9.70147 27.4475H9.70897L9.72397 27.4425C9.78397 27.4275 9.85897 27.4075 9.91397 27.3975C10.1565 27.365 10.4015 27.345 10.6465 27.34C11.1115 27.3075 11.5715 27.2325 12.019 27.115C12.1516 27.03 12.2635 26.9164 12.3465 26.7825L12.6665 26.69C12.3187 24.2827 12.8744 21.8319 14.2265 19.81L13.984 19.5925C13.9746 19.4342 13.9209 19.2817 13.829 19.1525C13.4767 18.8503 13.0957 18.5832 12.6915 18.355C12.4729 18.2439 12.2609 18.1204 12.0565 17.985C12.0025 17.9452 11.95 17.9035 11.899 17.86L11.889 17.85C11.7148 17.7259 11.5969 17.5377 11.5613 17.3268C11.5257 17.1159 11.5752 16.8994 11.699 16.725C11.7725 16.6357 11.8661 16.5649 11.9721 16.5185C12.078 16.472 12.1934 16.4511 12.309 16.4575C12.5032 16.4657 12.6898 16.5358 12.8415 16.6575L12.8965 16.7C12.9365 16.7325 12.9815 16.765 13.0115 16.7925C13.189 16.96 13.359 17.14 13.5165 17.325C13.829 17.6675 14.174 17.98 14.5465 18.255C14.6865 18.33 14.849 18.345 15.0015 18.3L15.2765 18.495C16.9504 16.7196 19.2241 15.6291 21.6565 15.435L21.674 15.1125C21.793 15.0082 21.8798 14.872 21.924 14.72C21.9409 14.2567 21.9124 13.7928 21.839 13.335C21.7901 13.0955 21.7551 12.8535 21.734 12.61V12.4775V12.415V12.405V12.395C21.7227 12.288 21.7342 12.1799 21.7675 12.0776C21.8009 11.9754 21.8555 11.8813 21.9277 11.8016C21.9999 11.7218 22.088 11.6582 22.1865 11.6149C22.2849 11.5715 22.3914 11.5494 22.499 11.55C22.6061 11.5502 22.7119 11.5728 22.8098 11.6162C22.9077 11.6597 22.9955 11.7231 23.0675 11.8024C23.1394 11.8817 23.1941 11.9751 23.228 12.0767C23.2618 12.1783 23.2741 12.2859 23.264 12.3925V12.61C23.2438 12.8534 23.2096 13.0955 23.1615 13.335C23.0875 13.7919 23.0582 14.2549 23.074 14.7175C23.1041 14.8728 23.1938 15.0101 23.324 15.1V15.1175L23.3415 15.4425C25.759 15.66 28.0165 16.7475 29.6915 18.5L29.9815 18.2925C30.1381 18.3196 30.2992 18.3023 30.4465 18.2425C30.819 17.9675 31.164 17.655 31.4765 17.31C31.6344 17.1229 31.803 16.9451 31.9815 16.7775L32.109 16.6775L32.1515 16.6425C32.2878 16.5141 32.4663 16.4398 32.6534 16.4335C32.8406 16.4272 33.0236 16.4893 33.1683 16.6083C33.313 16.7272 33.4093 16.8948 33.4394 17.0796C33.4694 17.2644 33.431 17.4539 33.3315 17.6125C33.273 17.7024 33.1964 17.779 33.1065 17.8375C33.0865 17.85 33.064 17.8675 33.044 17.8875L32.9365 17.97C32.7321 18.1054 32.5201 18.229 32.3015 18.34C31.8973 18.5691 31.5163 18.8371 31.164 19.14C31.0612 19.2588 31.0091 19.4132 31.019 19.57C30.9776 19.607 30.9359 19.6436 30.894 19.68L30.749 19.8125C32.104 21.8275 32.6715 24.27 32.3415 26.675L32.649 26.765C32.7265 26.905 32.8415 27.0175 32.979 27.095C33.429 27.215 33.889 27.29 34.354 27.32C34.5965 27.3275 34.8415 27.345 35.084 27.38L35.229 27.4125ZM28.0415 19.6625L24.7715 21.975L24.7615 21.97C24.6631 22.0426 24.5468 22.0871 24.425 22.0987C24.3033 22.1104 24.1807 22.0887 24.0703 22.0361C23.9599 21.9835 23.8659 21.9018 23.7983 21.7999C23.7307 21.698 23.692 21.5797 23.6865 21.4575L23.459 17.46C25.1865 17.674 26.7963 18.4461 28.0415 19.6625ZM21.884 24.045H23.114L23.879 24.9975L23.604 26.1875L22.499 26.715L21.3915 26.1825L21.1165 24.995L21.884 24.045ZM20.724 17.6C20.9915 17.54 21.264 17.4925 21.539 17.46L21.314 21.46L21.294 21.47C21.2903 21.561 21.2681 21.6502 21.2288 21.7323C21.1895 21.8144 21.1339 21.8876 21.0654 21.9475C20.9968 22.0074 20.9168 22.0527 20.8301 22.0806C20.7435 22.1086 20.6521 22.1186 20.5615 22.11C20.4397 22.0996 20.3231 22.0564 20.224 21.985L20.219 21.9875L16.929 19.6625C17.9765 18.6375 19.2915 17.9225 20.724 17.6ZM15.739 21.1575L18.7415 23.835L18.739 23.8525C18.8305 23.9325 18.8987 24.0358 18.9361 24.1515C18.9736 24.2671 18.9791 24.3908 18.9519 24.5093C18.9247 24.6277 18.8659 24.7367 18.7817 24.8244C18.6976 24.9121 18.5912 24.9754 18.474 25.0075L18.4715 25.02L14.6215 26.1275C14.43 24.3926 14.8233 22.6434 15.739 21.1575ZM19.759 28.2725L18.229 31.9575C16.763 31.0214 15.647 29.6277 15.054 27.9925L18.999 27.325L19.0065 27.3325C19.1603 27.3027 19.3198 27.3284 19.4565 27.405C19.6017 27.4861 19.7119 27.618 19.7658 27.7753C19.8198 27.9326 19.8138 28.1043 19.749 28.2575L19.759 28.2725ZM24.274 33.0125C22.844 33.3375 21.349 33.2625 19.959 32.7925L21.9015 29.2925C21.9591 29.1853 22.0472 29.0958 22.1516 29.0332C22.2559 28.9707 22.3753 28.9376 22.497 28.9373C22.6187 28.9371 22.7381 28.9697 22.8428 29.0318C22.9474 29.0939 23.0334 29.1831 23.0915 29.29H23.1065L25.054 32.795C24.7977 32.8803 24.5374 32.9529 24.274 33.0125ZM26.784 31.9725L25.239 28.25L25.2415 28.2425C25.1939 28.1307 25.1774 28.0081 25.1939 27.8878C25.2104 27.7674 25.2592 27.6537 25.3351 27.5589C25.411 27.464 25.5111 27.3915 25.6249 27.349C25.7388 27.3065 25.862 27.2956 25.9815 27.3175L25.989 27.3075L29.9715 27.98C29.3827 29.6284 28.261 31.0333 26.784 31.9725ZM30.389 26.115L26.524 25.0025L26.519 24.9875C26.4313 24.9632 26.3494 24.9215 26.2782 24.8647C26.207 24.808 26.1481 24.7375 26.1049 24.6574C26.0617 24.5773 26.0351 24.4893 26.0268 24.3986C26.0185 24.308 26.0286 24.2166 26.0565 24.13C26.0947 24.0137 26.1638 23.91 26.2565 23.83L26.249 23.825L29.2365 21.1575C30.1515 22.6425 30.554 24.3825 30.3865 26.115H30.389Z" fill="#0B0C0D"/>
</svg>
