<svg width="48" height="48" viewBox="0 0 48 48" fill="none" xmlns="http://www.w3.org/2000/svg">
<path d="M31.1514 7.12524C29.8401 7.135 28.5364 7.3257 27.2772 7.69196L27.1886 7.72009C26.3944 7.57973 25.5903 7.50214 24.7839 7.48806C23.1274 7.45993 21.7042 7.86212 20.5567 8.53149C19.4261 8.13915 17.0805 7.46274 14.6083 7.59774C12.887 7.69196 11.0083 8.21509 9.61611 9.68462C8.22814 11.1542 7.49408 13.4281 7.64877 16.5218C7.69096 17.3754 7.93424 18.7676 8.33783 20.5704C8.74142 22.3732 9.30814 24.484 10.0155 26.4091C10.7228 28.3357 11.4977 30.0654 12.7085 31.241C13.3131 31.8302 14.1456 32.3252 15.1272 32.2845C15.8163 32.2563 16.4392 31.954 16.9764 31.5082C17.238 31.8527 17.5178 32.0032 17.7724 32.1424C18.093 32.3182 18.4052 32.4377 18.7286 32.5165C19.3094 32.6613 20.3036 32.8554 21.468 32.6571C21.8645 32.591 22.2822 32.4616 22.6985 32.2774C22.7139 32.7415 22.7322 33.1957 22.7505 33.6556C22.8081 35.1124 22.8447 36.4582 23.282 37.6381C23.3524 37.8307 23.545 38.8235 24.3044 39.6996C25.0638 40.5771 26.5516 41.1241 28.2461 40.7613C29.4414 40.5054 30.9616 40.0441 31.9713 38.607C32.9697 37.1866 33.4197 35.149 33.5083 31.8443C33.5308 31.6657 33.5575 31.5138 33.5856 31.3718L33.8233 31.3929H33.8514C35.1269 31.4506 36.5106 31.2691 37.6666 30.732C38.6903 30.2581 39.4652 29.7785 40.0291 28.9277C40.1697 28.7168 40.3244 28.4623 40.3666 28.0235C40.4088 27.5848 40.1571 26.8985 39.7394 26.5821C38.9027 25.9465 38.3767 26.1884 37.8128 26.3051C37.2573 26.4279 36.6913 26.4967 36.1225 26.5104C37.7481 23.7724 38.9139 20.8643 39.5791 18.2909C39.9728 16.7721 40.1936 15.3715 40.2119 14.1466C40.2302 12.9218 40.1303 11.8376 39.3963 10.8996C37.1027 7.96899 33.8781 7.15899 31.3835 7.13087C31.3061 7.12946 31.2288 7.12806 31.1514 7.12946V7.12524ZM31.0853 8.02524C33.445 8.00274 36.46 8.66509 38.6242 11.4312C39.1108 12.0527 39.2556 12.9612 39.2388 14.0806C39.2205 15.1985 39.0138 16.5373 38.6355 18.004C37.9014 20.8446 36.5149 24.1563 34.5616 27.1277C34.6306 27.1768 34.7052 27.2174 34.7838 27.2487C35.1916 27.4174 36.1211 27.5623 37.976 27.1812C38.4428 27.0827 38.7846 27.0166 39.1389 27.2866C39.225 27.3596 39.2931 27.4516 39.3377 27.5553C39.3824 27.659 39.4024 27.7716 39.3963 27.8843C39.3773 28.055 39.3143 28.2178 39.2135 28.3568C38.8549 28.8954 38.1475 29.4059 37.2405 29.8263C36.4375 30.2004 35.2858 30.3959 34.2649 30.4071C33.753 30.4127 33.2805 30.3734 32.8797 30.2482L32.8544 30.2384C32.6997 31.729 32.3439 34.6723 32.1119 36.0152C31.9263 37.0981 31.6014 37.9587 30.9813 38.6027C30.3625 39.2468 29.4864 39.6349 28.308 39.8881C26.8483 40.2016 25.7838 39.8641 25.0975 39.2862C24.4127 38.7096 24.0991 37.9446 23.9106 37.4763C23.7813 37.1529 23.7138 36.7338 23.6491 36.1741C23.5844 35.6145 23.5366 34.9296 23.5042 34.1576C23.4612 32.9755 23.4471 31.7924 23.462 30.6096C22.8523 31.1681 22.0946 31.5391 21.2795 31.6784C20.3106 31.8429 19.4458 31.6812 18.9297 31.5518C18.6753 31.4879 18.4297 31.393 18.1985 31.2691C17.9594 31.1412 17.7316 30.9963 17.5797 30.7109C17.4905 30.5474 17.4621 30.3575 17.4995 30.1751C17.5471 29.9901 17.655 29.8263 17.8061 29.7096C18.0845 29.4832 18.453 29.3566 19.0085 29.2413C20.0195 29.0332 20.3725 28.8912 20.5877 28.721C20.7705 28.5748 20.9772 28.2795 21.3428 27.8463C21.3411 27.8271 21.3397 27.8079 21.3386 27.7887C20.6843 27.7703 20.0435 27.5978 19.4683 27.2852C19.2574 27.5074 18.1802 28.6465 16.8667 30.2271C16.3141 30.8881 15.7038 31.2677 15.0597 31.2945C14.4156 31.3226 13.8335 30.9977 13.3385 30.5182C12.3499 29.5577 11.561 27.9054 10.8733 26.0379C10.187 24.1704 9.62877 22.0906 9.23221 20.3187C8.83424 18.5468 8.59939 17.1181 8.56564 16.429C8.41799 13.5012 9.10283 11.5282 10.277 10.2837C11.4527 9.03915 13.0642 8.56806 14.635 8.47806C17.4545 8.31634 20.132 9.29931 20.6735 9.51024C21.7169 8.80149 23.0613 8.35993 24.7403 8.38806C25.5374 8.39924 26.3306 8.5021 27.1042 8.69462L27.1324 8.68196C27.4729 8.56227 27.8198 8.4618 28.1716 8.38103C29.1267 8.15821 30.1032 8.03986 31.0839 8.02806L31.0853 8.02524ZM31.2991 8.96743H31.0938C30.2881 8.97867 29.4855 9.0691 28.6975 9.23743C30.4497 10.0137 31.773 11.209 32.7053 12.4015C33.353 13.2272 33.8883 14.1351 34.2972 15.1015C34.4519 15.4727 34.556 15.7863 34.615 16.0296C34.6445 16.152 34.6642 16.2546 34.6713 16.3615C34.6741 16.4149 34.6769 16.4698 34.6544 16.564C34.6544 16.5682 34.6474 16.5781 34.646 16.5823C34.6881 17.8141 34.383 18.6495 34.3464 19.8251C34.3183 20.6773 34.5363 21.6785 34.5897 22.7712C34.6403 23.7977 34.5166 24.9256 33.85 26.0323C33.9063 26.0998 33.9569 26.1673 34.0103 26.2348C35.7738 23.4574 37.045 20.3848 37.7228 17.7649C38.0856 16.3545 38.2783 15.0762 38.2952 14.0637C38.3092 13.0512 38.1208 12.3171 37.8803 12.0106C35.9931 9.59743 33.4394 8.98431 31.2991 8.96743ZM24.5631 9.32743C22.901 9.33165 21.7085 9.83368 20.8042 10.586C19.8719 11.3637 19.2461 12.4282 18.8355 13.5181C18.3475 14.8118 18.1802 16.0634 18.1141 16.9127L18.1324 16.9015C18.6344 16.6202 19.2939 16.339 19.9999 16.1759C20.7058 16.0141 21.4666 15.9635 22.1556 16.2307C22.8447 16.4979 23.4142 17.1265 23.621 18.0799C24.611 22.6601 23.313 24.3631 22.8349 25.6484C22.6535 26.1142 22.4981 26.5898 22.3694 27.0729C22.4299 27.0588 22.4903 27.042 22.5508 27.0363C22.8883 27.0082 23.1527 27.1207 23.3102 27.1882C23.7911 27.3879 24.1216 27.807 24.3002 28.2851C24.3466 28.4102 24.3803 28.5452 24.4 28.6845C24.4208 28.7416 24.4304 28.8023 24.4281 28.8631C24.3748 30.6149 24.3809 32.3681 24.4464 34.1196C24.4788 34.8762 24.5266 35.5427 24.587 36.0687C24.6475 36.5932 24.7333 36.9926 24.7881 37.1276C24.9681 37.5776 25.2311 38.1668 25.7064 38.5676C26.1817 38.967 26.8638 39.2341 28.1097 38.967C29.1897 38.7349 29.8563 38.4129 30.3021 37.9502C30.7464 37.4876 31.0122 36.8435 31.1824 35.8577C31.4369 34.3812 31.9488 30.0991 32.0106 29.2934C31.9825 28.6859 32.0725 28.219 32.2666 27.8632C32.4663 27.4976 32.7756 27.274 33.0428 27.1531C33.1764 27.0926 33.3016 27.0518 33.4042 27.0223C33.2956 26.8661 33.1816 26.7137 33.0625 26.5652C32.6773 26.098 32.3618 25.5775 32.126 25.0198C32.013 24.7895 31.8925 24.5629 31.7645 24.3406C31.5775 24.0031 31.3413 23.5812 31.0938 23.1073C30.5988 22.1581 30.0602 21.0077 29.7803 19.887C29.5019 18.7676 29.4611 17.6088 30.1755 16.7918C30.8083 16.0662 31.9192 15.7652 33.5871 15.934C33.5378 15.7863 33.5083 15.664 33.4253 15.4671C33.0483 14.5796 32.5561 13.7456 31.9614 12.9865C30.5481 11.1795 28.2602 9.3879 24.7249 9.33024H24.5631V9.32743ZM15.2228 9.40056C15.0442 9.40056 14.8656 9.40618 14.6885 9.41603C13.2681 9.49759 11.9252 9.90962 10.9647 10.9277C10.0028 11.9459 9.37002 13.6151 9.50783 16.3784C9.53455 16.9015 9.76236 18.3668 10.1533 20.1077C10.5428 21.8487 11.0955 23.8976 11.7592 25.7074C12.4244 27.5173 13.2302 29.0923 13.9952 29.8376C14.3805 30.2102 14.7152 30.3607 15.0189 30.3481C15.3241 30.334 15.6911 30.1582 16.1397 29.6196C16.9576 28.633 17.8064 27.6726 18.685 26.7396C18.0616 26.1984 17.5846 25.5089 17.2978 24.7347C17.0109 23.9606 16.9237 23.1267 17.0439 22.3099C17.1888 21.2707 17.2085 20.299 17.1916 19.5312C17.1747 18.7831 17.1213 18.2852 17.1213 17.9745C17.121 17.9656 17.121 17.9566 17.1213 17.9477V17.9407L17.1199 17.9323C17.119 16.3134 17.4008 14.7054 17.9524 13.1834C18.3461 12.1371 18.9325 11.074 19.8114 10.2134C18.948 9.92931 17.4152 9.49618 15.7558 9.41462C15.5778 9.40548 15.401 9.40079 15.2228 9.40056ZM32.6575 16.8284C31.7027 16.841 31.1669 17.0871 30.8856 17.4091C30.4877 17.8662 30.4497 18.6677 30.6972 19.6549C30.9433 20.6435 31.4524 21.7488 31.9305 22.6671C32.1695 23.127 32.4016 23.5404 32.5886 23.8765C32.7771 24.214 32.9149 24.4531 32.9992 24.657C33.0766 24.8454 33.1624 25.0113 33.2496 25.166C33.6194 24.3856 33.6855 23.6191 33.6475 22.8204C33.5983 21.8318 33.3691 20.8207 33.4028 19.797C33.4408 18.6002 33.677 17.8212 33.6981 16.8959C33.3531 16.8512 33.0055 16.8286 32.6575 16.8284ZM21.0785 16.9901C20.7868 16.9928 20.4962 17.0277 20.2122 17.0941C19.6461 17.2317 19.1008 17.444 18.5908 17.7256C18.4183 17.8181 18.2541 17.9254 18.1 18.0462L18.0691 18.0743C18.0775 18.2796 18.1183 18.7774 18.1352 19.5101C18.152 20.3116 18.1324 21.334 17.9777 22.4407C17.6416 24.8454 19.3867 26.8366 21.437 26.8395C21.5566 26.3459 21.7535 25.8452 21.9503 25.3179C22.5213 23.7795 23.6449 22.6573 22.6985 18.2782C22.5438 17.561 22.2372 17.2713 21.8153 17.1082C21.5789 17.0246 21.3292 16.9846 21.0785 16.9901ZM32.2117 17.277H32.282C32.3749 17.2798 32.4606 17.2896 32.5352 17.3079C32.6111 17.3248 32.6758 17.3501 32.7292 17.3852C32.7567 17.4022 32.7802 17.4248 32.7984 17.4514C32.8165 17.478 32.8289 17.5082 32.8347 17.5399L32.8333 17.5512C32.836 17.6179 32.8189 17.684 32.7841 17.741C32.7426 17.8182 32.6905 17.8892 32.6294 17.952C32.4867 18.1091 32.2957 18.214 32.0866 18.2501C31.8831 18.2747 31.6777 18.2231 31.51 18.1052C31.4414 18.0591 31.3798 18.0032 31.3272 17.9393C31.2817 17.8891 31.251 17.8273 31.2386 17.7607C31.2357 17.7283 31.2394 17.6956 31.2496 17.6646C31.2597 17.6337 31.2761 17.6051 31.2977 17.5807C31.3438 17.5283 31.3997 17.4853 31.4622 17.4541C31.5972 17.3782 31.78 17.322 31.9867 17.291C32.0641 17.2798 32.14 17.2741 32.2117 17.2727V17.277ZM21.2149 17.5132C21.2894 17.5132 21.3681 17.5202 21.4483 17.5315C21.6635 17.561 21.8547 17.6187 22.001 17.7031C22.0723 17.7403 22.1358 17.7909 22.188 17.8521C22.2164 17.8846 22.2378 17.9226 22.2509 17.9637C22.264 18.0049 22.2684 18.0483 22.2639 18.0912C22.2504 18.172 22.2138 18.2472 22.1585 18.3077C22.1009 18.3784 22.0331 18.44 21.9574 18.4906C21.7745 18.6201 21.5498 18.6768 21.3274 18.6495C21.1 18.6121 20.8919 18.4991 20.7367 18.3288C20.6707 18.2603 20.6148 18.1826 20.5708 18.0982C20.5244 18.024 20.5042 17.9364 20.5131 17.8493C20.5342 17.6974 20.6594 17.6187 20.7817 17.5751C20.9211 17.5306 21.0673 17.5115 21.2135 17.5188L21.2149 17.5132ZM33.9555 27.8393L33.9513 27.8407C33.7445 27.9152 33.5744 27.9462 33.431 28.0095C33.2859 28.0653 33.1663 28.1724 33.0949 28.3104C33.0063 28.4721 32.9303 28.759 32.9528 29.247C33.0165 29.2908 33.0867 29.324 33.161 29.3454C33.4014 29.4185 33.805 29.4663 34.255 29.4593C35.1522 29.4495 36.2561 29.2399 36.8425 28.9671C37.3236 28.7436 37.7701 28.4524 38.1686 28.1023C36.2097 28.5073 35.1016 28.399 34.4224 28.1191C34.2537 28.049 34.0964 27.9556 33.9555 27.8393ZM22.6619 27.9715H22.6324C22.5578 27.9785 22.4495 28.0038 22.24 28.2359C21.7506 28.7843 21.5791 29.1288 21.1755 29.4509C20.7719 29.7715 20.2474 29.9431 19.1997 30.1582C18.8678 30.2257 18.678 30.3002 18.5514 30.3607C18.5922 30.3945 18.588 30.4029 18.6499 30.4352C18.8031 30.5196 19 30.5941 19.1589 30.6349C19.6089 30.7474 20.3486 30.8782 21.1206 30.7474C21.8927 30.6152 22.6956 30.2454 23.3805 29.2849C23.4986 29.119 23.5113 28.8743 23.4142 28.6113C23.3158 28.3484 23.1006 28.122 22.9488 28.0587C22.8584 28.0151 22.7615 27.9866 22.6619 27.9743V27.9715Z" fill="black"/>
</svg>
