<svg width="64" height="64" viewBox="0 0 64 64" fill="none" xmlns="http://www.w3.org/2000/svg">
<path d="M47.6024 15.186C47.0564 16.5145 46.3504 17.6923 45.5692 18.7476C42.124 15.2331 37.3045 13 31.9862 13C21.5376 13 13 21.4989 13 31.9953C13 37.479 15.3439 42.4164 19.062 45.9025L19.768 46.5338C23.0531 49.3134 27.3267 51 31.9767 51C41.9546 51 50.1722 43.2078 50.8781 33.3709C51.4429 28.5939 49.9933 22.4788 47.6024 15.186ZM21.8106 46.0628C21.2647 46.7694 20.248 46.8448 19.5421 46.2983C18.8361 45.7518 18.7608 44.7342 19.3067 44.0276C19.8527 43.3208 20.8693 43.2455 21.5752 43.792C22.2436 44.3384 22.3566 45.3561 21.8106 46.0628ZM47.4894 40.3811C42.8299 46.6093 32.8145 44.4987 26.4324 44.8096C26.4324 44.8096 25.2935 44.8849 24.1638 45.0452C24.1638 45.0452 24.5968 44.8472 25.1428 44.6494C29.6423 43.0853 31.7602 42.7649 34.4994 41.361C39.6295 38.7322 44.7502 32.9752 45.7762 27.0203C43.8183 32.7397 37.8693 37.6769 32.4661 39.6744C28.748 41.0501 22.0553 42.3786 22.0553 42.3786L21.7824 42.2184C17.2453 39.9854 17.0853 30.1108 25.3876 26.9356C29.0304 25.5222 32.4756 26.3043 36.4291 25.3715C40.6179 24.3915 45.475 21.2539 47.4235 17.1458C49.5979 23.7697 52.2619 34.0305 47.4894 40.3811Z" fill="#0B0C0D"/>
</svg>
