<svg width="48" height="48" viewBox="0 0 48 48" fill="none" xmlns="http://www.w3.org/2000/svg">
<path fill-rule="evenodd" clip-rule="evenodd" d="M4 23.5C4 30.4025 9.5925 36 16.4925 36H31.0075C34.3216 35.9987 37.4995 34.681 39.8422 32.3369C42.1849 29.9928 43.5007 26.8141 43.5 23.5C43.5 16.5975 37.9075 11 31.0075 11H16.4925C13.1784 11.0013 10.0005 12.319 7.65778 14.6631C5.31506 17.0072 3.99934 20.1859 4 23.5ZM38.7775 23.5C38.7782 24.5623 38.5695 25.6143 38.1636 26.5959C37.7576 27.5775 37.1622 28.4696 36.4114 29.2211C35.6606 29.9726 34.7691 30.5688 33.7878 30.9757C32.8066 31.3826 31.7548 31.5922 30.6925 31.5925H16.8175C15.7548 31.5928 14.7025 31.3837 13.7206 30.9771C12.7388 30.5705 11.8467 29.9744 11.0954 29.2228C10.3441 28.4713 9.74822 27.579 9.34193 26.5971C8.93563 25.6151 8.72684 24.5627 8.7275 23.5C8.72717 22.4379 8.93604 21.3862 9.34217 20.4049C9.7483 19.4235 10.3437 18.5318 11.0945 17.7805C11.8453 17.0293 12.7366 16.4333 13.7177 16.0266C14.6988 15.6198 15.7504 15.4103 16.8125 15.41H30.69C31.7523 15.41 32.8041 15.6193 33.7855 16.0259C34.7669 16.4325 35.6586 17.0284 36.4096 17.7797C37.1606 18.5309 37.7563 19.4228 38.1626 20.4043C38.5689 21.3858 38.7778 22.4377 38.7775 23.5Z" fill="#0B0C0D"/>
</svg>
