<svg width="48" height="48" viewBox="0 0 48 48" fill="none" xmlns="http://www.w3.org/2000/svg">
<path d="M30.1778 5.3514C31.0377 5.99638 32.4068 7.36549 32.8934 8.36124C33.4551 9.48952 33.7553 10.9467 33.8424 12.4953C33.9734 12.62 34.1022 12.7468 34.2286 12.876C36.8423 15.5464 38.4605 19.2463 38.4605 23.3312C38.4605 26.0736 37.727 28.6468 36.4501 30.8505C36.7722 30.9893 37.0424 31.2384 37.2271 31.6364C37.5327 32.2813 37.8833 33.3563 38.0305 34.0239C38.2454 34.9518 37.7928 36.9206 36.831 37.226C35.9824 37.4976 34.998 37.4863 33.9797 37.2827C33.8552 37.1808 33.7308 37.011 33.6289 36.8299C32.9048 36.8074 32.2146 36.864 31.6487 37.1695C31.7053 37.7126 31.3432 37.7918 30.9924 37.9051C30.7435 38.912 31.5016 40.2245 31.3206 41.1297C31.1961 41.786 30.3927 41.8878 29.8044 42.001C29.7817 42.3631 29.827 42.6686 29.8723 42.9741C29.7366 43.472 29.1368 43.7548 28.5597 43.8228C26.6702 44.049 23.8075 44.1509 21.997 43.4946C21.4878 42.25 21.0918 40.7451 20.6731 39.3307C18.9079 39.523 17.471 38.5725 16.1245 37.9389C15.6606 37.724 15.0156 37.5994 14.8345 37.2261C14.6648 36.864 14.7327 36.1738 14.6874 35.5288C14.668 35.2119 14.6486 34.8971 14.6269 34.5833C14.3304 34.3263 14.0451 34.0563 13.7709 33.7749C11.1572 31.1046 9.53906 27.4046 9.53906 23.3312C9.53906 19.2577 11.1572 15.5576 13.7709 12.876C14.1019 12.5378 14.4491 12.2157 14.8112 11.9112C14.86 10.4684 15.2572 9.27813 16.2716 8.82513C16.7468 6.93558 18.4439 6.31329 20.0395 5.3741C20.6392 5.02332 21.2955 4.79708 21.9743 4.54803C24.407 3.65422 28.1524 3.8239 30.1778 5.3514ZM20.526 33.345C20.8994 36.7508 21.4312 39.6021 22.4155 42.6234C24.5994 43.2909 27.2245 43.3475 29.1595 42.7478C28.8087 41.0506 28.9558 38.98 28.7521 37.1581C28.5936 35.789 28.6729 34.4199 28.4579 33.0281C26.1156 32.5417 22.8117 32.915 20.526 33.345ZM29.2613 38.1426C29.2273 38.9912 29.3404 40.3378 29.3857 41.2316C29.9515 41.2316 30.1891 41.1072 30.6078 40.9713C30.6531 39.9303 30.2796 38.9686 30.1665 38.0181C29.9401 37.9389 29.5328 38.1539 29.2613 38.1426ZM18.3535 23.1274C16.5771 23.829 14.9138 25.0398 13.4314 26.1938C14.8458 29.2376 15.4229 32.9603 15.5248 36.5471C17.1429 37.3052 18.5685 38.4028 20.7749 38.5159C20.5147 36.7169 20.2884 35.0988 20.1413 33.4015C19.5869 33.1639 18.7948 33.4129 18.2744 33.3336C18.2744 32.7113 19.0663 33.0621 19.1342 32.6435C19.1796 32.3266 18.6929 32.304 18.8514 31.8061C19.2587 31.9532 19.4737 32.2813 19.9037 32.4058C20.2997 31.5459 19.9037 30.0184 19.9603 29.2942C19.9717 29.1585 20.0281 28.5474 20.3336 28.6492C20.6052 28.7397 20.3223 30.2899 20.345 30.9688C20.3676 31.6025 20.2658 32.2022 20.526 32.5982C22.6533 32.304 24.8145 32.1229 27.1227 32.0551C26.6135 31.8401 26.0138 31.6364 25.3575 31.263C24.9955 31.0593 23.8753 30.6407 23.7735 30.3012C23.6037 29.7581 24.2034 29.4753 24.3052 29.0112C23.2303 29.5997 23.0267 28.4456 22.7664 27.6421C22.5401 26.9066 22.4044 26.3523 22.3478 25.9336C21.4086 25.4584 20.4129 25.0171 19.6208 24.4513C19.4737 24.3495 18.4893 23.0708 18.3535 23.1274ZM30.1552 32.915C29.7592 32.9264 29.4083 32.915 29.0123 33.0507C28.9897 34.5105 29.0802 35.9587 29.1934 37.4184C29.759 37.3392 30.1325 37.2827 30.6531 37.1581C30.4833 35.755 30.506 34.1597 30.1552 32.915ZM35.247 31.5232C34.4662 32.0211 33.0971 32.1682 32.5314 32.7679C32.8142 33.7184 32.9047 35.0083 33.0178 36.2077C33.991 36.2643 35.179 35.9362 35.9938 36.2869C35.4279 36.468 34.7038 36.468 34.2172 36.7395C34.6246 36.9319 35.5525 36.898 36.1635 36.7509C37.0008 36.5471 37.5213 35.5288 37.2836 34.4765C37.1252 33.7749 36.8537 32.4398 36.5481 31.9871C36.3332 31.659 35.7335 31.2177 35.247 31.5232ZM31.0264 32.8132C31.1508 34.0013 31.4338 35.3138 31.5356 36.5698C31.9316 36.5811 32.1466 36.3887 32.4748 36.3322C32.4974 35.2346 32.3842 33.7184 31.8524 32.8132C31.5809 32.7566 31.2754 32.8132 31.0264 32.8132ZM36.1635 34.9518C35.4054 34.9631 34.4662 34.9518 33.7421 34.8951C34.172 34.4312 35.6769 34.7254 36.1635 34.9518ZM35.9258 33.8315C35.247 33.8995 34.4549 34.0126 33.776 33.956C34.1041 33.4582 35.3488 33.6391 35.9258 33.8315ZM35.5638 32.5417C34.7378 32.7113 34.1607 33.5147 33.346 33.4582C33.7986 32.8358 34.568 32.5642 35.5638 32.5417ZM14.8852 13.0088L15.1171 12.798C14.8678 13.0186 14.6264 13.2485 14.3932 13.487C11.9379 16.0102 10.4103 19.4841 10.4103 23.3312C10.4103 27.1783 11.9379 30.652 14.3932 33.1752L14.5198 33.3019C14.4272 32.3995 14.2901 31.4941 14.0538 30.5614C13.8614 29.792 13.5107 29.1245 13.273 28.3891C13.0468 27.7101 12.662 26.8615 12.5602 26.1825C12.4131 25.1756 13.3636 25.1189 13.9633 24.6776C14.9025 23.9987 15.6379 23.6253 16.6562 23.0143C16.9618 22.8333 17.8669 22.3807 17.9688 22.1656C18.1725 21.7471 17.6181 21.1587 17.471 20.8305C17.2333 20.31 17.1088 19.8687 17.0749 19.3594C16.2263 19.2237 15.57 18.7146 15.1854 18.1489C14.5403 17.1984 14.0877 15.4445 14.6535 14.1207C14.6988 14.0189 14.9138 13.8038 14.9477 13.6454C14.9882 13.4566 14.9362 13.2316 14.8852 13.0088ZM31.3771 22.3467C31.1396 22.7202 30.5964 22.969 30.3927 23.2746C31.8751 22.5618 32.1466 25.9563 31.5582 27.0538C31.6487 27.3819 31.9542 27.5064 32.0787 27.8005C31.2527 29.2829 30.3363 30.6633 29.4875 32.1229C30.1099 31.7269 31.0151 32.0551 31.7506 31.7609C32.0222 31.659 32.2146 31.0367 32.4182 30.5389C32.9838 29.181 33.5723 27.4611 33.8326 26.1713C33.8892 25.8771 34.0588 25.232 34.0136 24.9718C33.9457 24.4966 33.312 24.1458 32.9838 23.8629C32.3842 23.3198 32.0108 22.856 31.3771 22.3467ZM26.4098 27.7554C25.5612 28.321 24.6334 28.8643 24.3845 29.8939C25.6065 30.5841 27.021 31.2517 28.4013 31.6703C27.8129 30.2899 27.2812 28.8643 26.4098 27.7554ZM29.8497 27.4045C29.793 28.785 29.6346 30.5954 29.2726 31.6703C30.1438 30.5502 30.8567 29.2602 31.5922 27.9929C31.2754 27.4838 30.6191 27.0424 29.8497 27.4045ZM33.8675 13.7628L33.8601 14.0677C33.8111 15.6236 33.5716 17.1912 33.1876 18.5449C33.0631 18.9748 32.8934 19.5971 32.6445 20.1177C32.4748 20.4797 31.9429 21.1926 31.9995 21.5093C32.0675 21.8375 33.2216 22.7088 33.4705 22.9464C33.9119 23.3763 34.7604 23.9422 34.8282 24.4853C34.9075 25.0623 34.5794 25.8544 34.4097 26.4089C33.8665 28.2645 33.3234 29.9731 32.701 31.6364C33.4457 31.2674 34.5571 30.7538 35.5222 30.7063L35.4472 30.8292C36.8011 28.665 37.5891 26.0944 37.5891 23.3312C37.5891 19.6223 36.1695 16.2605 33.8675 13.7628ZM28.209 26.8275C27.8808 26.7934 27.598 27.2122 27.1679 27.0311C27.0661 27.1443 26.9756 27.2575 26.8737 27.3706C27.8242 28.5247 28.2655 30.1542 29.0011 31.5006C29.3971 30.1995 29.3518 28.785 29.4424 27.3706C28.8992 27.3932 28.5937 26.8615 28.209 26.8275ZM28.7294 29.0452C28.8992 29.0452 29.0236 29.1698 29.0236 29.3394C29.0236 29.498 28.8879 29.6337 28.7294 29.6337C28.571 29.6337 28.4352 29.498 28.4352 29.3394C28.4352 29.1809 28.571 29.0452 28.7294 29.0452ZM22.8343 26.2392C22.8683 26.8953 23.2077 27.5856 23.3548 28.0269C23.4227 28.2306 23.4453 28.4455 23.6151 28.4908C23.9206 28.5588 24.9389 28.1627 25.2218 28.0042C25.8328 27.6761 26.308 27.1444 26.8286 26.7822L26.8512 26.2618C26.5344 26.1032 26.1836 26.0015 25.7196 25.9789C26.0252 25.8204 26.4891 25.8204 26.7719 25.6395C26.7719 25.5715 26.7719 25.5037 26.7833 25.4357C26.2627 25.3791 26.0704 25.1529 25.7196 24.9605C25.1652 24.6549 24.3279 24.3268 23.6037 24.1911C22.7099 24.0213 22.8003 25.4131 22.8343 26.2392ZM28.4352 27.6761C28.605 27.6761 28.7294 27.8118 28.7294 27.9703C28.7294 28.1287 28.5937 28.2646 28.4352 28.2646C28.2768 28.2646 28.141 28.1287 28.141 27.9703C28.141 27.8118 28.2768 27.6761 28.4352 27.6761ZM23.5516 24.4541C24.2 24.5757 25.0082 24.8761 25.5848 25.1938L25.8751 25.3816L26.0197 25.4715L26.1537 25.5424L26.1345 25.5479C25.8725 25.6067 25.7402 25.645 25.5947 25.7178L24.6432 26.1935L25.7057 26.2465L25.9251 26.2658C26.0679 26.284 26.2043 26.313 26.3379 26.3526L26.5637 26.4305L26.5548 26.6215L26.4101 26.7311L26.0012 27.0691L25.9027 27.1528C25.5579 27.444 25.336 27.61 25.0862 27.7488C24.7324 27.9394 23.9823 28.2017 23.7385 28.2127L23.6941 28.2094C23.6985 28.2063 23.6989 28.204 23.6987 28.2007L23.6198 27.9273L23.3885 27.3161C23.2633 26.9809 23.1838 26.7165 23.1416 26.4652L23.1234 26.3364L23.1074 26.077C23.0988 25.8707 23.0943 25.7276 23.0937 25.5923L23.094 25.4914C23.0978 25.1047 23.1378 24.8164 23.2204 24.6336C23.2942 24.4702 23.3781 24.4211 23.5516 24.4541ZM28.4579 24.9945C28.5145 25.1529 28.605 25.2773 28.6163 25.481C28.9219 25.4018 29.2839 25.4584 29.5441 25.5828C29.2386 25.6168 28.9105 25.6168 28.7068 25.7639C28.6389 25.9788 28.7294 26.2618 28.6729 26.556C29.3857 26.7596 30.2118 26.8615 31.117 26.8953C31.2867 26.6691 31.3545 26.2391 31.3319 25.7979C31.3094 25.2773 31.1734 24.2024 30.8453 24.01C30.1665 23.614 28.9671 24.8134 28.4579 24.9945ZM30.7077 24.2643C30.8531 24.3496 31.0236 25.1305 31.0529 25.821L31.0567 25.9895C31.0548 26.2096 31.0262 26.4088 30.9773 26.5592L30.9517 26.6204L30.7487 26.6126C30.1325 26.5786 29.5625 26.4997 29.0501 26.3774L28.9644 26.3545L28.9524 26.0005L28.9532 25.9579L29.0107 25.9417C29.0526 25.9312 29.1034 25.9221 29.1664 25.9136L29.5749 25.8718L30.5461 25.7641L29.6646 25.3423L29.5157 25.2805C29.3101 25.2071 29.079 25.1702 28.8595 25.1775L28.8315 25.1793L28.8158 25.138L28.978 25.0381L29.4523 24.7194L29.6972 24.5619C29.7725 24.5155 29.8425 24.4747 29.9106 24.4377C30.2897 24.2315 30.5547 24.1776 30.7077 24.2643ZM27.1567 25.4357C27.1227 25.8317 27.2132 25.9563 27.2924 26.4089C28.5823 26.8162 28.3674 24.6323 27.1567 25.4357ZM27.9088 25.8189L27.9125 25.9062C27.906 26.1 27.794 26.2212 27.581 26.2138L27.5366 26.2074L27.4501 25.8259L27.4336 25.7096L27.4284 25.6028L27.4918 25.5733C27.7459 25.4689 27.8821 25.5785 27.9088 25.8189ZM20.4016 23.9987C19.9377 24.4739 21.7027 25.1076 22.2573 25.1416C22.2573 24.8474 22.4269 24.5646 22.393 24.3495C21.7254 24.2364 20.8542 24.3155 20.4016 23.9987ZM28.9558 23.976C28.0732 24.0553 26.9643 24.5984 26.1043 24.2137C26.1045 24.259 26.0478 24.2477 26.0365 24.2817C26.6362 24.7455 27.0774 24.8473 27.8808 24.8021C28.243 24.5419 28.571 24.2251 28.9558 23.976ZM23.3661 5.29484C21.9404 6.00767 20.0169 7.1844 19.3605 8.66685C19.9715 10.1037 19.1796 11.4162 19.1229 12.8759C19.1003 13.6567 19.4851 14.3244 19.5189 15.173C19.304 15.5238 18.6703 15.5576 18.2291 15.5351C18.082 14.7881 17.8218 13.9509 17.0523 13.8603C15.9661 13.7359 15.1627 14.6411 15.1174 15.5803C15.0609 16.6892 15.9661 18.5222 17.2559 18.3978C17.7538 18.3525 17.8783 17.8546 18.4214 17.8546C18.7156 18.4431 17.9689 18.624 17.8896 19.0427C17.8669 19.1559 17.9462 19.5745 18.0027 19.7782C18.2404 20.74 18.7608 21.9959 19.27 22.7315C19.9263 23.6705 21.2049 23.8064 22.5853 23.8969C22.8343 23.365 23.7395 23.4103 24.3278 23.5461C23.6151 23.2633 22.9588 22.5844 22.4157 21.9846C21.7933 21.2944 21.1597 20.559 21.1257 19.6538C22.3138 21.2944 23.2869 22.7315 25.4368 23.4557C27.0661 23.9987 28.9671 23.2066 30.2231 22.3241C30.7435 21.962 31.049 21.3736 31.4225 20.8531C32.8029 18.8617 33.4478 16.0328 33.312 13.2833C33.2555 12.1519 33.2555 11.0203 32.8707 10.2622C32.4748 9.47012 31.1283 8.74599 30.3362 9.47012C30.1891 8.68943 30.9924 8.21413 31.9315 8.49706C31.2641 7.62583 30.5625 6.59609 29.6007 6.05294C27.9375 5.11387 25.1313 4.41232 23.3661 5.29484ZM25.3237 19.269C25.9572 20.8531 28.1184 20.6721 29.9401 20.6268C29.861 20.8305 29.6912 21.0794 29.465 21.1586C28.8765 21.3962 27.2698 21.5773 26.4551 21.1473C25.9459 20.8758 25.6065 20.2534 25.3237 19.8913C25.1991 19.7216 24.5203 19.2803 25.3237 19.269ZM25.4933 18.3864C26.3986 18.8617 28.0732 18.9182 29.3178 18.8843C29.3857 19.1559 29.3857 19.4953 29.3857 19.8235C27.7903 19.8913 25.912 19.4953 25.4933 18.3864ZM32.3277 17.7867C31.8411 18.7146 31.1508 19.7329 29.7252 19.7669C29.6912 19.4727 29.6686 19.0088 29.7252 18.8277C30.8228 18.7146 31.5016 18.1601 32.3277 17.7867ZM29.1255 12.3668C29.5441 13.3399 30.5965 14.5959 31.3545 15.4332C31.5469 15.6369 31.8524 15.8406 31.8864 15.9764C31.978 16.3226 31.6939 16.7421 31.6692 17.0123L31.6714 17.0964C30.6304 17.7641 29.4648 18.4996 27.7451 18.3298C27.383 18.013 27.2359 17.3001 27.598 16.8363C27.7789 17.1531 27.6658 17.7415 28.1864 17.832C29.1595 18.0018 30.2909 17.2322 30.9924 16.9721C31.4224 16.2366 30.9586 15.9764 30.5625 15.5011C29.7592 14.5393 28.6956 13.3399 28.7294 11.9029C29.0576 11.6653 29.0802 12.265 29.1255 12.3668ZM17.9097 16.2826L17.8895 16.395C17.5614 16.2026 17.4823 15.388 17.0975 15.3653C16.5431 15.3314 16.6449 16.429 16.6449 17.0738C16.2716 16.7345 16.2036 15.6708 16.4752 15.1277C16.1584 14.9692 16.0225 15.2974 15.8415 15.4105C16.074 13.8056 18.1581 14.6153 17.9097 16.2826ZM18.874 8.88181C17.7765 8.97224 16.8826 9.41355 16.2376 10.1378C15.536 10.9185 15.6831 12.3668 15.7624 13.4077C17.041 12.6045 18.727 13.4757 18.7156 14.8335C19.3266 14.8221 18.9419 14.0754 18.8288 13.5888C18.4666 12.0161 19.4398 10.3188 18.874 8.88181ZM25.5726 11.2806C25.8894 11.8577 25.9911 12.4574 26.4324 12.8874C26.6362 13.0797 27.0208 13.3173 26.8286 13.8603C26.7833 13.9849 26.4551 14.2678 26.2627 14.3244C25.5726 14.528 23.9544 14.3696 24.4976 13.4983C25.0746 13.521 25.8441 13.8717 26.2741 13.453C25.9459 12.9326 25.3575 11.8915 25.5726 11.2806ZM31.9995 11.2578C32.3277 11.9368 32.6105 12.661 33.0292 13.272C32.7464 13.9283 30.9246 14.494 30.9472 13.3399C31.3432 13.1702 32.0222 13.3059 32.373 13.0797C32.1693 12.5252 31.8864 12.0499 31.9316 11.258L31.9995 11.2578ZM24.2487 8.75728C24.6107 8.80255 25.1086 9.14204 24.8371 9.60593C23.3774 9.26645 22.6533 10.2169 22.212 11.2013C21.8159 11.1108 21.9743 10.5677 22.0763 10.2962C22.3364 9.58335 23.3888 8.62147 24.2487 8.75728ZM21.2841 5.62303C19.6887 6.07564 17.6407 7.24107 16.9844 8.67803C17.4936 8.59889 17.8443 8.34995 18.3422 8.31597C18.5346 8.30468 18.7835 8.39522 18.9985 8.33866C19.4284 8.22554 19.8019 7.25236 20.1299 6.8903C20.4468 6.53953 20.8315 6.38114 21.0918 6.06435C21.2615 5.98509 21.5103 5.98509 21.5217 5.73616C21.4539 5.6569 21.3746 5.60045 21.2841 5.62303Z" fill="#0B0C0D"/>
</svg>
