<svg width="32" height="32" viewBox="0 0 32 32" fill="none" xmlns="http://www.w3.org/2000/svg">
<path d="M29.1587 21.8143C29.1013 21.7503 27.736 20.241 26.0053 20.2276C25.0987 20.2276 24.288 20.605 23.5853 21.3716C22.5547 22.4943 20.452 23.8383 17.9187 23.933C15.788 24.0116 13.8053 23.2023 12.0213 21.5263C9.82932 19.4676 9.14799 16.1716 10.2853 13.1303C11.3973 10.157 13.9547 8.30896 17.1267 8.18762L17.1853 8.18229C17.2173 8.17829 20.2547 7.83829 22.952 10.2463C23.1787 10.493 24.4907 11.8423 26.252 11.8836C27.3493 11.9076 28.3667 11.4356 29.2787 10.477C30.0813 9.63429 30.4387 8.68762 30.3413 7.66096C30.136 5.51429 27.9333 3.82629 27.6347 3.60763C27.352 3.36229 25.1307 1.50363 21.6667 0.548959C18.3067 -0.377708 13.1067 -0.588374 7.41999 3.68096C7.16153 3.88603 6.91366 4.10408 6.67732 4.33429C6.30399 4.61163 5.97999 4.95029 5.72265 5.33829C2.93561 8.53281 1.47422 12.6714 1.63732 16.9076C1.91332 25.285 8.65732 29.2983 9.16532 29.5876C9.51465 29.8143 13.04 32.001 17.8253 31.9996C20.6333 31.9996 23.876 31.2463 27.1653 28.9036C27.496 28.7196 29.4507 27.5543 29.9693 25.5436C30.276 24.3516 30.0253 23.1236 29.22 21.8943L29.1587 21.8143ZM6.58265 24.441C6.58265 22.9876 7.76532 21.805 9.21865 21.805C10.672 21.805 11.8547 22.9863 11.8547 24.441C11.8547 25.8943 10.672 27.077 9.21865 27.077C7.76532 27.077 6.58265 25.8943 6.58265 24.441ZM6.76799 6.23163C7.08265 5.86496 7.36932 5.56763 7.60532 5.33829C8.0351 5.05235 8.53977 4.89974 9.05599 4.89963C10.5093 4.89963 11.692 6.08229 11.692 7.53562C11.692 8.98896 10.5093 10.173 9.05599 10.173C7.60265 10.173 6.41999 8.99029 6.41999 7.53696C6.41999 7.06229 6.54799 6.61696 6.76799 6.23296V6.23163ZM17.6573 1.33163C22.9293 1.33163 26.5333 4.44629 26.7587 4.64629L26.816 4.69163C27.376 5.09163 28.8587 6.42629 28.9893 7.79029C29.048 8.41562 28.8213 8.98763 28.296 9.54096C27.66 10.2076 26.9853 10.5436 26.2907 10.525C25.0053 10.4996 23.9667 9.34229 23.944 9.31829L23.888 9.25963C20.832 6.50896 17.448 6.78629 17.048 6.83029C15.643 6.87853 14.2683 7.25186 13.032 7.92096C13.1246 6.94895 12.8584 5.97664 12.2837 5.18728C11.709 4.39793 10.8655 3.84604 9.91199 3.63563C12.716 1.93296 15.348 1.33163 17.6573 1.33163ZM5.17065 8.45296C5.37757 9.32847 5.87358 10.1087 6.57857 10.6675C7.28356 11.2264 8.15636 11.5313 9.05599 11.533C9.21865 11.533 9.37599 11.5196 9.53332 11.501C9.33523 11.8742 9.16153 12.2599 9.01332 12.6556C8.01332 15.3263 8.22665 18.1756 9.49199 20.461C9.40132 20.4543 9.31065 20.4476 9.21865 20.4476C8.25152 20.4493 7.31778 20.8015 6.59041 21.4389C5.86304 22.0763 5.39132 22.9558 5.26265 23.9143C3.86136 21.8229 3.07596 19.3798 2.99599 16.8636C2.88888 13.9081 3.64402 10.9854 5.16932 8.45162L5.17065 8.45296ZM28.6547 25.1996C28.2547 26.765 26.5013 27.7196 26.4853 27.7276L26.408 27.7756C18.0253 33.7743 10.2253 28.665 9.89865 28.445L9.85065 28.4156C9.83548 28.4068 9.82037 28.398 9.80532 28.389C10.8124 28.2383 11.7239 27.7091 12.3541 26.9093C12.9842 26.1094 13.2853 25.0993 13.196 24.085C14.6947 24.9383 16.3107 25.353 17.9693 25.293C20.9213 25.1823 23.3787 23.6076 24.5853 22.293C25.0213 21.8183 25.4787 21.5863 25.9827 21.5863H25.9893C27.0053 21.5916 27.936 22.5036 28.1133 22.6876C28.6747 23.565 28.8573 24.409 28.6547 25.1996Z" fill="black"/>
</svg>
