<svg width="48" height="48" viewBox="0 0 48 48" fill="none" xmlns="http://www.w3.org/2000/svg">
<path d="M31.5025 11.0438L32.781 12.3184C32.781 12.3184 35.5771 12.5272 35.709 12.5379C35.8709 12.5517 36.0024 12.6744 36.0274 12.835C36.0526 13.0194 40 39.8415 40 39.8415L30.3139 41.9466L31.5025 11.0438ZM30.0168 10.0274C29.9549 10.0353 29.8938 10.0481 29.8339 10.0655L28.7459 10.4022C28.0968 8.52566 26.9516 6.80147 24.9379 6.80147C24.8823 6.80147 24.8236 6.803 24.7672 6.8068C24.1935 6.04566 23.4842 5.71423 22.8716 5.71423C18.1783 5.71423 15.9352 11.6114 15.2328 14.6072C13.4088 15.1748 12.1135 15.5779 11.949 15.6304C10.9295 15.9519 10.8975 15.9839 10.7642 16.9478C10.6636 17.6777 8 38.3779 8 38.3779L28.7543 42.2857L28.7764 42.2811L30.0168 10.0274ZM24.6133 11.4834L24.6126 11.6883L20.9844 12.8167C21.683 10.1089 22.992 8.79995 24.1371 8.30623C24.4244 9.03309 24.6133 10.0761 24.6133 11.4834ZM22.7413 6.979C22.9455 6.979 23.149 7.04909 23.3448 7.18395C21.84 7.8948 20.2286 9.68681 19.5474 13.2639L16.6804 14.1569C17.4773 11.4278 19.3707 6.97976 22.7413 6.97976V6.979ZM23.5505 22.9279C23.5505 22.9279 22.336 22.2765 20.8472 22.2765C18.6636 22.2765 18.5539 23.6533 18.5539 23.9999C18.5539 25.894 23.4636 26.6194 23.4636 31.0537C23.4636 34.5417 21.2617 36.7885 18.2926 36.7885C14.7299 36.7885 12.9082 34.5599 12.9082 34.5599L13.8621 31.3927C13.8621 31.3927 15.7356 33.0087 17.3158 33.0087C18.3474 33.0087 18.768 32.1919 18.768 31.5954C18.768 29.1253 14.739 29.0148 14.739 24.9561C14.739 21.542 17.1787 18.2361 22.1029 18.2361C24 18.2361 24.9371 18.7832 24.9371 18.7832L23.5505 22.9279ZM25.843 11.3051L25.8438 10.9241C25.8438 9.75842 25.6823 8.81976 25.4248 8.07538C26.4625 8.20566 27.1543 9.39347 27.5985 10.7588L25.843 11.3051Z" fill="#0B0C0D"/>
</svg>
