<svg width="48" height="48" viewBox="0 0 48 48" fill="none" xmlns="http://www.w3.org/2000/svg">
<path d="M31.516 16.4592C31.9397 16.0347 32.5486 16.2796 32.6447 16.8717L35.7173 35.7951L24.9585 41.795C24.2821 42.1721 23.4587 42.1719 22.7827 41.7945L12.1212 35.8361L31.516 16.4592ZM24.476 13.3274L24.5337 13.4231L27.5211 19.1117L24.3956 22.5103L12.4157 34.4457L12.0897 34.5781L12 34.6684L21.5588 16.4023L23.2802 13.3672C23.5434 12.8603 24.1655 12.8777 24.476 13.3274ZM16.0899 7.08263C16.203 6.36325 17.0718 6.19942 17.414 6.84206L21.5296 14.6257L12.2665 32.204L12.1168 32.4958L16.0899 7.08263Z" fill="#0B0C0D"/>
</svg>
