<svg width="48" height="48" viewBox="0 0 48 48" fill="none" xmlns="http://www.w3.org/2000/svg">
<path d="M15.1006 28.6247L11.1856 30.3065L14.8113 31.857L19.0156 30.3065L15.1006 28.6247ZM9.21455 30.7269L9.08337 38.2946L14.8113 40.8172V32.9602L9.21455 30.7269ZM20.9866 30.7269L15.8102 32.6978V40.1075L20.9866 38.0054V30.7269ZM27.1618 7.18286L23.2199 8.86461L26.8725 10.4151L31.0768 8.86461L27.1618 7.18286ZM21.6963 9.41705V16.9848L26.5833 18.4041L26.7414 11.5192L21.6963 9.41705ZM32.6275 9.83744L28.0027 11.8084V19.245L32.6275 17.1429V9.83744ZM8.6495 17.834L4.73447 19.5157L8.36026 21.0663L12.5645 19.5157L8.6495 17.834ZM2.76351 19.9362L2.63232 27.5039L8.36026 30.0265V22.1695L2.76351 19.9362ZM14.5355 19.9362L9.35922 21.9071V29.3168L14.5355 27.2146V19.9362ZM21.2624 17.5548L17.3474 19.2366L20.9731 20.7871L25.1774 19.2366L21.2624 17.5548ZM15.3764 19.657L15.2452 27.2247L20.9731 29.7473V21.8912L15.3764 19.657ZM27.1484 19.657L21.9721 21.628V29.0376L27.1484 26.9355V19.657ZM39.4813 7.18286L35.5663 8.86457L39.1921 10.4151L43.3963 8.86457L39.4813 7.18286ZM33.5952 9.285L33.4641 16.8527L39.192 19.3753V11.5192L33.5952 9.285ZM45.3673 9.285L40.1909 11.256V18.6656L45.3673 16.5635V9.285Z" fill="#0B0C0D"/>
</svg>
