<svg width="64" height="64" viewBox="0 0 64 64" fill="none" xmlns="http://www.w3.org/2000/svg">
<mask id="mask0_31_504" style="mask-type:luminance" maskUnits="userSpaceOnUse" x="17" y="8" width="30" height="48">
<path d="M46.7777 8H17.4443V56H46.7777V8Z" fill="white"/>
</mask>
<g mask="url(#mask0_31_504)">
<path d="M17.4443 30.148V41.2216C17.4443 40.2988 46.7777 38.4532 46.7777 33.8392V22.7656C46.7777 27.3796 17.4443 29.2252 17.4443 30.148Z" fill="#0B0C0D"/>
<path d="M17.4443 15.3824V26.456C17.4443 25.5332 46.7777 23.6876 46.7777 19.0736V8C46.7777 12.614 17.4443 14.4596 17.4443 15.3824Z" fill="#0B0C0D"/>
<path d="M17.4443 44.9119V55.9856C17.4443 55.0629 46.7777 53.2172 46.7777 48.6032V37.5296C46.7777 42.1436 17.4443 43.9892 17.4443 44.9119Z" fill="#0B0C0D"/>
</g>
</svg>
