<svg width="48" height="48" viewBox="0 0 48 48" fill="none" xmlns="http://www.w3.org/2000/svg">
<path d="M6.48682 24.7523L6.51678 24.8084C8.74949 28.9586 13.7368 31.0342 20.4301 29.4244L20.943 29.3011L21.2612 29.2244C24.0986 28.3917 27.0138 26.7848 29.0035 25.3053L29.2135 25.145L29.3928 25.3455C33.9153 30.4825 33.8359 35.6887 30.3989 39.2244L30.2552 39.3667L29.9902 39.4986C29.9127 39.5354 29.8247 39.5762 29.7265 39.6204C29.2293 39.8443 28.6611 40.0688 28.0323 40.2786C24.4196 41.4837 20.6324 41.6781 17.1093 40.2313C16.8412 40.1212 16.5759 40.0017 16.3134 39.8728C10.3055 37.294 6.60684 30.8186 6.49049 25.042L6.48682 24.7523ZM33.2498 10.5257L33.4711 10.5601L33.3814 10.5002C34.2653 11.0681 35.5419 12.1254 36.8237 13.6448C38.9145 16.123 40.2537 19.0101 40.4734 22.2863L40.5128 22.6577C41.1256 29.2149 37.3617 35.5702 32.4217 38.3753L32.2728 38.4567L32.2853 38.4369C34.707 34.419 34.2273 30.2611 31.4196 26.3334L31.1526 25.9704C28.8735 22.958 25.2691 20.2601 22.0453 18.8335L21.7038 18.6871L21.7617 18.5033C23.6239 12.7621 27.4222 9.67874 33.2498 10.5257ZM31.1155 8.95528L31.34 9.08037L31.2285 9.07602C26.5518 8.97687 22.3007 12.2584 20.3601 18.8197L20.2102 19.3265L20.1265 19.579C19.3839 22.4187 19.3443 25.3837 19.5963 27.9048L19.6396 28.2939L19.4499 28.3369C13.5382 29.5915 8.97331 27.8531 6.80214 22.4071L6.72057 22.1969L6.73946 21.9848L6.78921 21.5437C6.80946 21.3872 6.8335 21.2214 6.86167 21.0471C7.02334 20.0469 7.2851 18.9785 7.66908 17.888C8.76213 14.7837 10.6057 12.1294 13.3757 10.2725C18.6345 6.34273 26.0701 6.24472 31.1155 8.95528Z" fill="#0B0C0D"/>
</svg>
