<svg width="48" height="48" viewBox="0 0 48 48" fill="none" xmlns="http://www.w3.org/2000/svg">
<path d="M44.5835 20.3768C43.7239 19.8103 42.668 19.4723 41.5335 19.4723C41.4031 19.4723 41.2741 19.4765 41.1465 19.4849L41.1633 19.4835C40.5379 19.4849 39.9265 19.541 39.3319 19.6448L39.3964 19.635C39.0669 17.7321 37.9591 16.1363 36.4208 15.1603L36.3941 15.1448L35.7926 14.7971L35.3971 15.3692C34.9259 16.0872 34.5571 16.9229 34.337 17.8162L34.3258 17.8709C34.201 18.3252 34.1294 18.8469 34.1294 19.3854C34.1294 20.5507 34.466 21.636 35.0465 22.5517L35.0325 22.5279C34.1393 22.9472 33.096 23.2122 31.998 23.2627H31.9797H4.31395C3.59036 23.2641 3.00421 23.8489 3.0014 24.571C3 24.6496 3 24.7435 3 24.8375C3 27.2929 3.44453 29.6445 4.25785 31.8167L4.21298 31.6792C4.99546 33.9692 6.47347 35.8511 8.39181 37.1215L8.43107 37.1454C10.8767 38.4116 13.771 39.1535 16.8378 39.1535C17.1281 39.1535 17.4155 39.1464 17.703 39.1338L17.6623 39.1352C17.6876 39.1352 17.717 39.1352 17.7465 39.1352C19.5302 39.1352 21.2732 38.9655 22.963 38.6416L22.7905 38.6697C25.3076 38.1985 27.5513 37.3529 29.5846 36.1834L29.4809 36.2381C31.2435 35.2074 32.7496 33.965 34.0313 32.5192L34.0481 32.4996C35.9061 30.312 37.4178 27.7584 38.4583 24.9763L38.5158 24.801H38.9028C38.98 24.8038 39.0697 24.8066 39.1595 24.8066C40.8787 24.8066 42.4408 24.1321 43.5949 23.0327L43.5921 23.0355C44.1208 22.5335 44.54 21.9235 44.8163 21.2392L44.8289 21.2055L45 20.7021L44.5835 20.3768ZM6.87733 22.455H10.5878C10.7659 22.4536 10.9103 22.3091 10.9103 22.131V18.8287C10.9103 18.6506 10.7659 18.5047 10.5878 18.5033H6.87733C6.69924 18.5047 6.55481 18.6492 6.55481 18.8273V22.131C6.55481 22.3091 6.69924 22.455 6.87733 22.455ZM11.9873 22.455H15.6949C15.873 22.455 16.0189 22.3105 16.0189 22.131V18.8287C16.0189 18.6506 15.8744 18.5047 15.6963 18.5033H11.9859C11.8064 18.5033 11.6605 18.6492 11.6605 18.8287V22.131C11.6619 22.3105 11.8078 22.455 11.9873 22.455ZM17.1729 22.455H20.8834C21.0615 22.4536 21.2059 22.3091 21.2059 22.131V18.8287C21.2059 18.6506 21.0615 18.5047 20.8834 18.5033H17.1729C16.9949 18.5047 16.8504 18.6492 16.8504 18.8273V22.131C16.8504 22.3091 16.9949 22.455 17.1744 22.455H17.1729ZM22.2997 22.455H26.006C26.1855 22.455 26.3299 22.3105 26.3313 22.131V18.8287C26.3313 18.6492 26.1855 18.5033 26.006 18.5033H22.2997C22.1216 18.5033 21.9758 18.6478 21.9758 18.8273V22.131C21.9758 22.3091 22.1202 22.455 22.2983 22.455C22.2983 22.455 22.2983 22.455 22.2997 22.455ZM11.9873 17.704H15.6949C15.8744 17.7026 16.0189 17.5582 16.0189 17.3787V14.0763C16.0189 13.8982 15.8744 13.7524 15.6949 13.7524H11.9873C11.8078 13.7524 11.6634 13.8968 11.6619 14.0763V17.3787C11.6634 17.5582 11.8078 17.7026 11.9873 17.704ZM17.1729 17.704H20.8834C21.0615 17.7026 21.2059 17.5568 21.2059 17.3787V14.0763C21.2059 13.8982 21.0615 13.7524 20.882 13.7524H17.1758C16.9977 13.7524 16.8518 13.8968 16.8518 14.0763V17.3787C16.8532 17.5582 16.9963 17.7026 17.1758 17.704H17.1729ZM22.2997 17.704H26.006C26.1855 17.7026 26.3299 17.5582 26.3313 17.3787V14.0763C26.3299 13.8968 26.1855 13.7524 26.006 13.7524H22.2997C22.1216 13.7524 21.9758 13.8968 21.9758 14.0763V17.3787C21.9758 17.5582 22.1202 17.7026 22.2997 17.704ZM22.2997 12.9531H26.006C26.1855 12.9531 26.3313 12.8072 26.3313 12.6277V9.32393C26.3299 9.14444 26.1855 9 26.006 9H22.2997C22.1216 9 21.9758 9.14444 21.9758 9.32393V12.6277C21.9758 12.8058 22.1202 12.9517 22.2983 12.9517C22.2983 12.9517 22.2983 12.9517 22.2997 12.9517V12.9531ZM27.47 22.455H31.1776C31.3571 22.455 31.5016 22.3105 31.503 22.131V18.8287C31.503 18.6492 31.3571 18.5033 31.1776 18.5033H27.47C27.2905 18.5033 27.146 18.6478 27.146 18.8273V22.131C27.146 22.3091 27.2905 22.455 27.47 22.455Z" fill="#0B0C0D"/>
</svg>
