<svg width="48" height="48" viewBox="0 0 48 48" fill="none" xmlns="http://www.w3.org/2000/svg">
<path d="M20.9723 6.54578C21.0306 6.55104 21.0411 6.57217 21.1313 6.93149C21.2957 7.52335 21.5926 8.3476 21.9054 9.06098C22.3083 9.98043 22.9975 11.3438 23.6231 12.4429L23.7303 12.6333C24.8752 12.8077 26.2847 13.0506 26.9259 13.1774C30.3296 13.8485 33.0176 14.7521 35.0959 15.9093C36.607 16.7548 37.8422 17.7746 38.86 19.0323C39.21 19.4656 39.5017 19.8724 39.9257 20.5277L40 20.6439L39.5175 20.7179C36.3954 21.1939 31.6846 22.3338 27.4245 23.595C27.4266 23.6345 27.4335 23.6938 27.4455 23.7565C27.578 24.5121 27.6628 25.2836 27.7105 26.2347C27.7423 26.816 27.7265 28.5334 27.6893 29.046C27.5462 30.8795 27.3289 32.4278 27.0532 33.5903C26.592 35.5084 25.7437 37.7542 24.5667 40.148C24.2221 40.8508 23.9252 41.4161 23.8827 41.4426C23.8616 41.4585 23.3419 41.4585 22.955 41.4426C21.0411 41.3686 17.5631 40.8772 15.7659 40.4227C14.6844 40.1532 13.2476 39.6724 12.394 39.2971C10.7187 38.5626 9.28188 37.4847 8.56086 36.4279C7.99889 35.5982 7.85567 34.6999 8.14729 33.8122C8.31166 33.3207 8.69337 32.6813 9.17585 32.0789C9.49923 31.6774 10.1354 31.0433 10.5649 30.7051C10.5916 30.6839 10.6189 30.6622 10.6467 30.64L10.5914 30.6576C14.1806 27.7195 16.5081 25.0722 17.6109 22.6731C18.2311 21.3362 18.4804 20.1843 18.4485 18.8738C18.3955 16.8341 17.8282 15.3545 16.524 13.8538C16.2551 13.546 14.1568 11.5036 13.9035 11.2571L13.8785 11.2328C13.6505 11.0214 13.4491 10.8154 13.3801 10.6463C13.3521 10.577 13.3385 10.5135 13.3339 10.4571L13.3165 10.4401C13.3165 10.3767 13.3272 10.3133 13.3484 10.2605L13.3663 10.2259C13.3767 10.2003 13.3854 10.1865 13.3854 10.1865C13.386 10.1888 13.3866 10.191 13.3872 10.1932C13.5007 10.0255 13.8105 9.72641 14.0641 9.54711C14.8487 8.99767 16.1211 8.36354 17.7594 7.69765C18.9734 7.20628 20.8557 6.53001 20.9723 6.54578ZM24.9166 37.7911C24.8742 37.7964 24.7364 37.8545 24.572 37.9285C23.5276 38.4146 22.4938 38.8109 21.4493 39.128C20.6222 39.3816 19.8058 39.5877 18.1092 39.9681L17.3193 40.1479L17.4466 40.1743C18.0032 40.3011 20.2194 40.6869 21.5394 40.8877C22.2977 40.9986 23.5435 41.173 23.6337 41.1782C23.6708 41.1836 23.6973 41.1413 23.7661 40.9722C24.079 40.2219 24.9378 37.844 24.9166 37.7911ZM19.2439 36.2217C19.2439 36.227 19.0954 36.4436 18.9204 36.7079C18.2895 37.6697 17.5313 38.6842 16.7679 39.5931C16.6142 39.7728 16.4869 39.9366 16.4869 39.9471C16.4869 39.9682 16.6619 40.0158 16.7149 40.0052C16.7361 40 17.0966 39.8996 17.5155 39.778C19.7846 39.128 22.568 38.309 23.4799 38.0237C24.0525 37.844 24.8318 37.5851 24.869 37.564C24.8902 37.5481 24.8266 37.5375 24.7099 37.527C23.9411 37.4636 22.6369 37.2416 21.7356 37.0144C21.0039 36.8294 20.4579 36.6656 19.7686 36.4068C19.4824 36.301 19.2491 36.2165 19.2439 36.2217ZM18.3107 36.2482C18.3054 36.2428 18.1729 36.2799 18.0191 36.3274C17.1761 36.5916 15.8878 36.9562 13.5656 37.5851C12.6909 37.8228 11.9645 38.0184 11.9539 38.0237C11.9116 38.0342 12.4417 38.3724 12.8658 38.5996C13.2051 38.7793 13.661 38.9906 14.1011 39.165C14.4564 39.3076 15.7977 39.778 15.9886 39.8308L16.0681 39.852L16.2219 39.5825C16.3119 39.4346 16.471 39.1703 16.577 39.0012C16.6884 38.8268 17.0012 38.3301 17.2822 37.8915C17.9396 36.8558 18.316 36.2535 18.3107 36.2482ZM15.013 33.2045L14.0747 34.33C12.7122 35.9681 12.0865 36.7554 11.5881 37.4741L11.4344 37.696L11.5298 37.7647C11.5829 37.8017 11.6306 37.8334 11.6359 37.8334C11.6411 37.8334 12.3357 37.5956 13.1786 37.2997C14.679 36.7818 17.9184 35.6353 17.9555 35.6089C17.9661 35.6035 17.8389 35.519 17.6692 35.4238C16.7255 34.8744 15.9462 34.2455 15.1826 33.3947L15.013 33.2045ZM14.3345 32.9456C14.3292 32.9456 14.0799 33.0036 13.7724 33.0777C13.4649 33.1517 12.6114 33.3525 11.8744 33.5215C10.5489 33.8281 9.13334 34.161 9.05383 34.1821C9.00088 34.1979 9.00088 34.3248 9.05921 34.5785C9.18116 35.1227 9.48859 35.7198 9.94458 36.2851C10.1619 36.5599 10.6496 37.0566 10.9306 37.2892L11.1692 37.49L11.392 37.1465C11.514 36.9562 11.7313 36.6392 11.8745 36.4384C12.0176 36.2376 12.3993 35.6986 12.728 35.2389C13.6717 33.9231 14.3451 32.9561 14.3345 32.9456ZM26.4277 32.5334C26.4117 32.5334 26.3322 32.565 26.2315 32.6285C25.3726 33.141 22.8702 34.3352 20.4579 35.3868C20.055 35.5612 19.7369 35.709 19.7475 35.7197C19.7793 35.7461 20.3094 35.9839 20.6806 36.1319C22.006 36.6603 23.4163 37.0566 24.9909 37.342C25.0227 37.3525 25.0545 37.3578 25.0598 37.3578C25.0652 37.3578 25.1764 37.025 25.3037 36.6233C25.5952 35.7092 25.7543 35.1913 25.9399 34.5307C26.1626 33.7435 26.4329 32.6549 26.4277 32.5334ZM21.1896 30.7103C21.1843 30.7103 21.0146 30.7791 20.8078 30.8636C19.3497 31.4872 17.8812 31.9944 16.1528 32.4647L15.6704 32.5968L15.7659 32.7131C16.418 33.5321 17.4146 34.3776 18.5387 35.0645C18.7295 35.1808 18.8886 35.2759 18.8938 35.2759C18.8992 35.2759 19.0636 34.9959 19.2597 34.6471C20.0337 33.2838 20.6382 32.0683 21.0994 30.9534C21.1525 30.8266 21.1949 30.7157 21.1896 30.7103ZM22.0325 30.4355C22.0272 30.4408 22.0007 30.5306 21.9582 30.631C21.6189 31.6773 20.9508 33.1833 20.2881 34.4198C20.1663 34.647 20.0708 34.8319 20.0708 34.8373C20.0708 34.8425 20.1291 34.8266 20.1927 34.8002C20.2564 34.7739 20.5957 34.647 20.9404 34.5202C23.3102 33.6377 25.6271 32.676 26.3321 32.2849L26.5018 32.1899L26.3798 32.1635C25.0333 31.8517 23.4534 31.244 22.3188 30.5888C22.165 30.499 22.0378 30.4302 22.0325 30.4355ZM13.7618 28.9612C13.7568 28.9626 13.7544 28.9639 13.752 28.9651C13.7493 28.9672 13.7466 28.9682 13.7432 28.9697C13.4907 29.1021 13.243 29.2346 12.9984 29.3682L13.2812 29.2151C12.9857 29.3769 12.6073 29.5878 12.3145 29.7538C11.5616 30.1819 11.1216 30.5148 10.5702 31.0854C9.74312 31.9415 9.1493 32.9561 9.02738 33.7328C9.01149 33.8227 9.01682 33.828 9.05385 33.8173C9.07517 33.8121 9.36141 33.7328 9.6901 33.643C10.7929 33.3419 14.3026 32.3167 14.3397 32.2849C14.3451 32.2797 14.2602 32.1 14.1542 31.8834C13.7725 31.1013 13.6452 30.5306 13.6877 29.7591C13.6982 29.5848 13.7247 29.3312 13.7459 29.1937C13.7777 29.0035 13.783 28.9612 13.7618 28.9612ZM26.9101 27.3972L26.8253 27.4606C26.7191 27.5557 26.2315 27.9044 25.908 28.1211C25.0438 28.6971 24.0472 29.2784 23.0079 29.8173C22.7482 29.9547 22.5255 30.071 22.5203 30.0762C22.499 30.0974 23.2465 30.5572 23.7609 30.8372C24.5402 31.2652 25.4044 31.6298 26.1997 31.8782C26.3799 31.9311 26.5336 31.9733 26.5336 31.9733C26.5389 31.968 26.5655 31.7989 26.5973 31.5929C26.7829 30.4144 26.9101 28.7975 26.9101 27.6191V27.3972ZM17.7548 27.064L17.4563 27.1948C16.502 27.6123 15.5995 28.033 14.7377 28.4618C14.7021 28.5087 14.6871 28.5868 14.6473 28.7763C14.5571 29.2202 14.5412 29.9388 14.6207 30.351C14.7002 30.7684 14.8487 31.2229 15.029 31.577C15.1138 31.7407 15.1244 31.7514 15.1509 31.7144C15.1669 31.6932 15.2888 31.5029 15.416 31.2969C16.1688 30.1027 16.7308 29.1198 17.2451 28.1211C17.4723 27.6772 17.7034 27.1984 17.7548 27.064ZM18.8464 26.6038C18.7778 26.6321 18.7096 26.6604 18.6415 26.6888C18.6326 26.7041 18.6251 26.7231 18.6182 26.7472C18.6023 26.8 18.5122 27.0325 18.422 27.265C17.8918 28.6072 16.9482 30.5042 16.3279 31.4713C16.19 31.6879 16.1741 31.7143 16.2219 31.6984C16.5202 31.6007 16.8189 31.5038 17.1178 31.4078C18.369 31.0062 19.4612 30.6258 20.4631 30.2453C21.3274 29.9177 21.3168 29.923 21.2849 29.8913C21.269 29.8754 21.1524 29.775 21.0251 29.6693C20.6329 29.3364 20.161 28.8292 19.8005 28.3536C19.4717 27.9203 19.09 27.2439 18.9204 26.7842C18.8886 26.6891 18.8515 26.6045 18.8409 26.5939L18.8464 26.6038ZM23.1051 24.975L22.9879 25.0153C22.9803 25.0801 22.979 25.2119 22.9762 25.4895C22.9656 26.557 22.7641 27.8885 22.4088 29.2044C22.3665 29.363 22.3348 29.495 22.3453 29.495C22.3506 29.495 22.568 29.4052 22.8277 29.2889C24.3016 28.639 25.5051 27.9943 26.4701 27.3391C26.9206 27.0326 26.8995 27.0643 26.7033 26.9798C26.0672 26.705 24.5826 25.8806 23.4905 25.1989C23.2959 25.079 23.1769 25.0086 23.1051 24.975ZM22.299 25.2601L22.1394 25.3195L21.7515 25.4632C20.9323 25.7697 20.149 26.0741 19.3974 26.3784C19.4293 26.4892 19.5846 26.8603 19.6892 27.0642C19.9278 27.5292 20.2511 28.0048 20.6647 28.4804C20.9032 28.7552 21.6296 29.4632 21.6509 29.4368C21.6614 29.4263 21.7145 29.2624 21.7728 29.067C22.0166 28.2585 22.165 27.5398 22.2605 26.7683C22.2995 26.4722 22.3205 25.449 22.299 25.2601ZM20.3413 23.0112L20.3306 23.0113C20.3201 23.0165 20.2194 23.1381 20.108 23.2702C19.0795 24.5278 17.7064 25.7855 16.1211 26.9321C15.9196 27.0801 15.7553 27.2017 15.7553 27.2069C15.7553 27.2122 15.9674 27.1118 16.2272 26.9798C16.4869 26.8528 16.8846 26.6627 17.1125 26.5569C17.9237 26.1871 19.1219 25.6904 20.4209 25.1884L21.1471 24.9083L21.1366 24.8026C21.0782 24.3165 20.8449 23.714 20.5427 23.2649C20.3996 23.0535 20.3677 23.006 20.3413 23.0112ZM19.5196 23.2121C19.4983 23.1909 17.7011 24.4063 16.9217 24.9664C16.6301 25.1726 16.593 25.2096 16.3915 25.4685C16.0893 25.8594 15.8243 26.1765 15.4743 26.5517C14.9229 27.1488 14.8752 27.2017 14.9123 27.1805C14.9283 27.1699 15.0714 27.0801 15.2304 26.9798C16.487 26.1871 17.4996 25.3733 18.5228 24.3323C18.9364 23.9148 19.5408 23.2332 19.5196 23.2121ZM26.6272 23.8335L26.5628 23.8536C25.5565 24.16 24.5841 24.4711 23.674 24.7797C23.8446 24.9128 24.8411 25.5713 25.3674 25.9018L25.4605 25.9597C26.0603 26.3312 26.8327 26.7842 26.873 26.7842C26.8835 26.7842 26.8889 26.6415 26.8782 26.4249C26.8405 25.5125 26.7021 24.1274 26.6272 23.8335ZM25.256 19.9782C25.2399 19.9676 24.2115 20.4854 23.5541 20.8342C22.5786 21.3572 21.0358 22.2344 20.9351 22.3243C20.9085 22.3507 20.9298 22.4088 21.0517 22.6519C21.338 23.2331 21.5024 23.9148 21.5024 24.5542C21.5024 24.6757 21.5076 24.755 21.5236 24.7497C21.5342 24.7444 21.7622 24.4855 22.0272 24.1737C22.6634 23.4234 23.5859 22.2715 24.1055 21.5845C24.5402 21.0085 25.2665 19.9887 25.256 19.9782ZM26.3641 19.7034L26.1785 19.9887C25.2559 21.3678 24.0154 22.7841 22.6157 24.068C22.1271 24.5172 22.0969 24.5433 22.1187 24.5439L22.1279 24.5436C22.1438 24.5436 22.3506 24.4697 22.5945 24.3799C24.7841 23.5766 26.6609 22.9795 29.0891 22.3085L29.5185 22.187L29.4549 22.1182C29.3382 21.9914 28.755 21.4682 28.4529 21.2199C27.9173 20.7707 27.2175 20.2582 26.6239 19.8724L26.3641 19.7034ZM18.5546 21.6162C18.544 21.6162 18.4909 21.7325 18.4485 21.8858C18.3319 22.2398 18.1676 22.6467 18.0033 22.9902C17.8176 23.3759 17.6428 23.6771 17.2928 24.2108C17.2399 24.29 17.2556 24.2795 17.7223 23.9096C18.1676 23.5555 18.931 22.9795 19.4347 22.6202C19.6149 22.4882 19.7527 22.3771 19.7422 22.3666C19.4718 22.1446 19.1696 21.9386 18.8303 21.7536C18.6924 21.6796 18.5705 21.6162 18.5546 21.6162ZM34.2371 16.5382C34.2264 16.5276 33.5425 16.7231 32.901 16.9238C31.6762 17.2991 30.0434 17.8803 28.8452 18.3665C28.1612 18.6412 27.26 19.027 27.26 19.0428C27.26 19.0481 27.3077 19.0904 27.366 19.1326C27.4244 19.1749 27.5993 19.3176 27.7583 19.4497C28.6013 20.1472 29.3117 20.924 29.9055 21.8118C29.9798 21.928 30.0486 22.0231 30.0539 22.0231C30.0593 22.0231 30.2342 21.8012 30.4463 21.537C30.653 21.2728 31.2787 20.4854 31.8353 19.7879C32.8903 18.4669 33.357 17.8644 33.6751 17.41C33.8977 17.0982 34.2476 16.5487 34.2371 16.5382ZM34.6453 16.6438L34.6393 16.6546C34.6133 16.7044 34.5164 16.9075 34.4067 17.1405C33.5373 18.8843 32.8003 19.8619 31.1887 21.4101C30.9288 21.6585 30.7221 21.8645 30.7326 21.8645C30.7433 21.8645 30.9076 21.8275 31.0931 21.7853C33.8395 21.1248 36.697 20.6545 38.9291 20.4854C39.2153 20.4643 39.4592 20.4432 39.4592 20.4432C39.4698 20.4379 38.7753 19.7192 38.4944 19.4444C37.4976 18.4721 36.2358 17.5262 34.9475 16.7917C34.7937 16.702 34.6664 16.6386 34.6453 16.6438ZM22.1491 17.9754C22.1332 17.9596 21.0835 18.7997 20.5852 19.2278C19.8906 19.8196 18.984 20.6387 18.984 20.6809C18.984 20.6914 19.0953 20.7549 19.2386 20.8288C19.599 21.0138 19.8801 21.2199 20.2246 21.5528L20.5215 21.8381L20.654 21.6267C20.723 21.5052 20.8502 21.2885 20.9351 21.1406C21.2903 20.5065 21.6561 19.6664 21.8735 18.9953C21.9848 18.6412 22.165 17.9913 22.1491 17.9754ZM22.8383 17.8487C22.8225 17.8487 22.8012 17.9014 22.7801 17.9807C22.5627 18.99 22.181 20.0257 21.7038 20.8922C21.5607 21.1511 21.5554 21.1724 21.5766 21.1724C21.5819 21.1724 21.7939 21.0455 22.0484 20.8922C22.9391 20.3532 23.7927 19.883 24.7895 19.3863C25.1022 19.233 25.3567 19.1009 25.3514 19.0956C25.3143 19.064 24.5985 18.6834 24.1214 18.4457C23.6018 18.1869 22.9126 17.8644 22.8383 17.8487ZM18.7508 16.5223C18.7455 16.5276 18.7613 16.6543 18.7773 16.8023C18.947 17.9596 18.9734 19.1009 18.8515 19.9887C18.8463 20.0309 18.8515 20.0627 18.8621 20.0627C18.8727 20.0627 19.0741 19.8778 19.3127 19.6505C20.1133 18.879 20.7814 18.2714 21.4759 17.6954C21.6455 17.5474 21.7886 17.4258 21.7886 17.4206C21.7886 17.3888 20.5056 16.9609 19.9012 16.7917C19.5036 16.6808 18.7666 16.5064 18.7508 16.5223ZM27.9545 14.2607C27.9333 14.2395 26.767 14.8842 26.0512 15.3175C25.1499 15.8565 23.4427 16.982 23.4799 17.0137C23.4852 17.0242 23.6708 17.0982 23.8828 17.188C24.6463 17.5051 25.3461 17.8433 25.9611 18.2026C26.1255 18.2977 26.2686 18.377 26.2791 18.3718C26.2898 18.3665 26.3905 18.208 26.5019 18.0124C27.1328 16.9134 27.647 15.7455 27.8379 14.9582C27.9015 14.7046 27.9704 14.2765 27.9545 14.2607ZM28.3574 14.324C28.3415 14.324 28.3257 14.4033 28.3203 14.5037C28.2302 15.5711 27.8644 16.8235 27.2971 18.023C27.2282 18.171 27.1752 18.2925 27.1858 18.2925C27.1963 18.2925 27.3342 18.2397 27.4879 18.1763C29.3701 17.4154 31.3212 16.8129 33.6008 16.2898L33.8711 16.2264L33.4842 16.052C32.551 15.6293 31.1196 15.1062 29.8737 14.7362C29.3701 14.5883 28.4052 14.324 28.3574 14.324ZM21.953 13.0981C21.9052 13.0823 20.4526 14.2025 19.9172 14.6728C19.6362 14.9212 18.9788 15.5764 18.9788 15.6081C18.9788 15.6187 19.3445 15.7296 19.7953 15.8512C20.5852 16.0731 21.5076 16.3426 22.0749 16.5223L22.3506 16.6121L22.3665 16.5593C22.3771 16.5328 22.3877 16.3268 22.3984 16.1048C22.4302 15.3069 22.34 14.4509 22.1438 13.6846C22.0378 13.2884 21.9848 13.1087 21.953 13.0981ZM22.3188 13.1509C22.3135 13.1563 22.3453 13.2355 22.3824 13.3201C22.7536 14.1761 22.9551 15.1907 22.9551 16.1947C22.9551 16.3796 22.9604 16.5328 22.9657 16.5328C22.9709 16.5328 23.1989 16.3849 23.4693 16.2052C24.5031 15.5182 25.5422 14.9529 26.9419 14.324C27.2971 14.1655 27.4085 14.1021 27.3766 14.0916C27.3131 14.0651 26.2422 13.8432 25.5052 13.7005C24.5137 13.5102 22.3347 13.1352 22.3188 13.1509ZM17.3617 12.2263C17.3599 12.2263 17.3587 12.2268 17.3579 12.2272C17.3702 12.2634 17.4124 12.3598 17.4624 12.464C17.8229 13.2301 18.2206 14.3187 18.4114 15.0532C18.438 15.1643 18.4697 15.254 18.4697 15.254C18.4697 15.254 18.6023 15.1272 18.7561 14.974C19.1378 14.5935 19.6679 14.1708 20.2565 13.7798C20.4897 13.6212 21.1949 13.2038 21.3697 13.114C21.4493 13.0717 21.513 13.0348 21.513 13.0241C21.513 13.0136 21.3751 12.9819 21.2001 12.9555C20.1663 12.7811 18.5493 12.4746 17.648 12.2738C17.5049 12.2421 17.3883 12.2263 17.3617 12.2263ZM14.7533 11.5076C14.7533 11.5129 14.8647 11.608 15.013 11.7136C16.1476 12.6014 17.1284 13.7057 17.7488 14.7943C17.8177 14.9158 17.8759 15.0057 17.8814 15.0004C17.8867 15.0004 17.8335 14.789 17.7647 14.5406C17.5845 13.8854 17.049 12.1787 17.0118 12.1417C17.0065 12.1417 16.7415 12.0677 16.4234 11.9885C16.1895 11.929 15.9562 11.8673 15.7236 11.8035C15.416 11.7189 15.1562 11.6396 14.9548 11.571C14.8433 11.534 14.7585 11.5024 14.7533 11.5076ZM21.9159 10.6145C21.9106 10.6093 21.9 10.6145 21.8947 10.6251C21.8735 10.641 21.7622 10.7361 21.6402 10.8365C21.1418 11.254 20.5799 11.645 20.0232 11.9515C19.9543 11.9885 19.9012 12.0255 19.9012 12.0308L20.1777 12.0687C21.0026 12.2044 21.8858 12.346 22.9293 12.509C22.9272 12.5014 22.9165 12.4895 22.9072 12.4746C22.7695 12.2685 22.2074 11.201 22.0272 10.8048C21.9636 10.6621 21.9371 10.6145 21.9159 10.6145ZM15.7765 9.18255L16.0522 9.43085C16.3332 9.69512 17.0649 10.3926 17.998 11.2962L18.5023 11.7883C18.6727 11.8173 18.8425 11.846 19.0127 11.8747C19.0642 11.8529 19.1937 11.7799 19.3339 11.6926C19.9065 11.3385 20.7336 10.8788 21.4864 10.5036C21.6773 10.4138 21.8257 10.3345 21.8204 10.3293C21.8152 10.3293 21.6666 10.3134 21.4917 10.2975C19.9329 10.1707 17.1072 9.63169 15.9833 9.25117L15.7765 9.18255ZM15.5645 9.34632L15.4955 9.39394C14.7321 9.93287 14.2814 10.4613 14.2761 10.8153L14.2762 10.8722C14.3312 10.8925 14.3847 10.9121 14.4352 10.9317C14.9123 11.0955 15.522 11.2381 15.84 11.3069C16.2705 11.3993 16.8544 11.5047 17.3786 11.5959C17.3606 11.5692 17.2975 11.4926 17.2239 11.4018C17.1337 11.2909 16.7202 10.7889 16.312 10.2764L15.5645 9.34632ZM20.8927 6.81526C20.7389 6.84165 18.7455 7.67126 18.0191 8.00424C17.4518 8.26838 16.1636 8.93953 16.1848 8.96066C16.1848 8.96592 16.4234 9.00289 16.7044 9.0399C18.4592 9.28297 20.8821 9.70043 21.4229 9.84834C21.6508 9.91708 21.6508 9.94876 21.4547 9.36747C21.1949 8.59595 21.0305 7.88269 20.9404 7.1428C20.9192 6.96853 20.8979 6.82047 20.8927 6.81526Z" fill="#0B0C0D"/>
</svg>
