<svg width="48" height="48" viewBox="0 0 48 48" fill="none" xmlns="http://www.w3.org/2000/svg">
<path d="M33.0369 11.2613C35.5424 8.97136 39.4508 9.03754 41.8739 11.4109C44.236 13.7371 46.9177 20.1443 36.7144 27.6171C33.7687 29.7755 32.7359 34.0832 32.671 37.8332C32.666 38.1552 32.3979 38.4136 32.0689 38.4136H29.3502C29.0464 38.4136 28.7901 38.1919 28.7528 37.8967C28.4839 35.8775 26.7268 34.3669 24.6469 34.3669C22.567 34.3669 20.8099 35.8775 20.541 37.8967C20.5036 38.1919 20.2474 38.4136 19.9435 38.4136H17.1924C16.8876 38.4136 16.6299 38.1926 16.5903 37.8967C16.3298 35.872 14.5711 34.3534 12.4867 34.3534C10.4024 34.3534 8.64367 35.872 8.38319 37.8967C8.3458 38.1919 8.08958 38.4136 7.78572 38.4136H4.96048C4.67172 38.4106 4.4245 38.2102 4.36764 37.933C2.81607 29.8843 5.70616 23.5406 10.4674 20.2486L12.9453 24.443C13.5454 25.4457 14.6436 26.0618 15.8307 26.0618C16.3955 26.064 16.9511 25.9218 17.4425 25.6491L18.605 25.0143H18.6421C20.0093 24.1924 21.3003 23.2547 22.5002 22.212C22.6301 22.0959 22.7026 21.9307 22.6993 21.7586C22.6983 21.5814 22.6147 21.4144 22.4724 21.3051L22.3968 21.2504C22.1612 21.1046 21.8511 21.1228 21.6341 21.3051C20.4949 22.2978 19.2707 23.1928 17.9751 23.9804L16.8126 24.6198L16.8636 24.5835L16.7987 24.6198C15.8075 25.1606 14.5565 24.8236 13.9874 23.8625L11.3659 19.4233C11.0785 18.9294 11.0151 18.3403 11.1911 17.7986C11.367 17.2569 11.7662 16.8118 12.2922 16.5711C27.5856 9.44749 34.3245 23.2957 39.3729 18.3532C40.4194 17.3331 40.7328 15.7951 40.1662 14.4599C39.5996 13.1248 38.2652 12.2571 36.7885 12.2634C36.0014 12.2611 35.2353 12.5111 34.607 12.9753C34.3659 13.1523 34.0286 13.1291 33.815 12.9209L33.023 12.1183C32.9081 12.0031 32.8433 11.8486 32.8424 11.6875C32.8467 11.5257 32.9167 11.3723 33.0369 11.2613ZM31.8594 21.263C31.6226 20.7476 31.0498 20.4645 30.4856 20.5841C29.9214 20.7037 29.5195 21.1934 29.5216 21.7586L31.4668 22.7153C31.9326 22.3859 32.0962 21.7785 31.8594 21.263Z" fill="#0B0C0D"/>
</svg>
