<svg width="48" height="48" viewBox="0 0 48 48" fill="none" xmlns="http://www.w3.org/2000/svg">
<path d="M32.2944 31.9866C33.8812 31.8246 35.0851 30.4756 35.0304 28.8567C34.9758 27.2378 33.6077 25.9426 31.9661 25.9426H31.8567C30.1602 25.9966 28.8471 27.3996 28.9018 29.0725C28.9566 29.882 29.2848 30.5834 29.7773 31.0691C27.9169 34.6848 25.0715 37.3289 20.8034 39.5414C17.9032 41.0524 14.8937 41.5921 11.8843 41.2144C9.42182 40.8906 7.50664 39.8114 6.30265 38.0304C4.55174 35.3863 4.38763 32.5261 5.86508 29.6662C6.90481 27.6155 8.5462 26.1045 9.58593 25.349C9.36706 24.6475 9.03868 23.4603 8.87458 22.597C0.940243 28.2632 1.7611 35.9259 4.16876 39.5414C5.97444 42.2397 9.64068 43.9126 13.6899 43.9126C14.7842 43.9126 15.8785 43.8046 16.9731 43.5349C23.9772 42.1857 29.285 38.0845 32.2944 31.9866ZM41.9251 25.2951C37.7664 20.4923 31.6379 17.8482 24.6337 17.8482H23.7583C23.2658 16.8768 22.2261 16.2292 21.077 16.2292H20.9675C19.2714 16.2832 17.9581 17.6862 18.0128 19.3591C18.0675 20.978 19.4355 22.2732 21.077 22.2732H21.1863C22.3902 22.2192 23.4299 21.4637 23.8676 20.4383H24.8526C29.0113 20.4383 32.9511 21.6255 36.508 23.946C39.2438 25.7268 41.2138 28.0473 42.3081 30.8533C43.2383 33.1198 43.1836 35.3323 42.1986 37.2211C40.6665 40.0811 38.0948 41.646 34.7021 41.646C32.5134 41.646 30.434 40.9984 29.3396 40.5128C28.7377 41.0524 27.6433 41.9158 26.8771 42.4555C29.2303 43.5348 31.6379 44.1284 33.936 44.1284C39.1891 44.1284 43.0742 41.2682 44.5516 38.4082C46.1384 35.2783 46.029 29.882 41.9251 25.2951ZM14.1277 32.9038C14.1824 34.5228 15.5504 35.8177 17.1919 35.8177H17.3014C18.9978 35.7639 20.3109 34.3608 20.2562 32.688C20.2015 31.069 18.8335 29.7739 17.1919 29.7739H17.0825C16.9731 29.7739 16.8088 29.7739 16.6995 29.8278C14.456 26.1583 13.5258 22.1651 13.8541 17.848C14.0728 14.6102 15.1674 11.804 17.0825 9.48356C18.6693 7.4869 21.7336 6.51557 23.813 6.46174C29.6131 6.35374 32.0754 13.4768 32.2397 16.337C32.9511 16.4988 34.1549 16.8767 34.9758 17.1466C34.319 8.40456 28.8471 3.87158 23.5942 3.87158C18.6693 3.87158 14.1277 7.37924 12.3218 12.5597C9.8048 19.467 11.4464 26.1045 14.5106 31.3389C14.2371 31.7166 14.0728 32.3101 14.1277 32.9038Z" fill="#0B0C0D"/>
</svg>
