<svg width="48" height="48" viewBox="0 0 48 48" fill="none" xmlns="http://www.w3.org/2000/svg">
<path d="M36.2603 6H11.1511C9.39672 6 8 7.40109 8 9.15V37.85C8 39.5989 9.39672 41 11.1511 41H36.2603C38.0103 41 39.4114 39.5989 39.4114 37.85V9.15C39.4114 7.40109 38.0147 6 36.2603 6ZM37.6614 37.85C37.6614 38.6364 37.0456 39.2511 36.2603 39.2511H11.1511C10.3647 39.2511 9.75 38.6353 9.75 37.85V9.15C9.75 8.36359 10.3658 7.74891 11.1511 7.74891H36.2603C37.0467 7.74891 37.6614 8.36469 37.6614 9.15V37.85ZM15.8728 35.7467L19.8092 32.25L15.8728 28.7533V35.7467ZM30.0522 21.575C29.3511 20.8739 28.0408 20.0033 25.8533 20.0033C23.4897 20.0033 21.0397 20.6125 19.2908 21.2272V11.2533H15.7864V26.3875L18.2364 25.2489C18.2364 25.2489 22.2647 23.4147 25.7614 23.4147C27.5103 23.4147 27.9489 24.3783 27.9489 25.2489V35.7478H31.4522V25.2489C31.5386 24.9875 31.5386 23.0614 30.0522 21.575ZM25.4147 16.9375H28.9114C30.4831 15.0967 31.275 13.2625 31.5375 11.2533H28.0408C27.6864 13.2625 26.8103 15.0978 25.4147 16.9375Z" fill="#0B0C0D"/>
</svg>
